<svg width="16" height="22" viewBox="0 0 16 22" fill="none" xmlns="http://www.w3.org/2000/svg">
<path d="M3.30158 0.481487C2.46293 -0.237358 1.20033 -0.140234 0.481487 0.698417C-0.237358 1.53707 -0.140234 2.79967 0.698417 3.51851L3.30158 0.481487ZM12.5 11L13.8016 12.5185L15.5732 11L13.8016 9.48149L12.5 11ZM0.698417 18.4815C-0.140234 19.2003 -0.237358 20.4629 0.481487 21.3016C1.20033 22.1402 2.46293 22.2374 3.30158 21.5185L0.698417 18.4815ZM0.698417 3.51851L11.1984 12.5185L13.8016 9.48149L3.30158 0.481487L0.698417 3.51851ZM11.1984 9.48149L0.698417 18.4815L3.30158 21.5185L13.8016 12.5185L11.1984 9.48149Z" fill="#0082FF"/>
</svg>
