<?xml version="1.0" encoding="utf-8"?>
<!-- Generator: Adobe Illustrator 25.0.1, SVG Export Plug-In . SVG Version: 6.00 Build 0)  -->
<svg version="1.1" id="Capa_1" xmlns="http://www.w3.org/2000/svg" xmlns:xlink="http://www.w3.org/1999/xlink" x="0px" y="0px"
	 viewBox="0 0 360 483.9" style="enable-background:new 0 0 360 483.9;" xml:space="preserve">
<style type="text/css">
	.st0{fill:#FF1D00;stroke:#FF1D00;stroke-width:5;stroke-miterlimit:10;}
</style>
<g>
	<path class="st0" d="M322.5,11h-224c-0.1,0-0.2,0-0.3,0S98,11,98,11c-0.3,0-0.6,0.1-0.9,0.1l0,0c-0.3,0.1-0.7,0.2-1,0.3
		c-0.1,0-0.1,0-0.2,0.1c-0.3,0.1-0.6,0.2-0.9,0.4c0,0,0,0-0.1,0c-0.3,0.2-0.6,0.3-0.8,0.5c-0.1,0-0.1,0.1-0.2,0.1
		c-0.3,0.2-0.5,0.4-0.8,0.7l0,0l-80,80l0,0c-0.2,0.2-0.4,0.5-0.7,0.8c0,0.1-0.1,0.1-0.1,0.2c-0.2,0.3-0.4,0.5-0.5,0.8c0,0,0,0,0,0.1
		c-0.1,0.3-0.3,0.6-0.4,0.9c0,0.1,0,0.1-0.1,0.2c-0.1,0.3-0.2,0.6-0.3,1l0,0c0.1,0.2,0,0.5,0,0.8c0,0.1,0,0.2,0,0.3
		c0,0.1,0,0.2,0,0.3v352c0,13,10.5,23.5,23.5,23.5h288c13,0,23.5-10.5,23.5-23.5v-416C346,21.5,335.5,11,322.5,11z M91,36.6v45.9
		c0,4.7-3.8,8.5-8.5,8.5H36.6L91,36.6z M331,450.5c0,4.7-3.8,8.5-8.5,8.5h-288c-4.7,0-8.5-3.8-8.5-8.5V106h56.5
		c13,0,23.5-10.5,23.5-23.5V26h216.5c4.7,0,8.5,3.8,8.5,8.5V450.5z"/>
	<path class="st0" d="M82.5,226h192c4.1,0,7.5-3.4,7.5-7.5s-3.4-7.5-7.5-7.5h-192c-4.1,0-7.5,3.4-7.5,7.5S78.4,226,82.5,226z"/>
	<path class="st0" d="M82.5,266h192c4.1,0,7.5-3.4,7.5-7.5s-3.4-7.5-7.5-7.5h-192c-4.1,0-7.5,3.4-7.5,7.5S78.4,266,82.5,266z"/>
	<path class="st0" d="M82.5,306h96c4.1,0,7.5-3.4,7.5-7.5s-3.4-7.5-7.5-7.5h-96c-4.1,0-7.5,3.4-7.5,7.5S78.4,306,82.5,306z"/>
	<path class="st0" d="M186,338.5c0-4.1-3.4-7.5-7.5-7.5h-96c-4.1,0-7.5,3.4-7.5,7.5s3.4,7.5,7.5,7.5h96
		C182.6,346,186,342.6,186,338.5z"/>
	<path class="st0" d="M218,140.5c0-4.1-3.4-7.5-7.5-7.5s-7.5,3.4-7.5,7.5c0,14.6,13.6,26.4,32,29v1c0,4.1,3.4,7.5,7.5,7.5
		s7.5-3.4,7.5-7.5v-1c18.4-2.5,32-14.4,32-29s-13.6-26.4-32-29V82.8c9,1.9,17,7,17,13.7c0,4.1,3.4,7.5,7.5,7.5s7.5-3.4,7.5-7.5
		c0-14.6-13.6-26.4-32-29v-1c0-4.1-3.4-7.5-7.5-7.5s-7.5,3.4-7.5,7.5v1c-18.4,2.5-32,14.4-32,29s13.6,26.4,32,29v28.7
		C226,152.3,218,147.2,218,140.5z M267,140.5c0,6.7-8,11.8-17,13.7v-27.4C259,128.7,267,133.8,267,140.5z M218,96.5
		c0-6.7,8-11.8,17-13.7v27.4C226,108.3,218,103.2,218,96.5z"/>
	<path class="st0" d="M289.3,331.5c-3.6-2-8.2-0.8-10.2,2.8l-15.4,27.3l-2.1-1.6c-1.8-1.4-4.1-1.9-6.3-1.4c-2.2,0.5-4,2-5,4
		l-7.8,15.8l-2.5-2.9c-3.7-4.2-9.1-6.1-14.6-5s-9.9,4.9-11.7,10.1l-8.6,24.8l-20.5-25.9c-1.3-1.6-3.1-2.6-5.2-2.8
		c-2-0.2-4.1,0.5-5.6,1.8l-21.7,19c-3.1,2.7-3.4,7.5-0.7,10.6s7.5,3.4,10.6,0.7l15.8-13.8l19.6,24.7c2.2,2.8,5.5,4.4,9,4.4
		c0.6,0,1.3-0.1,1.9-0.2c4.1-0.7,7.6-3.6,8.9-7.6l10.7-30.8c0-0.1,0.1-0.3,0.4-0.3c0.3-0.1,0.4,0.1,0.5,0.2l9.9,11.4
		c1.6,1.9,4.1,2.8,6.6,2.5s4.6-1.9,5.8-4.1l8.7-17.7l1.7,1.3c1.7,1.3,3.9,1.8,6.1,1.4c2.1-0.4,4-1.8,5-3.7l19.7-34.8
		C294.1,338.1,292.9,333.5,289.3,331.5z"/>
</g>
</svg>
