<?xml version="1.0" encoding="utf-8"?>
<!-- Generator: Adobe Illustrator 25.0.1, SVG Export Plug-In . SVG Version: 6.00 Build 0)  -->
<svg version="1.1" id="Layer_1" xmlns="http://www.w3.org/2000/svg" xmlns:xlink="http://www.w3.org/1999/xlink" x="0px" y="0px"
	 viewBox="0 0 289.1 492" style="enable-background:new 0 0 289.1 492;" xml:space="preserve">
<style type="text/css">
	.st0{fill:#FF1D00;}
</style>
<path class="st0" d="M281.3,226.8L62.3,7.9C51.9-2.5,34.9-2.6,24.4,7.9c0,0-0.1,0.1-0.1,0.1L8.1,24.1c-10.5,10.5-10.5,27.6,0,38.1
	L192,246L7.9,430C-2.6,440.5-2.6,457.5,7.8,468c0,0,0.1,0.1,0.1,0.1L24,484.1c10.4,10.5,27.4,10.5,37.9,0.1c0,0,0.1-0.1,0.1-0.1
	L281.3,265c5.1-5,7.9-11.9,7.8-19.1C289.1,238.8,286.3,231.9,281.3,226.8z"/>
</svg>
