<?xml version="1.0" encoding="utf-8"?>
<!-- Generator: Adobe Illustrator 25.0.1, SVG Export Plug-In . SVG Version: 6.00 Build 0)  -->
<svg version="1.1" id="Capa_1" xmlns="http://www.w3.org/2000/svg" xmlns:xlink="http://www.w3.org/1999/xlink" x="0px" y="0px"
	 viewBox="0 0 606.4 552" style="enable-background:new 0 0 606.4 552;" xml:space="preserve">
<style type="text/css">
	.st0{fill:#00A6FF;}
	.st1{fill:#FF1D00;}
</style>
<path class="st0" d="M514.3,145.3c-8.2-8-21.4-7.8-29.5,0.5l-155,160.3l-46.5-44.9c-8.2-7.9-21.4-7.8-29.5,0.6l0,0L72,450.5
	c-8,8.2-8,21.4,0.3,29.4c8.2,8,21.4,8,29.4-0.3c0.1-0.1,0.2-0.2,0.3-0.4l167.3-173.7l46.5,44.8c8.3,7.9,21.4,7.8,29.4-0.6
	l169.6-175.3C522.8,166.4,522.6,153.3,514.3,145.3z"/>
<path class="st1" d="M521.4,115l-145.5,1.9c-10.7,0.4-19.1,9.4-18.7,20.1c0.4,10.3,8.9,18.6,19.2,18.7l126-1.6l1.7,126.1
	c-0.1,10.7,8.5,19.5,19.2,19.6c10.7,0.1,19.5-8.5,19.6-19.2c0-0.3,0-0.6,0-0.9L541,134.2C540.9,123.5,532.1,115,521.4,115L521.4,115
	z"/>
<g>
	<g>
		<path class="st1" d="M583.4,506H46V23C46,10.3,35.7,0,23,0S0,10.3,0,23v506c0,12.7,10.3,23,23,23h560.4c12.7,0,23-10.3,23-23
			S596.1,506,583.4,506z"/>
	</g>
</g>
</svg>
