<?xml version="1.0" encoding="utf-8"?>
<!-- Generator: Adobe Illustrator 25.0.1, SVG Export Plug-In . SVG Version: 6.00 Build 0)  -->
<svg version="1.1" id="Layer_1" xmlns="http://www.w3.org/2000/svg" xmlns:xlink="http://www.w3.org/1999/xlink" x="0px" y="0px"
	 viewBox="0 0 24 24" style="enable-background:new 0 0 24 24;" xml:space="preserve">
<style type="text/css">
	.st0{fill:#FF1D00;}
</style>
<g id="cash">
	<path class="st0" d="M21,10.8V6c0-1.4-2.9-2-5.5-2c-0.8,0-1.7,0.1-2.5,0.2V4c0-1.4-2.9-2-5.5-2S2,2.6,2,4v15c0,1.4,2.8,2,5.5,2
		c0.9,0,1.9-0.1,2.8-0.3c3.4,2.3,8.1,1.4,10.4-2C22.3,16.3,22.4,13.2,21,10.8z M17.9,7.8c0.7-0.1,1.4-0.3,2.1-0.6v2.2
		C19.4,8.8,18.7,8.2,17.9,7.8z M7.5,6C9,6.1,10.6,5.8,12,5.2V7c-0.1,0.3-1.6,1-4.5,1S3.1,7.3,3,7V5.2C4.4,5.8,6,6.1,7.5,6z M7.4,12
		C7.2,12.6,7,13.3,7,14c-2.6-0.1-4-0.7-4-1v-1.8C4.4,11.8,5.9,12,7.4,12z M3,16v-1.8C4.3,14.7,5.6,15,7,15c0,0.7,0.2,1.4,0.4,2
		C4.6,17,3.1,16.3,3,16z M7.9,11H7.5c-2.9,0-4.4-0.7-4.5-1V8.2C4.4,8.8,6,9.1,7.5,9c0.7,0,1.4,0,2.1-0.1C8.9,9.5,8.3,10.2,7.9,11z
		 M15.5,5c2.9,0,4.4,0.7,4.5,1s-1.6,1-4.5,1c-0.8,0-1.7-0.1-2.5-0.2V5.2C13.8,5.1,14.7,5,15.5,5z M7.5,3c2.9,0,4.4,0.7,4.5,1
		c-0.1,0.3-1.5,0.9-4.2,1H7.5C4.6,5,3.1,4.3,3,4l0,0C3.1,3.7,4.6,3,7.5,3z M7.5,20c-2.9,0-4.4-0.7-4.5-1v-1.8c1.4,0.6,3,0.8,4.5,0.8
		h0.4c0.4,0.7,0.8,1.3,1.4,1.9C8.7,20,8.1,20,7.5,20z M14.5,21C10.9,21,8,18.1,8,14.5S10.9,8,14.5,8s6.5,2.9,6.5,6.5
		C21,18.1,18.1,21,14.5,21z"/>
	<path class="st0" d="M15,14v-2.3c0.5,0.1,0.9,0.4,1,0.9c0.1,0.3,0.3,0.4,0.6,0.4c0.3-0.1,0.4-0.3,0.4-0.6c-0.3-0.9-1.1-1.5-2-1.6
		v-0.2c0-0.3-0.2-0.5-0.5-0.5S14,10.2,14,10.5v0.2c-1.1,0.1-1.9,1-2,2.1c0,0.2,0,0.3,0.1,0.5c0.3,0.9,1,1.6,1.9,1.7v2.3
		c-0.5-0.1-0.9-0.4-1-0.9c-0.1-0.3-0.3-0.4-0.6-0.4c-0.3,0.1-0.4,0.3-0.4,0.6c0.3,0.9,1.1,1.5,2,1.6v0.2c0,0.3,0.2,0.5,0.5,0.5
		s0.5-0.2,0.5-0.5v-0.2c0.9-0.1,1.7-0.8,2-1.7c0-0.1,0-0.3,0-0.4C17,15,16.1,14.1,15,14z M13,13c0-0.1,0-0.1,0-0.2
		c0.1-0.5,0.5-1,1-1.1v2.2C13.5,13.8,13.2,13.5,13,13L13,13z M16,16.4c-0.1,0.5-0.5,0.8-1,0.9v-2.2c0.5,0.1,1,0.6,1,1.1
		C16,16.2,16,16.3,16,16.4z"/>
</g>
</svg>
