<?xml version="1.0" encoding="utf-8"?>
<!-- Generator: Adobe Illustrator 25.0.1, SVG Export Plug-In . SVG Version: 6.00 Build 0)  -->
<svg version="1.1" id="Layer_1" xmlns="http://www.w3.org/2000/svg" xmlns:xlink="http://www.w3.org/1999/xlink" x="0px" y="0px"
	 viewBox="0 0 512 512" style="enable-background:new 0 0 512 512;" xml:space="preserve">
<style type="text/css">
	.st0{fill:#FF1D00;}
</style>
<g>
	<g>
		<path class="st0" d="M501.8,47.9H10.2C4.6,47.9,0,52.5,0,58.1v322.6c0,5.6,4.6,10.2,10.2,10.2H190v52.8h-36.2
			c-5.6,0-10.2,4.6-10.2,10.2s4.6,10.2,10.2,10.2h204.3v0c5.6,0,10.2-4.6,10.2-10.2s-4.6-10.2-10.2-10.2H322v-52.8h54l39.9,39.9
			c6.3,6.3,14.7,9.8,23.6,9.8s17.3-3.5,23.6-9.8c10.8-10.8,12.6-27.2,5.5-39.9h33.3c5.6,0,10.2-4.6,10.2-10.2V58.1
			C512,52.5,507.4,47.9,501.8,47.9z M301.6,443.7h-91.1v-52.8h91.1V443.7z M448.6,416.4c-2.4,2.4-5.7,3.8-9.1,3.8s-6.7-1.3-9.1-3.8
			L359,345.1l18.3-18.3l71.3,71.3C453.7,403.2,453.7,411.4,448.6,416.4z M491.6,370.5h-41.7l-65.3-65.3c-4-4-10.4-4-14.4,0l-9.1,9.1
			l-17.4-17.4c17.7-20.9,28.3-47.9,28.3-77.4c0-66.3-53.9-120.2-120.2-120.2c-66.3,0-120.2,53.9-120.2,120.2s53.9,120.2,120.2,120.2
			c29.5,0,56.5-10.7,77.4-28.3l17.4,17.4l-9.1,9.1c-1.9,1.9-3,4.5-3,7.2s1.1,5.3,3,7.2l18.2,18.2H20.4V68.3h471.2L491.6,370.5
			L491.6,370.5z M251.7,319.3c-55,0-99.8-44.8-99.8-99.8s44.8-99.8,99.8-99.8s99.8,44.8,99.8,99.8S306.7,319.3,251.7,319.3z"/>
	</g>
</g>
<g>
	<g>
		<path class="st0" d="M234.8,142.7c-1.9-5.3-7.8-8-13.1-6.1c-21.9,7.9-40.1,24.6-49.9,45.7c-2.4,5.1-0.2,11.2,4.9,13.6
			c1.4,0.7,2.9,1,4.3,1c3.8,0,7.5-2.2,9.2-5.9c7.6-16.2,21.6-29,38.4-35.1C233.9,153.9,236.7,148,234.8,142.7z"/>
	</g>
</g>
<g>
	<g>
		<path class="st0" d="M174.8,203.1c-5.6-0.4-10.5,3.8-11,9.4c-0.2,2.3-0.3,4.7-0.3,7c0,5.6,4.6,10.2,10.2,10.2s10.2-4.6,10.2-10.2
			c0-1.8,0.1-3.6,0.2-5.4C184.6,208.5,180.4,203.6,174.8,203.1z"/>
	</g>
</g>
</svg>
