<svg id="Layer_1" data-name="Layer 1" xmlns="http://www.w3.org/2000/svg" viewBox="0 0 20.57 24">
  <defs>
    <style>
      .cls-1 {
        fill: #f4f4f4;
        fill-rule: evenodd;
      }
    </style>
  </defs>
  <path class="cls-1" d="M4.8,5.49a1,1,0,0,0-1,1v14.4a1,1,0,0,0,1,1H19.2a1,1,0,0,0,1-1V6.51a1,1,0,0,0-1-1Zm-3.09,1A3.09,3.09,0,0,1,4.8,3.43H19.2a3.09,3.09,0,0,1,3.09,3.08v14.4A3.09,3.09,0,0,1,19.2,24H4.8a3.09,3.09,0,0,1-3.09-3.09Z" transform="translate(-1.71)"/>
  <path class="cls-1" d="M16.29,0c.47,0,.85.51.85,1.14V5.71c0,.64-.38,1.15-.85,1.15s-.86-.51-.86-1.15V1.14C15.43.51,15.81,0,16.29,0Z" transform="translate(-1.71)"/>
  <path class="cls-1" d="M7.71,0c.48,0,.86.51.86,1.14V5.71c0,.64-.38,1.15-.86,1.15s-.85-.51-.85-1.15V1.14C6.86.51,7.24,0,7.71,0Z" transform="translate(-1.71)"/>
  <path class="cls-1" d="M1.71,9.43a1,1,0,0,1,1-.86H21.26a1,1,0,0,1,1,.86,1,1,0,0,1-1,.86H2.74A1,1,0,0,1,1.71,9.43Z" transform="translate(-1.71)"/>
</svg>
