<svg width="14" height="14" viewBox="0 0 14 14" fill="none" xmlns="http://www.w3.org/2000/svg">
<path fill-rule="evenodd" clip-rule="evenodd" d="M7.00008 0C7.32225 0 7.58341 0.261167 7.58341 0.583333V13.4167C7.58341 13.7388 7.32225 14 7.00008 14C6.67792 14 6.41675 13.7388 6.41675 13.4167V0.583333C6.41675 0.261167 6.67792 0 7.00008 0Z" fill="#F4F4F4"/>
<path fill-rule="evenodd" clip-rule="evenodd" d="M3.68559 3.10185C4.17788 2.60957 4.84556 2.33301 5.54175 2.33301H9.91675C10.2389 2.33301 10.5001 2.59417 10.5001 2.91634C10.5001 3.23851 10.2389 3.49967 9.91675 3.49967H5.54175C5.15497 3.49967 4.78404 3.65332 4.51055 3.92681C4.23706 4.2003 4.08341 4.57123 4.08341 4.95801C4.08341 5.34478 4.23706 5.71571 4.51055 5.9892C4.78404 6.2627 5.15497 6.41634 5.54175 6.41634H8.45842C9.15461 6.41634 9.82229 6.6929 10.3146 7.18519C10.8069 7.67747 11.0834 8.34515 11.0834 9.04134C11.0834 9.73753 10.8069 10.4052 10.3146 10.8975C9.82229 11.3898 9.15461 11.6663 8.45842 11.6663H3.50008C3.17792 11.6663 2.91675 11.4052 2.91675 11.083C2.91675 10.7608 3.17792 10.4997 3.50008 10.4997H8.45842C8.84519 10.4997 9.21612 10.346 9.48961 10.0725C9.7631 9.79905 9.91675 9.42811 9.91675 9.04134C9.91675 8.65457 9.7631 8.28363 9.48961 8.01014C9.21612 7.73665 8.84519 7.58301 8.45842 7.58301H5.54175C4.84556 7.58301 4.17788 7.30645 3.68559 6.81416C3.19331 6.32188 2.91675 5.6542 2.91675 4.95801C2.91675 4.26181 3.19331 3.59414 3.68559 3.10185Z" fill="#F4F4F4"/>
</svg>
