<svg width="80" height="83" viewBox="0 0 80 83" fill="none" xmlns="http://www.w3.org/2000/svg">
<path d="M21.6775 71.6406C16.7053 68.4597 12.6468 64.0391 9.90142 58.8138C7.15604 53.5885 5.8183 47.7384 6.01982 41.8392C6.22134 35.94 7.95518 30.1949 11.0507 25.1691C14.1463 20.1433 18.497 16.01 23.6747 13.1758C28.8523 10.3416 34.6787 8.90418 40.5805 9.00496C46.4823 9.10573 52.2561 10.7412 57.334 13.7505C62.412 16.7599 66.619 21.0393 69.5411 26.1679C72.4633 31.2964 74 37.0974 74 43" stroke="#0082FF" stroke-opacity="0.44" stroke-width="4"/>
<path d="M55.495 12.7366C60.7491 15.4266 65.2123 19.4381 68.4456 24.3765C71.6788 29.3148 73.5708 35.0098 73.9353 40.9012C74.2997 46.7925 73.1242 52.6773 70.5243 57.9765C67.9243 63.2757 63.9896 67.8068 59.1072 71.1239C54.2248 74.441 48.5629 76.4299 42.6786 76.8949C36.7943 77.3599 30.8904 76.285 25.5475 73.776C20.2047 71.2669 15.6071 67.4101 12.2072 62.585C8.80716 57.76 6.72188 52.1329 6.15648 46.2574" stroke="#0082FF" stroke-width="4"/>
<circle cx="40" cy="43" r="6" fill="#0082FF"/>
<path d="M40.2273 14.25L32.0001 -1.4385e-06L48.4546 0L40.2273 14.25Z" fill="#0082FF"/>
</svg>
