<svg width="14" height="14" viewBox="0 0 14 14" fill="none" xmlns="http://www.w3.org/2000/svg">
<path fill-rule="evenodd" clip-rule="evenodd" d="M0 0.66142C0 0.296128 0.296058 0 0.661264 0H7.2739C7.44928 0 7.61747 0.0696851 7.74148 0.193726L13.4231 5.87672C13.7926 6.2485 14 6.75141 14 7.27562C14 7.79984 13.7926 8.30275 13.4231 8.67453L12.9542 8.20823L13.4217 8.67592L8.68074 13.418C8.68065 13.4181 8.68083 13.418 8.68074 13.418C8.49655 13.6024 8.2776 13.7489 8.03688 13.8487C7.79605 13.9486 7.53791 14 7.27721 14C7.01651 14 6.75836 13.9486 6.51753 13.8487C6.27676 13.7489 6.05803 13.6026 5.87381 13.4182C5.87377 13.4181 5.87386 13.4182 5.87381 13.4182L0.193952 7.74359C0.0697744 7.61953 0 7.45118 0 7.27562V0.66142ZM12.4852 7.74192C12.4854 7.74172 12.4856 7.74152 12.4858 7.74131C12.6086 7.61745 12.6775 7.45007 12.6775 7.27562C12.6775 7.10117 12.6086 6.9338 12.4858 6.80993C12.4856 6.80973 12.4854 6.80953 12.4852 6.80932L7 1.32284H1.32253V7.00143L6.80883 12.4826L6.80936 12.4832C6.87078 12.5447 6.94371 12.5935 7.02398 12.6267C7.10426 12.66 7.1903 12.6772 7.27721 12.6772C7.36411 12.6772 7.45016 12.66 7.53043 12.6267C7.61071 12.5935 7.68364 12.5447 7.74505 12.4832L12.4852 7.74192Z" fill="#F4F4F4"/>
<path fill-rule="evenodd" clip-rule="evenodd" d="M3 4C3 3.44772 3.44772 3 4 3H4.01C4.56228 3 5.01 3.44772 5.01 4C5.01 4.55228 4.56228 5 4.01 5H4C3.44772 5 3 4.55228 3 4Z" fill="#F4F4F4"/>
</svg>
