<svg width="12" height="12" viewBox="0 0 12 12" fill="none" xmlns="http://www.w3.org/2000/svg">
<g clip-path="url(#clip0)">
<path fill-rule="evenodd" clip-rule="evenodd" d="M0.732233 7.73223C1.20107 7.26339 1.83696 7 2.5 7H6.5C7.16304 7 7.79893 7.26339 8.26777 7.73223C8.73661 8.20107 9 8.83696 9 9.5V10.5C9 10.7761 8.77614 11 8.5 11C8.22386 11 8 10.7761 8 10.5V9.5C8 9.10218 7.84196 8.72064 7.56066 8.43934C7.27936 8.15804 6.89782 8 6.5 8H2.5C2.10218 8 1.72064 8.15804 1.43934 8.43934C1.15804 8.72064 1 9.10218 1 9.5V10.5C1 10.7761 0.776142 11 0.5 11C0.223858 11 0 10.7761 0 10.5V9.5C0 8.83696 0.263392 8.20107 0.732233 7.73223Z" fill="white"/>
<path fill-rule="evenodd" clip-rule="evenodd" d="M4.5 2C3.67157 2 3 2.67157 3 3.5C3 4.32843 3.67157 5 4.5 5C5.32843 5 6 4.32843 6 3.5C6 2.67157 5.32843 2 4.5 2ZM2 3.5C2 2.11929 3.11929 1 4.5 1C5.88071 1 7 2.11929 7 3.5C7 4.88071 5.88071 6 4.5 6C3.11929 6 2 4.88071 2 3.5Z" fill="white"/>
<path fill-rule="evenodd" clip-rule="evenodd" d="M9.516 7.43957C9.58503 7.1722 9.85775 7.01142 10.1251 7.08045C10.6615 7.21893 11.1366 7.53161 11.476 7.9694C11.8153 8.40718 11.9997 8.94528 12.0001 9.4992L12.0001 10.4996C12.0001 10.7757 11.7763 10.9996 11.5001 10.9996C11.224 10.9996 11.0001 10.7757 11.0001 10.4996L11.0001 9.49995C11.0001 9.4999 11.0001 9.5 11.0001 9.49995C10.9998 9.16765 10.8892 8.8447 10.6856 8.58207C10.482 8.31939 10.1969 8.13179 9.87512 8.0487C9.60775 7.97966 9.44696 7.70695 9.516 7.43957Z" fill="white"/>
<path fill-rule="evenodd" clip-rule="evenodd" d="M7.51575 1.44055C7.58424 1.17304 7.85663 1.0117 8.12414 1.0802C8.6619 1.21789 9.13854 1.53064 9.47891 1.96914C9.81929 2.40765 10.004 2.94697 10.004 3.50207C10.004 4.05718 9.81929 4.5965 9.47891 5.035C9.13854 5.47351 8.6619 5.78626 8.12414 5.92395C7.85663 5.99244 7.58424 5.83111 7.51575 5.56359C7.44725 5.29608 7.60859 5.02369 7.8761 4.9552C8.19876 4.87259 8.48474 4.68494 8.68897 4.42183C8.89319 4.15873 9.00404 3.83514 9.00404 3.50207C9.00404 3.16901 8.89319 2.84542 8.68897 2.58232C8.48474 2.31921 8.19876 2.13156 7.8761 2.04895C7.60859 1.98045 7.44725 1.70807 7.51575 1.44055Z" fill="white"/>
</g>
<defs>
<clipPath id="clip0">
<rect width="12" height="12" fill="white"/>
</clipPath>
</defs>
</svg>
