<svg width="12" height="16" viewBox="0 0 12 16" fill="none" xmlns="http://www.w3.org/2000/svg">
<path d="M5.05546 0C6.76714 4.78284 2.98514 4.95245 0.899859 7.99371C-0.552347 10.1117 -0.796857 14.7725 4.436 15.9937C2.23526 14.7895 1.76251 11.2956 4.14257 9.10775C3.52807 11.2296 4.65721 12.5896 6.0768 12.0903C7.46812 11.6009 8.37208 12.6405 8.34841 13.8228C8.33211 14.6369 8.08758 15.2644 7.22359 15.7223C7.22359 15.7223 12 14.7725 12 9.92185C12 6.97074 9.47323 6.56157 10.7448 4.08746C9.22871 4.22315 8.70524 5.25398 8.85377 6.95378C8.95158 8.07316 7.82676 8.84203 6.99537 8.32791C6.32007 7.91031 6.3433 7.08734 6.93016 6.47888C8.17966 5.18343 8.67445 2.22182 5.05546 0Z" fill="white"/>
</svg>
