<svg width="15" height="14" viewBox="0 0 15 14" fill="none" xmlns="http://www.w3.org/2000/svg">
<g clip-path="url(#clip0)">
<path d="M7.49999 4.73397e-06C7.00258 -0.000559442 6.51633 0.150126 6.10356 0.43275C5.6908 0.715374 5.37031 1.11706 5.18318 1.58633C4.99606 2.05561 4.95081 2.57108 5.05324 3.06671C5.15567 3.56233 5.40112 4.01552 5.75812 4.3682L3.78937 7.87536L4.87499 8.50348L6.84749 4.9925C7.19087 5.08796 7.55032 5.10753 7.90173 5.04988C8.25314 4.99224 8.58838 4.85873 8.88493 4.6583C9.18149 4.45787 9.43252 4.19516 9.62115 3.88781C9.80979 3.58047 9.93167 3.23559 9.97863 2.87633C10.0256 2.51707 9.99652 2.15173 9.89339 1.80485C9.79026 1.45797 9.61544 1.13756 9.38069 0.865137C9.14593 0.592711 8.85665 0.374571 8.53228 0.225356C8.2079 0.0761414 7.85593 -0.000694804 7.49999 4.73397e-06ZM7.49999 3.81836C7.25256 3.81836 7.01069 3.74363 6.80499 3.60362C6.59928 3.46361 6.43899 3.26461 6.34439 3.03181C6.24979 2.79902 6.22513 2.54287 6.27354 2.2958C6.32195 2.04873 6.44124 1.82183 6.61633 1.64382C6.79142 1.4658 7.01444 1.34467 7.25716 1.29575C7.49988 1.24683 7.7514 1.27232 7.97989 1.369C8.20838 1.46567 8.40357 1.62919 8.54076 1.83885C8.67796 2.04852 8.75099 2.29491 8.75062 2.54685C8.75012 2.88425 8.61814 3.20766 8.38366 3.44606C8.14917 3.68446 7.83136 3.81836 7.49999 3.81836Z" fill="white"/>
<path d="M4.91062 10.8203C4.75843 10.2201 4.39647 9.69702 3.89261 9.34911C3.38875 9.0012 2.77757 8.85235 2.17363 8.93046C1.56969 9.00857 1.01447 9.30827 0.612024 9.7734C0.20958 10.2385 -0.0124512 10.8371 -0.0124512 11.457C-0.0124512 12.0769 0.20958 12.6755 0.612024 13.1406C1.01447 13.6057 1.56969 13.9054 2.17363 13.9836C2.77757 14.0617 3.38875 13.9128 3.89261 13.5649C4.39647 13.217 4.75843 12.6939 4.91062 12.0937H8.8125V10.8203H4.91062ZM2.49937 12.7295C2.25202 12.7295 2.01023 12.6548 1.80456 12.5149C1.5989 12.3749 1.4386 12.1761 1.34395 11.9434C1.24929 11.7107 1.22452 11.4546 1.27278 11.2076C1.32103 10.9606 1.44015 10.7337 1.61505 10.5556C1.78995 10.3775 2.01279 10.2562 2.25539 10.2071C2.49799 10.158 2.74944 10.1832 2.97797 10.2796C3.20649 10.3759 3.40181 10.5392 3.53923 10.7486C3.67665 10.958 3.75 11.2042 3.75 11.4561C3.75 11.7938 3.61824 12.1177 3.3837 12.3565C3.14916 12.5953 2.83106 12.7295 2.49937 12.7295Z" fill="white"/>
<path d="M12.5006 8.90975C12.2791 8.91328 12.0591 8.94666 11.8462 9.00902L9.8756 5.49805L8.78998 6.12617L10.7587 9.63333C10.3443 10.0454 10.0835 10.5913 10.0208 11.1776C9.95809 11.7639 10.0975 12.3541 10.4151 12.8473C10.7328 13.3405 11.2089 13.7059 11.762 13.8811C12.315 14.0562 12.9107 14.0302 13.447 13.8074C13.9833 13.5846 14.4269 13.1789 14.7018 12.6599C14.9768 12.1408 15.0659 11.5405 14.9541 10.9618C14.8423 10.3831 14.5364 9.86203 14.0888 9.48769C13.6413 9.11334 13.0798 8.90904 12.5006 8.90975ZM12.5006 12.7281C12.2532 12.7285 12.0112 12.6541 11.8053 12.5144C11.5994 12.3747 11.4388 12.176 11.3438 11.9433C11.2489 11.7107 11.2239 11.4546 11.2719 11.2074C11.3199 10.9603 11.4389 10.7332 11.6137 10.5549C11.7886 10.3766 12.0114 10.2552 12.2541 10.2059C12.4967 10.1566 12.7483 10.1817 12.9769 10.278C13.2055 10.3743 13.401 10.5376 13.5385 10.747C13.676 10.9565 13.7494 11.2027 13.7494 11.4547C13.7494 11.7921 13.6178 12.1157 13.3837 12.3545C13.1496 12.5932 12.832 12.7276 12.5006 12.7281Z" fill="white"/>
</g>
<defs>
<clipPath id="clip0">
<rect width="15" height="14" fill="white"/>
</clipPath>
</defs>
</svg>
