<svg width="16" height="16" viewBox="0 0 16 16" fill="none" xmlns="http://www.w3.org/2000/svg">
<path d="M15.5867 5.03522C15.0384 4.48691 14.1462 4.48694 13.5977 5.03534C13.4291 5.20419 12.352 6.28209 12.1875 6.44678V2.73206C12.1875 2.35644 12.0412 2.00331 11.7756 1.73772L10.4498 0.411875C10.1842 0.14625 9.83106 0 9.45544 0H1.40625C0.630844 0 0 0.630844 0 1.40625V14.5938C0 15.3692 0.630844 16 1.40625 16H10.7812C11.5567 16 12.1875 15.3692 12.1875 14.5938V10.426L15.5866 7.02397C16.1362 6.47441 16.1363 5.58484 15.5867 5.03522ZM9.37503 0.9375C9.46359 0.9375 9.63425 0.922156 9.78691 1.07478L11.1127 2.40062C11.2615 2.54941 11.25 2.71244 11.25 2.8125H9.37503V0.9375ZM11.25 14.5938C11.25 14.8522 11.0398 15.0625 10.7812 15.0625H1.40625C1.14778 15.0625 0.9375 14.8522 0.9375 14.5938V1.40625C0.9375 1.14778 1.14778 0.9375 1.40625 0.9375H8.4375V3.28125C8.4375 3.54012 8.64738 3.75 8.90625 3.75H11.25V7.38509C11.25 7.38509 9.86706 8.76922 9.867 8.76925L9.20441 9.43188C9.15297 9.48331 9.11416 9.54606 9.09116 9.61509L8.42822 11.6038C8.37206 11.7723 8.41591 11.958 8.54147 12.0835C8.66719 12.2093 8.85297 12.2529 9.02116 12.1968L11.0099 11.5339C11.0789 11.5109 11.1417 11.4721 11.1931 11.4206L11.25 11.3638V14.5938ZM10.1987 9.76334L10.8617 10.4263L10.6084 10.6795L9.61409 11.0109L9.94553 10.0165L10.1987 9.76334ZM11.5244 9.76319L10.8615 9.10028C11.2145 8.747 12.7823 7.17788 13.1148 6.84509L13.7777 7.508L11.5244 9.76319ZM14.9236 6.36119L14.4404 6.84481L13.7775 6.18191L14.2608 5.69812C14.4437 5.51534 14.741 5.51537 14.9238 5.69812C15.1065 5.88094 15.1075 6.17728 14.9236 6.36119Z" fill="white"/>
<path d="M8.90619 4.6875H2.34369C2.08481 4.6875 1.87494 4.89737 1.87494 5.15625C1.87494 5.41513 2.08481 5.625 2.34369 5.625H8.90619C9.16506 5.625 9.37494 5.41513 9.37494 5.15625C9.37494 4.89737 9.16506 4.6875 8.90619 4.6875Z" fill="white"/>
<path d="M7.03119 6.5625H2.34369C2.08481 6.5625 1.87494 6.77237 1.87494 7.03125C1.87494 7.29013 2.08481 7.5 2.34369 7.5H7.03119C7.29006 7.5 7.49994 7.29013 7.49994 7.03125C7.49994 6.77237 7.29006 6.5625 7.03119 6.5625Z" fill="white"/>
<path d="M7.03119 8.4375H2.34369C2.08481 8.4375 1.87494 8.64737 1.87494 8.90625C1.87494 9.16513 2.08481 9.375 2.34369 9.375H7.03119C7.29006 9.375 7.49994 9.16513 7.49994 8.90625C7.49994 8.64737 7.29006 8.4375 7.03119 8.4375Z" fill="white"/>
<path d="M7.03119 10.3125H2.34369C2.08481 10.3125 1.87494 10.5224 1.87494 10.7812C1.87494 11.0401 2.08481 11.25 2.34369 11.25H7.03119C7.29006 11.25 7.49994 11.0401 7.49994 10.7812C7.49994 10.5224 7.29006 10.3125 7.03119 10.3125Z" fill="white"/>
<path d="M8.90619 13.1875H6.09369C5.83481 13.1875 5.62494 13.3974 5.62494 13.6562C5.62494 13.9151 5.83481 14.125 6.09369 14.125H8.90619C9.16506 14.125 9.37494 13.9151 9.37494 13.6562C9.37494 13.3974 9.16506 13.1875 8.90619 13.1875Z" fill="white"/>
</svg>
