<svg width="58" height="72" viewBox="0 0 58 72" fill="none" xmlns="http://www.w3.org/2000/svg">
<path d="M3 49C3 45.6863 5.68629 43 9 43H48C51.3137 43 54 45.6863 54 49V67.5C54 68.3284 53.3284 69 52.5 69H4.5C3.67157 69 3 68.3284 3 67.5V49Z" stroke="#F4F4F4" stroke-width="4.8"/>
<path d="M29.0013 31.9725C37.0442 31.9725 43.4846 25.3372 43.4846 17.2511C43.4846 9.16506 37.0442 2.52969 29.0013 2.52969C20.9584 2.52969 14.518 9.16506 14.518 17.2511C14.518 25.3372 20.9584 31.9725 29.0013 31.9725Z" stroke="url(#paint0_radial)" stroke-width="4.8"/>
<defs>
<radialGradient id="paint0_radial" cx="0" cy="0" r="1" gradientUnits="userSpaceOnUse" gradientTransform="translate(29 17.001) rotate(90) scale(25 24.5169)">
<stop offset="0.46875" stop-color="#0082FF"/>
<stop offset="0.604167" stop-color="#0082FF" stop-opacity="0.63"/>
</radialGradient>
</defs>
</svg>
