<svg width="22" height="27" viewBox="0 0 22 27" fill="none" xmlns="http://www.w3.org/2000/svg">
<mask id="path-1-inside-1" fill="white">
<path d="M0 21.8574C0 18.5437 2.68629 15.8574 6 15.8574H16C19.3137 15.8574 22 18.5437 22 21.8574V25.5003C22 26.3287 21.3284 27.0003 20.5 27.0003H1.5C0.671573 27.0003 0 26.3287 0 25.5003V21.8574Z"/>
</mask>
<path d="M0 21.8574C0 18.5437 2.68629 15.8574 6 15.8574H16C19.3137 15.8574 22 18.5437 22 21.8574V25.5003C22 26.3287 21.3284 27.0003 20.5 27.0003H1.5C0.671573 27.0003 0 26.3287 0 25.5003V21.8574Z" stroke="#F4F4F4" stroke-width="4.4" mask="url(#path-1-inside-1)"/>
<path d="M10.9993 13.2431C14.1515 13.2431 16.6827 10.6585 16.6827 7.50028C16.6827 4.34201 14.1515 1.75742 10.9993 1.75742C7.84719 1.75742 5.31602 4.34201 5.31602 7.50028C5.31602 10.6585 7.84719 13.2431 10.9993 13.2431Z" stroke="#F4F4F4" stroke-width="2.2"/>
</svg>
