<?xml version="1.0" encoding="utf-8"?>
<!-- Generator: Adobe Illustrator 25.0.1, SVG Export Plug-In . SVG Version: 6.00 Build 0)  -->
<svg version="1.1" id="Layer_1" xmlns="http://www.w3.org/2000/svg" xmlns:xlink="http://www.w3.org/1999/xlink" x="0px" y="0px"
	 viewBox="0 0 503 492" style="enable-background:new 0 0 503 492;" xml:space="preserve">
<style type="text/css">
	.st0{fill:#0082FF;}
</style>
<g>
	<g>
		<path class="st0" d="M231.8,109.3l-218.9,219c-5.1,5.1-7.9,11.8-7.9,19s2.8,14,7.9,19L29,382.5c10.5,10.5,27.6,10.5,38.1,0
			L251,198.6l184,184.1c5.1,5.1,11.8,7.9,19,7.9s14-2.8,19-7.9l16.1-16.1c5.1-5.1,7.9-11.8,7.9-19s-2.8-14-7.9-19L270,109.3
			c-5.1-5.1-11.9-7.9-19.1-7.8C243.7,101.5,236.9,104.3,231.8,109.3z"/>
	</g>
</g>
</svg>
