<svg width="24" height="24" viewBox="0 0 24 24" fill="none" xmlns="http://www.w3.org/2000/svg">
<g clip-path="url(#clip0)">
<path d="M23.8876 2.06532L21.9256 0.10336C21.793 -0.0292281 21.5781 -0.0292281 21.4455 0.10336L0.103951 21.4449C-0.0286372 21.5775 -0.0286109 21.7924 0.103977 21.925L2.06594 23.887C2.19852 24.0196 2.41348 24.0196 2.54607 23.887L23.8876 2.54548C24.0202 2.41289 24.0202 2.19791 23.8876 2.06532Z" fill="#FF1D00"/>
<path d="M2.06532 0.111439L0.10336 2.0734C-0.0292281 2.20599 -0.0292281 2.42097 0.10336 2.55356L21.4449 23.8951C21.5775 24.0277 21.7924 24.0276 21.925 23.895L23.887 21.9331C24.0196 21.8005 24.0196 21.5855 23.887 21.453L2.54548 0.111439C2.41289 -0.0211484 2.19791 -0.0211483 2.06532 0.111439Z" fill="#FF1D00"/>
</g>
<defs>
<clipPath id="clip0">
<rect width="24" height="24" fill="white"/>
</clipPath>
</defs>
</svg>
