<svg width="58" height="56" viewBox="0 0 58 56" fill="none" xmlns="http://www.w3.org/2000/svg">
<path d="M55.5343 0.451172H15.021C13.66 0.452758 12.557 1.55571 12.5554 2.91678V14.0913L10.7028 11.3124C9.85482 10.0333 8.14941 9.6495 6.83525 10.4422L3.02376 12.7338C1.77554 13.4662 0.859891 14.6539 0.469201 16.0474C-0.921216 21.1101 0.110465 29.8326 12.9133 42.6373C23.0947 52.8082 30.6858 55.5474 35.9177 55.5474C37.129 55.553 38.3356 55.3956 39.505 55.0794C40.8979 54.6887 42.0856 53.7743 42.8195 52.5278L45.1081 48.7124C45.8977 47.3992 45.5142 45.6973 44.2379 44.8495L35.1113 38.7658C33.8594 37.9377 32.1813 38.21 31.2553 39.3913L28.5982 42.8074C28.3205 43.1729 27.8167 43.2794 27.4147 43.0578L26.909 42.7793C25.2449 41.8723 23.1739 40.743 18.9911 36.5602C18.5385 36.1076 18.1285 35.6842 17.7437 35.279H55.5343C56.8919 35.28 57.9945 34.1826 57.9999 32.825V2.91678C57.9983 1.55571 56.8953 0.452758 55.5343 0.451172ZM25.9837 44.4773L26.4749 44.7471C27.7096 45.4375 29.2639 45.1172 30.1249 43.9949L32.782 40.5788C33.0841 40.194 33.6307 40.1053 34.039 40.3747L43.1656 46.4585C43.5802 46.7349 43.7048 47.2881 43.4488 47.7155L41.1602 51.5309C40.6823 52.3505 39.9058 52.9533 38.9934 53.2133C34.4228 54.4703 26.4237 53.4068 14.2832 41.2654C2.14266 29.1239 1.08311 21.1256 2.3371 16.5589C2.59692 15.6466 3.19938 14.8702 4.0185 14.392L7.83395 12.1024C8.26147 11.847 8.81431 11.9715 9.09089 12.3857L15.1775 21.5123C15.4474 21.9204 15.3587 22.4675 14.9734 22.7692L11.5564 25.4272C10.4343 26.288 10.1138 27.842 10.8041 29.0763L11.0748 29.5675C12.0417 31.3408 13.2436 33.5473 17.6247 37.9274C22.0059 42.3076 24.2114 43.5103 25.9837 44.4773ZM56.0661 32.8251C56.063 33.1159 55.8251 33.3493 55.5344 33.3472H15.9995C14.7437 31.9111 13.6608 30.3327 12.7729 28.6442L12.4944 28.1366C12.2723 27.7354 12.3786 27.2321 12.7439 26.955L16.1609 24.297C17.3427 23.3712 17.615 21.6929 16.7865 20.4409L14.4892 16.9929V2.91678C14.4876 2.77526 14.5431 2.63906 14.6432 2.53901C14.7432 2.43895 14.8794 2.38343 15.0209 2.38502H55.5343C55.6758 2.38343 55.812 2.43895 55.912 2.53901C56.0121 2.63906 56.0676 2.77526 56.066 2.91678V32.8251H56.0661Z" fill="#F4F4F4"/>
<path d="M52.2037 4.92709L36.0438 17.1826C35.5866 17.5148 34.9675 17.5148 34.5103 17.1826L18.3564 4.92709C17.9308 4.60428 17.324 4.68767 17.0013 5.11326C16.6785 5.53885 16.7619 6.14562 17.1875 6.46833L33.3434 18.7228C34.4928 19.572 36.0616 19.572 37.211 18.7228L53.3718 6.46833C53.5764 6.31332 53.7109 6.0833 53.7457 5.82903C53.7804 5.57477 53.7128 5.3171 53.5574 5.11281C53.2347 4.68801 52.629 4.60496 52.2037 4.92709Z" fill="#0082FF"/>
<path d="M27.0279 18.8051L17.123 29.412C16.7588 29.8026 16.7802 30.4146 17.1708 30.7788C17.5614 31.143 18.1734 31.1215 18.5375 30.731L28.4426 20.1192C28.7698 19.7245 28.7319 19.1428 28.3562 18.7937C27.9805 18.4446 27.3976 18.4496 27.0279 18.8051Z" fill="#0082FF" fill-opacity="0.74"/>
<path d="M43.5923 18.8037C43.2281 18.4131 42.6162 18.3916 42.2255 18.7559C41.835 19.12 41.8134 19.7319 42.1777 20.1226L52.0798 30.7296C52.444 31.1202 53.0559 31.1417 53.4466 30.7774C53.8371 30.4132 53.8587 29.8014 53.4944 29.4107L43.5923 18.8037Z" fill="#0082FF" fill-opacity="0.42"/>
</svg>
