<svg width="21" height="21" viewBox="0 0 21 21" fill="none" xmlns="http://www.w3.org/2000/svg">
<path fill-rule="evenodd" clip-rule="evenodd" d="M9.62488 17.4999C9.62488 17.0166 10.0166 16.6249 10.4999 16.6249H18.3749C18.8581 16.6249 19.2499 17.0166 19.2499 17.4999C19.2499 17.9831 18.8581 18.3749 18.3749 18.3749H10.4999C10.0166 18.3749 9.62488 17.9831 9.62488 17.4999Z" fill="white"/>
<path fill-rule="evenodd" clip-rule="evenodd" d="M15.7499 3.39355C15.4896 3.39355 15.2401 3.49693 15.0561 3.68093L4.28996 14.4471L3.82744 16.2971L5.67752 15.8346L16.4436 5.06849C16.5348 4.97738 16.607 4.86922 16.6563 4.75018C16.7056 4.63114 16.731 4.50356 16.731 4.37471C16.731 4.24586 16.7056 4.11828 16.6563 3.99924C16.607 3.8802 16.5348 3.77204 16.4436 3.68093C16.3525 3.58982 16.2444 3.51755 16.1253 3.46824C16.0063 3.41893 15.8787 3.39355 15.7499 3.39355ZM13.8186 2.44349C14.3308 1.9313 15.0255 1.64355 15.7499 1.64355C16.1085 1.64355 16.4637 1.7142 16.795 1.85145C17.1264 1.9887 17.4275 2.18988 17.6811 2.44349C17.9347 2.6971 18.1359 2.99818 18.2731 3.32954C18.4104 3.6609 18.481 4.01605 18.481 4.37471C18.481 4.73337 18.4104 5.08852 18.2731 5.41988C18.1359 5.75124 17.9347 6.05232 17.6811 6.30593L6.74358 17.2434C6.63145 17.3556 6.49094 17.4351 6.33708 17.4736L2.83708 18.3486C2.53891 18.4231 2.22348 18.3358 2.00615 18.1184C1.78881 17.9011 1.70145 17.5857 1.77599 17.2875L2.65099 13.7875C2.68945 13.6336 2.76901 13.4931 2.88115 13.381L13.8186 2.44349Z" fill="white"/>
</svg>
