<?xml version="1.0" encoding="utf-8"?>
<!-- Generator: Adobe Illustrator 25.0.1, SVG Export Plug-In . SVG Version: 6.00 Build 0)  -->
<svg version="1.1" id="Layer_1" xmlns="http://www.w3.org/2000/svg" xmlns:xlink="http://www.w3.org/1999/xlink" x="0px" y="0px"
	 viewBox="0 0 24 24" style="enable-background:new 0 0 24 24;" xml:space="preserve">
<style type="text/css">
	.st0{fill:#F4F4F4;fill-opacity:0;}
	.st1{fill:#F4F4F4;}
</style>
<g id="Layer_2_1_">
	<g id="expand">
		<g id="expand-2">
			<rect x="0.1" y="0" class="st0" width="24" height="24"/>
			<path class="st1" d="M20.1,5c0-0.6-0.4-1-1-1h-5l0,0c-0.6,0-1,0.4-1,1s0.4,1,1,1h2.6l-3.3,3.3c-0.4,0.4-0.4,1,0,1.4c0,0,0,0,0,0
				c0.4,0.4,1,0.4,1.4,0c0,0,0,0,0,0l3.3-3.3V10c0,0.6,0.4,1,1,1l0,0c0.6,0,1-0.4,1-1V5z"/>
			<path class="st1" d="M10.8,13.3c-0.4-0.4-1-0.4-1.4,0c0,0,0,0,0,0l-3.3,3.3V14c0-0.6-0.4-1-1-1l0,0c-0.6,0-1,0.4-1,1v5
				c0,0.6,0.4,1,1,1h5c0.6,0,1-0.4,1-1s-0.4-1-1-1H7.5l3.3-3.3C11.2,14.3,11.2,13.7,10.8,13.3C10.8,13.3,10.8,13.3,10.8,13.3z"/>
		</g>
	</g>
</g>
</svg>
