<?xml version="1.0" encoding="utf-8"?>
<!-- Generator: Adobe Illustrator 25.0.1, SVG Export Plug-In . SVG Version: 6.00 Build 0)  -->
<svg version="1.1" id="Layer_1" xmlns="http://www.w3.org/2000/svg" xmlns:xlink="http://www.w3.org/1999/xlink" x="0px" y="0px"
	 viewBox="0 0 100 100" style="enable-background:new 0 0 100 100;" xml:space="preserve">
<style type="text/css">
	.st0{fill:#FF1D00;}
</style>
<g>
	<path class="st0" d="M85.1,35.4H52.6v-27c0-1.4-1.1-2.5-2.5-2.5S47.6,7,47.6,8.4v27H15c-7.7,0-13.9,6.2-13.9,13.9v30.9
		c0,7.7,6.2,13.9,13.9,13.9s13.9-6.2,13.9-13.9c0-0.7,0.5-1.2,1.2-1.2h39.8c0.7,0,1.2,0.5,1.2,1.2c0,7.7,6.2,13.9,13.9,13.9
		s13.9-6.2,13.9-13.9V49.3C99,41.6,92.7,35.4,85.1,35.4z M93.4,80.2c0,4.6-3.7,8.3-8.3,8.3s-8.3-3.7-8.3-8.3c0-3.8-3.1-6.9-6.8-6.9
		H30.2c-3.8,0-6.8,3.1-6.8,6.9c0,4.6-3.7,8.3-8.3,8.3c-4.5,0-8.3-3.8-8.3-8.3V49.3c0-4.6,3.7-8.3,8.3-8.3h70.1
		c4.6,0,8.3,3.7,8.3,8.3v30.9H93.4z"/>
	<path class="st0" d="M32.5,55h-6.3v-6.3c0-1.7-1.4-3-3-3c-1.7,0-3,1.4-3,3V55h-6.3c-1.7,0-3,1.4-3,3l0,0c0,1.7,1.4,3,3,3h6.3v6.3
		c0,1.7,1.4,3,3,3c1.7,0,3-1.4,3-3V61h6.3c1.7,0,3-1.4,3-3l0,0C35.5,56.3,34.1,55,32.5,55z"/>
	<circle class="st0" cx="76.8" cy="50.6" r="3.8"/>
	<circle class="st0" cx="76.8" cy="64.8" r="3.8"/>
	<circle class="st0" cx="84" cy="57.7" r="3.8"/>
	<circle class="st0" cx="69.7" cy="57.7" r="3.8"/>
	<path class="st0" d="M56.5,55.5H43.7c-1.4,0-2.5,1.1-2.5,2.5s1.1,2.5,2.5,2.5h12.8c1.4,0,2.5-1.1,2.5-2.5S57.8,55.5,56.5,55.5z"/>
</g>
</svg>
