<svg width="36" height="36" viewBox="0 0 36 36" fill="none" xmlns="http://www.w3.org/2000/svg">
<path d="M28.4267 22.1759C27.7202 20.7029 25.1927 18.6584 22.7508 16.6829C21.3887 15.5818 20.1017 14.5409 19.2813 13.7204C19.0757 13.5134 18.7683 13.4474 18.4968 13.5449C17.9913 13.7279 17.6793 13.8689 17.4333 13.9784C17.0583 14.1463 16.9323 14.2034 16.4268 14.2543C16.2033 14.2768 16.0023 14.3969 15.8778 14.5828C14.8173 16.1683 13.7193 16.0333 12.9858 15.7874C12.7518 15.7094 12.7098 15.6088 12.6873 15.5129C12.5298 14.8544 13.3203 13.3214 14.3448 12.2968C16.7823 9.85785 18.0393 9.24732 20.6943 10.4338C23.7062 11.7808 26.7243 12.8354 26.7543 12.8458C27.1488 12.9823 27.5733 12.7753 27.7098 12.3838C27.8448 11.9923 27.6392 11.5648 27.2477 11.4283C27.2177 11.4179 24.2597 10.3843 21.3077 9.06282C17.8683 7.5253 15.9812 8.5378 13.2857 11.2348C12.2597 12.2608 10.8662 14.3368 11.2262 15.8594C11.3807 16.5074 11.8367 16.9874 12.5147 17.2108C14.2142 17.7719 15.7651 17.2348 16.9202 15.7019C17.3972 15.6284 17.6567 15.5204 18.0466 15.3449C18.1876 15.2819 18.3526 15.2084 18.5717 15.1199C19.4297 15.9254 20.5877 16.8629 21.8072 17.8484C24.0122 19.6318 26.5127 21.6539 27.0752 22.8239C27.3527 23.4014 27.0542 23.7779 26.8517 23.9504C26.5547 24.2054 26.1482 24.2864 25.9277 24.1318C25.6847 23.9653 25.3682 23.9549 25.1177 24.1048C24.8657 24.2548 24.7247 24.5383 24.7562 24.8293C24.8072 25.3063 24.3707 25.5794 24.1817 25.6739C23.7017 25.9169 23.2007 25.8749 23.0132 25.7009C22.8031 25.5059 22.5016 25.4489 22.2347 25.5479C21.9677 25.6483 21.7816 25.8944 21.7546 26.1793C21.7096 26.6713 21.3451 27.1438 20.8696 27.3283C20.6401 27.4153 20.3071 27.4678 20.0086 27.1948C19.8227 27.0268 19.5646 26.9623 19.3232 27.0208C19.0787 27.0808 18.8822 27.2578 18.7967 27.4933C18.7682 27.5683 18.7036 27.7483 18.0016 27.7483C17.5021 27.7483 16.6036 27.4108 16.1642 27.1198C15.6377 26.7733 12.3361 24.3103 9.48469 21.9223C9.08419 21.5848 8.39119 20.8618 7.77919 20.2228C7.23617 19.6558 6.73969 19.1413 6.48467 18.9253C6.16517 18.6553 5.69267 18.6958 5.42717 19.0138C5.16019 19.3303 5.19914 19.8043 5.51569 20.0713C5.74821 20.2678 6.19821 20.7433 6.69469 21.2608C7.36371 21.9598 8.05517 22.6828 8.52021 23.0728C11.3132 25.4113 14.6702 27.9358 15.3392 28.3753C15.8912 28.7383 17.0807 29.2483 18.0017 29.2483C18.7412 29.2483 19.3097 29.0788 19.7042 28.7473C20.2322 28.9528 20.8322 28.9543 21.4097 28.7293C22.0922 28.4653 22.6532 27.9328 22.9712 27.2878C23.5622 27.4138 24.2387 27.3253 24.8537 27.0163C25.4552 26.7134 25.8901 26.2499 26.1061 25.7083C26.7032 25.7398 27.3181 25.5283 27.8266 25.0918C28.6877 24.3554 28.9247 23.2094 28.4267 22.1759Z" fill="#F4F4F4"/>
<path d="M15 9.75H8.25002C7.83602 9.75 7.5 10.086 7.5 10.5C7.5 10.914 7.83602 11.25 8.25002 11.25H15C15.414 11.25 15.75 10.914 15.75 10.5C15.75 10.086 15.414 9.75 15 9.75Z" fill="#F4F4F4"/>
<path d="M30.6202 20.5809C30.3877 20.2374 29.9227 20.1429 29.5792 20.3769L27.3862 21.8499C27.0427 22.0809 26.9512 22.5474 27.1822 22.8909C27.3277 23.1054 27.5647 23.2224 27.8063 23.2224C27.9488 23.2224 28.0943 23.1819 28.2233 23.0949L30.4163 21.6219C30.7597 21.3909 30.8512 20.9244 30.6202 20.5809Z" fill="#F4F4F4"/>
<path d="M25.9654 24.1595C25.4284 23.7365 23.0269 21.278 21.5419 19.73C21.2554 19.43 20.7799 19.4195 20.4814 19.7075C20.1813 19.994 20.1723 20.4695 20.4589 20.768C20.8444 21.17 24.2448 24.7145 25.0354 25.3385C25.1718 25.4465 25.3369 25.4991 25.4989 25.4991C25.7194 25.4991 25.9399 25.4001 26.0898 25.2125C26.3464 24.8885 26.2909 24.416 25.9654 24.1595Z" fill="#F4F4F4"/>
<path d="M22.9691 25.6645C22.0706 24.946 19.8131 22.5475 19.3031 21.9925C19.0211 21.6865 18.5486 21.6685 18.2426 21.9475C17.938 22.228 17.9171 22.7035 18.1976 23.008C18.2246 23.0365 20.9186 25.9451 22.0316 26.8361C22.1696 26.9455 22.3361 26.9995 22.4996 26.9995C22.7186 26.9995 22.9375 26.902 23.086 26.7191C23.3442 26.395 23.2916 25.9225 22.9691 25.6645Z" fill="#F4F4F4"/>
<path d="M19.9838 27.1749C18.9143 26.2735 16.7258 23.9439 16.2983 23.4864C16.0148 23.1834 15.5393 23.1669 15.2378 23.4504C14.9348 23.7339 14.9198 24.2079 15.2018 24.5109C15.8168 25.1694 17.9108 27.3895 19.0163 28.3224C19.1573 28.4409 19.3283 28.4994 19.4993 28.4994C19.7123 28.4994 19.9253 28.4079 20.0738 28.2324C20.3408 27.9144 20.3003 27.4419 19.9838 27.1749Z" fill="#F4F4F4"/>
<path d="M8.766 8.45504C7.48048 7.23702 2.34 6.8425 0.795023 6.75102C0.582047 6.74054 0.385523 6.811 0.235547 6.95352C0.0855 7.0945 0 7.2925 0 7.4995V20.9995C0 21.4135 0.336023 21.7495 0.750023 21.7495H5.25002C5.57402 21.7495 5.86202 21.541 5.9625 21.232C6.07198 20.896 8.65652 12.964 8.99698 9.06402C9.01652 8.836 8.9325 8.611 8.766 8.45504ZM4.7025 20.2495H1.49998V8.30352C3.9105 8.494 6.5115 8.908 7.4565 9.367C7.05902 12.652 5.2605 18.4885 4.7025 20.2495Z" fill="#F4F4F4"/>
<path d="M35.2467 8.25C29.3577 8.25 26.0907 9.7575 25.9542 9.8205C25.7592 9.91198 25.6137 10.0815 25.5537 10.287C25.4937 10.4925 25.5237 10.713 25.6362 10.896C26.5632 12.3885 29.4657 20.6775 30.0237 22.6995C30.1137 23.025 30.4092 23.25 30.7467 23.25H35.2467C35.6607 23.25 35.9967 22.9139 35.9967 22.4999V8.99995C35.9967 8.58448 35.6607 8.25 35.2467 8.25ZM34.4968 21.75H31.3077C30.5967 19.434 28.4967 13.395 27.3252 10.899C28.4697 10.5105 30.9283 9.843 34.4968 9.75905V21.75Z" fill="#F4F4F4"/>
</svg>
