<svg width="52" height="65" viewBox="0 0 52 65" fill="none" xmlns="http://www.w3.org/2000/svg">
<path d="M13.5 15C13.5 8.09644 19.0964 2.5 26 2.5C32.9036 2.5 38.5 8.09644 38.5 15V30.5H13.5V15Z" stroke="url(#paint0_linear)" stroke-width="5"/>
<rect x="2" y="22.0625" width="47.8559" height="40.9369" rx="3" fill="#1B1B1B" stroke="#F4F4F4" stroke-width="4"/>
<mask id="path-3-inside-1" fill="white">
<path fill-rule="evenodd" clip-rule="evenodd" d="M30 43.4853V51H22V43.4853L21.7574 43.2426C20.9182 42.4035 20.3468 41.3344 20.1153 40.1705C19.8838 39.0067 20.0026 37.8003 20.4567 36.7039C20.9109 35.6075 21.6799 34.6705 22.6666 34.0112C23.6533 33.3519 24.8133 33 26 33C27.1867 33 28.3467 33.3519 29.3334 34.0112C30.3201 34.6705 31.0892 35.6075 31.5433 36.7039C31.9974 37.8003 32.1162 39.0067 31.8847 40.1705C31.6532 41.3344 31.0818 42.4035 30.2426 43.2426L30 43.4853ZM29.7087 40.4986C29.7696 40.3478 29.8214 40.1931 29.8637 40.0353C29.8862 39.9512 29.9061 39.8661 29.9231 39.7804C30.0775 39.0044 29.9983 38.2002 29.6955 37.4693C29.3928 36.7384 28.8801 36.1136 28.2223 35.6741C27.5645 35.2346 26.7911 35 26 35C25.2089 35 24.4355 35.2346 23.7777 35.6741C23.1199 36.1136 22.6072 36.7384 22.3045 37.4693C22.0017 38.2002 21.9225 39.0044 22.0769 39.7804C22.0939 39.8661 22.1138 39.9512 22.1363 40.0353C22.1786 40.1931 22.2304 40.3478 22.2913 40.4986C22.8851 39.0334 24.3219 38 26 38C27.6782 38 29.1149 39.0334 29.7087 40.4986Z"/>
</mask>
<path fill-rule="evenodd" clip-rule="evenodd" d="M30 43.4853V51H22V43.4853L21.7574 43.2426C20.9182 42.4035 20.3468 41.3344 20.1153 40.1705C19.8838 39.0067 20.0026 37.8003 20.4567 36.7039C20.9109 35.6075 21.6799 34.6705 22.6666 34.0112C23.6533 33.3519 24.8133 33 26 33C27.1867 33 28.3467 33.3519 29.3334 34.0112C30.3201 34.6705 31.0892 35.6075 31.5433 36.7039C31.9974 37.8003 32.1162 39.0067 31.8847 40.1705C31.6532 41.3344 31.0818 42.4035 30.2426 43.2426L30 43.4853ZM29.7087 40.4986C29.7696 40.3478 29.8214 40.1931 29.8637 40.0353C29.8862 39.9512 29.9061 39.8661 29.9231 39.7804C30.0775 39.0044 29.9983 38.2002 29.6955 37.4693C29.3928 36.7384 28.8801 36.1136 28.2223 35.6741C27.5645 35.2346 26.7911 35 26 35C25.2089 35 24.4355 35.2346 23.7777 35.6741C23.1199 36.1136 22.6072 36.7384 22.3045 37.4693C22.0017 38.2002 21.9225 39.0044 22.0769 39.7804C22.0939 39.8661 22.1138 39.9512 22.1363 40.0353C22.1786 40.1931 22.2304 40.3478 22.2913 40.4986C22.8851 39.0334 24.3219 38 26 38C27.6782 38 29.1149 39.0334 29.7087 40.4986Z" fill="#1B1B1B"/>
<path d="M30 43.4853L28.4444 41.9296L27.8 42.574V43.4853H30ZM30 51V53.2H32.2V51H30ZM22 51H19.8V53.2H22V51ZM22 43.4853H24.2V42.574L23.5556 41.9296L22 43.4853ZM21.7574 43.2426L20.2017 44.7983H20.2017L21.7574 43.2426ZM20.1153 40.1705L17.9576 40.5997V40.5997L20.1153 40.1705ZM20.4567 36.7039L18.4242 35.862L18.4242 35.862L20.4567 36.7039ZM22.6666 34.0112L23.8888 35.8404H23.8888L22.6666 34.0112ZM29.3334 34.0112L30.5557 32.182V32.182L29.3334 34.0112ZM31.5433 36.7039L29.5107 37.5458V37.5458L31.5433 36.7039ZM31.8847 40.1705L29.727 39.7413V39.7413L31.8847 40.1705ZM30.2426 43.2426L31.7983 44.7983L31.7983 44.7983L30.2426 43.2426ZM29.7087 40.4986L27.6697 41.3248L29.7116 46.3635L31.7484 41.3228L29.7087 40.4986ZM29.8637 40.0353L31.9887 40.6047L31.9888 40.6047L29.8637 40.0353ZM29.9231 39.7804L32.0809 40.2096L32.0809 40.2096L29.9231 39.7804ZM29.6955 37.4693L31.7281 36.6274L31.7281 36.6274L29.6955 37.4693ZM28.2223 35.6741L27 37.5034L27 37.5034L28.2223 35.6741ZM23.7777 35.6741L22.5555 33.8449L22.5555 33.8449L23.7777 35.6741ZM22.3045 37.4693L24.337 38.3112L24.337 38.3112L22.3045 37.4693ZM22.0769 39.7804L19.9191 40.2096L19.9191 40.2096L22.0769 39.7804ZM22.1363 40.0353L20.0113 40.6047L20.0113 40.6047L22.1363 40.0353ZM22.2913 40.4986L20.2516 41.3228L22.2884 46.3635L24.3303 41.3248L22.2913 40.4986ZM27.8 43.4853V51H32.2V43.4853H27.8ZM30 48.8H22V53.2H30V48.8ZM24.2 51V43.4853H19.8V51H24.2ZM23.5556 41.9296L23.313 41.687L20.2017 44.7983L20.4444 45.0409L23.5556 41.9296ZM23.313 41.687C22.7816 41.1556 22.4196 40.4785 22.273 39.7413L17.9576 40.5997C18.274 42.1904 19.0549 43.6515 20.2017 44.7983L23.313 41.687ZM22.273 39.7413C22.1264 39.0042 22.2016 38.2402 22.4893 37.5458L18.4242 35.862C17.8036 37.3603 17.6412 39.0091 17.9576 40.5997L22.273 39.7413ZM22.4893 37.5458C22.7769 36.8514 23.2639 36.258 23.8888 35.8404L21.4443 32.1819C20.0958 33.083 19.0448 34.3636 18.4242 35.862L22.4893 37.5458ZM23.8888 35.8404C24.5137 35.4229 25.2484 35.2 26 35.2V30.8C24.3782 30.8 22.7928 31.2809 21.4443 32.1819L23.8888 35.8404ZM26 35.2C26.7516 35.2 27.4863 35.4229 28.1112 35.8404L30.5557 32.182C29.2072 31.2809 27.6218 30.8 26 30.8V35.2ZM28.1112 35.8404C28.7361 36.258 29.2231 36.8514 29.5107 37.5458L33.5758 35.862C32.9552 34.3636 31.9042 33.083 30.5557 32.182L28.1112 35.8404ZM29.5107 37.5458C29.7984 38.2402 29.8736 39.0042 29.727 39.7413L34.0424 40.5997C34.3588 39.0091 34.1965 37.3604 33.5758 35.862L29.5107 37.5458ZM29.727 39.7413C29.5804 40.4785 29.2184 41.1556 28.687 41.687L31.7983 44.7983C32.9451 43.6515 33.726 42.1904 34.0424 40.5997L29.727 39.7413ZM28.687 41.687L28.4444 41.9296L31.5556 45.0409L31.7983 44.7983L28.687 41.687ZM31.7484 41.3228C31.8429 41.0892 31.9232 40.8493 31.9887 40.6047L27.7387 39.4659C27.7196 39.5369 27.6963 39.6065 27.6689 39.6744L31.7484 41.3228ZM31.9888 40.6047C32.0237 40.4743 32.0544 40.3425 32.0809 40.2096L27.7654 39.3512C27.7577 39.3898 27.7488 39.428 27.7387 39.4659L31.9888 40.6047ZM32.0809 40.2096C32.3201 39.0069 32.1973 37.7603 31.7281 36.6274L27.663 38.3112C27.7992 38.6401 27.8349 39.002 27.7654 39.3512L32.0809 40.2096ZM31.7281 36.6274C31.2588 35.4945 30.4641 34.5262 29.4445 33.8449L27 37.5034C27.296 37.7011 27.5267 37.9823 27.663 38.3112L31.7281 36.6274ZM29.4445 33.8449C28.425 33.1636 27.2263 32.8 26 32.8V37.2C26.356 37.2 26.704 37.3056 27 37.5034L29.4445 33.8449ZM26 32.8C24.7738 32.8 23.5751 33.1636 22.5555 33.8449L25 37.5034C25.296 37.3056 25.644 37.2 26 37.2V32.8ZM22.5555 33.8449C21.5359 34.5262 20.7412 35.4945 20.272 36.6274L24.337 38.3112C24.4733 37.9823 24.704 37.7011 25 37.5034L22.5555 33.8449ZM20.272 36.6274C19.8027 37.7603 19.6799 39.0069 19.9191 40.2096L24.2346 39.3512C24.1651 39.002 24.2008 38.6401 24.337 38.3112L20.272 36.6274ZM19.9191 40.2096C19.9456 40.3425 19.9763 40.4743 20.0113 40.6047L24.2613 39.4659C24.2512 39.428 24.2423 39.3898 24.2346 39.3512L19.9191 40.2096ZM20.0113 40.6047C20.0768 40.8493 20.1571 41.0892 20.2516 41.3228L24.3311 39.6744C24.3037 39.6065 24.2804 39.5369 24.2613 39.4659L20.0113 40.6047ZM24.3303 41.3248C24.5991 40.6615 25.2483 40.2 26 40.2V35.8C23.3954 35.8 21.171 37.4054 20.2524 39.6723L24.3303 41.3248ZM26 40.2C26.7517 40.2 27.4009 40.6615 27.6697 41.3248L31.7476 39.6723C30.829 37.4054 28.6046 35.8 26 35.8V40.2Z" fill="url(#paint1_linear)" mask="url(#path-3-inside-1)"/>
<circle cx="26" cy="39" r="4" fill="#1B1B1B"/>
<defs>
<linearGradient id="paint0_linear" x1="26" y1="0" x2="26.3951" y2="29.0866" gradientUnits="userSpaceOnUse">
<stop stop-color="#0082FF"/>
<stop offset="1" stop-color="#0082FF" stop-opacity="0"/>
</linearGradient>
<linearGradient id="paint1_linear" x1="26" y1="33" x2="26" y2="64" gradientUnits="userSpaceOnUse">
<stop stop-color="#0082FF"/>
<stop offset="1" stop-color="#0082FF" stop-opacity="0"/>
</linearGradient>
</defs>
</svg>
