<svg width="38" height="28" viewBox="0 0 38 28" fill="none" xmlns="http://www.w3.org/2000/svg">
<path d="M26.0348 1.15015C25.0132 0.0263414 23.274 -0.0564792 22.1501 0.965165C21.0263 1.98681 20.9435 3.72604 21.9652 4.84985L26.0348 1.15015ZM34 14L36.0348 15.8498L37.7165 14L36.0348 12.1501L34 14ZM21.9652 23.1502C20.9435 24.274 21.0263 26.0132 22.1501 27.0348C23.274 28.0565 25.0132 27.9737 26.0348 26.8498L21.9652 23.1502ZM21.9652 4.84985L31.9652 15.8498L36.0348 12.1501L26.0348 1.15015L21.9652 4.84985ZM31.9652 12.1501L21.9652 23.1502L26.0348 26.8498L36.0348 15.8498L31.9652 12.1501Z" fill="#121212"/>
<path d="M3 14H33.75" stroke="#121212" stroke-width="5.5" stroke-linecap="round"/>
</svg>
