<svg width="29" height="32" viewBox="0 0 29 32" fill="none" xmlns="http://www.w3.org/2000/svg">
<path d="M26.4512 5.03711H2.54883C1.1434 5.03711 0 6.2988 0 7.84961V24.1485C0 25.6993 1.1434 26.961 2.54883 26.961H26.4512C27.8566 26.961 29 25.6993 29 24.1485V7.84961C29 6.2988 27.8566 5.03711 26.4512 5.03711ZM26.1185 6.91211L25.7783 7.22467L15.5113 16.6585C14.9253 17.1969 14.0746 17.1969 13.4887 16.6585L3.22166 7.22467L2.88148 6.91211H26.1185ZM1.69922 8.26573L10.0646 15.9522L1.69922 22.0955V8.26573ZM26.4512 25.086H2.54883C2.1383 25.086 1.79494 24.763 1.71627 24.3353L11.427 17.204L12.4015 18.0994C13.0094 18.658 13.7548 18.9373 14.5001 18.9373C15.2453 18.9373 15.9906 18.658 16.5986 18.0994L17.5731 17.204L27.2838 24.3352C27.2051 24.763 26.8617 25.086 26.4512 25.086ZM27.3008 22.0955L18.9354 15.9522L27.3008 8.26573V22.0955Z" fill="#F4F4F4"/>
</svg>
