<svg width="27" height="27" viewBox="0 0 27 27" fill="none" xmlns="http://www.w3.org/2000/svg">
<g clip-path="url(#clip0)">
<path d="M26.5117 8.07585C26.216 7.95335 25.8758 8.02111 25.6496 8.24729L24.627 9.27002L23.6042 8.24729C23.2954 7.93837 22.7945 7.93837 22.4856 8.24729L21.4629 9.27002L20.6719 8.479V3.95508C20.6719 1.77446 18.898 0.000421875 16.7172 0C16.7171 0 16.7169 0 16.7168 0H4.06055C1.87381 0 0 1.76776 0 3.95508V26.209C0 26.5243 0.18726 26.8095 0.476561 26.9348C0.765809 27.0601 1.10194 27.0017 1.33202 26.7861L2.46074 25.7278L3.50119 26.7683C3.81006 27.0772 4.31093 27.0772 4.61985 26.7683L5.64258 25.7456L6.66531 26.7683C6.97417 27.0773 7.47504 27.0773 7.78396 26.7683L8.80664 25.7456L9.82937 26.7683C10.1382 27.0773 10.6391 27.0773 10.948 26.7683L11.9707 25.7456L12.9934 26.7683C13.1448 26.9197 13.3471 27.0001 13.5529 27.0001C13.9875 27 14.3438 26.6475 14.3438 26.209V17.5078H23.045C25.2258 17.5078 27.0001 15.7336 27.0001 13.5527V8.80664C27 8.4867 26.8073 8.19824 26.5117 8.07585ZM12.7617 24.2993L12.53 24.0676C12.2211 23.7587 11.7203 23.7587 11.4114 24.0676L10.3887 25.0903L9.36594 24.0676C9.05708 23.7587 8.55621 23.7587 8.24729 24.0676L7.22461 25.0903L6.20188 24.0676C5.89301 23.7587 5.39214 23.7587 5.08322 24.0676L4.06055 25.0903L3.03782 24.0676C2.73602 23.7657 2.24902 23.7578 1.93746 24.0499L1.58203 24.3831V3.95508C1.58203 2.66873 2.71703 1.58203 4.06055 1.58203H13.5548C13.0572 2.24353 12.7617 3.0654 12.7617 3.95508V24.2993ZM14.3438 3.95508C14.3438 2.64658 15.4081 1.58203 16.7168 1.58203C18.0253 1.58203 19.0898 2.64658 19.0898 3.95508V13.5527C19.0898 14.4424 19.3853 15.2643 19.883 15.9258H14.3438C14.3438 14.6598 14.3438 4.31541 14.3438 3.95508ZM25.418 13.5527C25.418 14.8612 24.3534 15.9258 23.0449 15.9258C21.7364 15.9258 20.6719 14.8612 20.6719 13.5527V10.7163L20.9036 10.948C21.2125 11.2569 21.7133 11.2569 22.0222 10.948L23.0449 9.92529L24.0677 10.948C24.3765 11.2569 24.8774 11.2569 25.1863 10.948L25.418 10.7163V13.5527H25.418Z" fill="#F4F4F4"/>
<path d="M10.3887 15.9258H4.06055C3.6237 15.9258 3.26953 16.2799 3.26953 16.7168C3.26953 17.1536 3.6237 17.5078 4.06055 17.5078H10.3887C10.8255 17.5078 11.1797 17.1536 11.1797 16.7168C11.1797 16.2799 10.8255 15.9258 10.3887 15.9258Z" fill="#F4F4F4"/>
<path d="M10.3887 19.0898H4.06055C3.6237 19.0898 3.26953 19.444 3.26953 19.8809C3.26953 20.3177 3.6237 20.6719 4.06055 20.6719H10.3887C10.8255 20.6719 11.1797 20.3177 11.1797 19.8809C11.1797 19.444 10.8255 19.0898 10.3887 19.0898Z" fill="#F4F4F4"/>
<path d="M8.00391 11.21H6.42188C5.98571 11.21 5.63086 10.8551 5.63086 10.4189C5.63086 9.98209 5.2767 9.62793 4.83984 9.62793C4.40299 9.62793 4.04883 9.98209 4.04883 10.4189C4.04883 11.7274 5.11338 12.792 6.42188 12.792V13.583C6.42188 14.0199 6.77604 14.374 7.21289 14.374C7.64974 14.374 8.00391 14.0199 8.00391 13.583V12.792C9.31241 12.792 10.377 11.7274 10.377 10.4189C10.377 9.11045 9.31241 8.0459 8.00391 8.0459H6.42188C5.98571 8.0459 5.63086 7.69105 5.63086 7.25488C5.63086 6.81872 5.98571 6.46387 6.42188 6.46387H8.00391C8.44007 6.46387 8.79492 6.81872 8.79492 7.25488C8.79492 7.69173 9.14909 8.0459 9.58594 8.0459C10.0228 8.0459 10.377 7.69173 10.377 7.25488C10.377 5.94638 9.31241 4.88184 8.00391 4.88184V4.09082C8.00391 3.65397 7.64974 3.2998 7.21289 3.2998C6.77604 3.2998 6.42188 3.65397 6.42188 4.09082V4.88184C5.11338 4.88184 4.04883 5.94638 4.04883 7.25488C4.04883 8.56338 5.11338 9.62793 6.42188 9.62793H8.00391C8.44007 9.62793 8.79492 9.98278 8.79492 10.4189C8.79492 10.8551 8.44007 11.21 8.00391 11.21Z" fill="#F4F4F4"/>
</g>
<defs>
<clipPath id="clip0">
<rect width="27" height="27" fill="white"/>
</clipPath>
</defs>
</svg>
