<svg width="67" height="67" viewBox="0 0 67 67" fill="none" xmlns="http://www.w3.org/2000/svg">
<g clip-path="url(#clip0)">
<path d="M65.7882 20.0401C65.0545 19.7361 64.2103 19.9042 63.6491 20.4655L61.1113 23.0034L58.5734 20.4655C57.807 19.6989 56.5641 19.6989 55.7975 20.4655L53.2598 23.0034L51.2969 21.0405V9.81445C51.2969 4.40329 46.895 0.00104688 41.4833 0C41.4831 0 41.4827 0 41.4824 0H10.0762C4.64983 0 0 4.38667 0 9.81445V65.0371C0 65.8195 0.464682 66.5272 1.18258 66.8383C1.90034 67.1492 2.73444 67.0042 3.30538 66.4691L6.10629 63.8432L8.68815 66.425C9.45459 67.1916 10.6975 67.1916 11.4641 66.425L14.002 63.8872L16.5398 66.4251C17.3063 67.1917 18.5492 67.1917 19.3158 66.4251L21.8535 63.8872L24.3914 66.4251C25.1578 67.1917 26.4007 67.1917 27.1673 66.4251L29.7051 63.8872L32.243 66.4251C32.6185 66.8007 33.1205 67.0001 33.6314 67.0001C34.7097 67 35.5939 66.1252 35.5939 65.0372V43.4453H57.1857C62.5974 43.4453 67.0001 39.0425 67.0001 33.6309V21.8535C67 21.0596 66.5217 20.3438 65.7882 20.0401ZM31.668 60.2983L31.093 59.7233C30.3265 58.9567 29.0836 58.9567 28.3171 59.7233L25.7793 62.2612L23.2414 59.7233C22.475 58.9567 21.2321 58.9567 20.4655 59.7233L17.9277 62.2612L15.3898 59.7233C14.6234 58.9567 13.3805 58.9567 12.6139 59.7233L10.0762 62.2612L7.53829 59.7233C6.78938 58.9743 5.58089 58.9546 4.80777 59.6793L3.92578 60.5062V9.81445C3.92578 6.6224 6.74227 3.92578 10.0762 3.92578H33.6361C32.4012 5.56728 31.668 7.60672 31.668 9.81445V60.2983ZM35.5938 9.81445C35.5938 6.56744 38.235 3.92578 41.4824 3.92578C44.7294 3.92578 47.3711 6.56744 47.3711 9.81445V33.6309C47.3711 35.8386 48.1043 37.878 49.3393 39.5195H35.5938C35.5938 36.378 35.5938 10.7086 35.5938 9.81445ZM63.0742 33.6309C63.0742 36.8779 60.4326 39.5195 57.1855 39.5195C53.9385 39.5195 51.2969 36.8779 51.2969 33.6309V26.5923L51.8719 27.1673C52.6383 27.9339 53.8812 27.9339 54.6478 27.1673L57.1855 24.6294L59.7234 27.1673C60.4899 27.9339 61.7328 27.9339 62.4994 27.1673L63.0744 26.5923V33.6309H63.0742Z" fill="#F4F4F4"/>
<path d="M25.7793 39.5195H10.0762C8.99213 39.5195 8.11328 40.3984 8.11328 41.4824C8.11328 42.5665 8.99213 43.4453 10.0762 43.4453H25.7793C26.8633 43.4453 27.7422 42.5665 27.7422 41.4824C27.7422 40.3984 26.8633 39.5195 25.7793 39.5195Z" fill="#0082FF" fill-opacity="0.5"/>
<path d="M25.7793 47.3711H10.0762C8.99213 47.3711 8.11328 48.2499 8.11328 49.334C8.11328 50.418 8.99213 51.2969 10.0762 51.2969H25.7793C26.8633 51.2969 27.7422 50.418 27.7422 49.334C27.7422 48.2499 26.8633 47.3711 25.7793 47.3711Z" fill="#0082FF" fill-opacity="0.3"/>
<path d="M19.8652 27.8184H15.9395C14.8571 27.8184 13.9766 26.9378 13.9766 25.8555C13.9766 24.7714 13.0977 23.8926 12.0137 23.8926C10.9296 23.8926 10.0508 24.7714 10.0508 25.8555C10.0508 29.1025 12.6924 31.7441 15.9395 31.7441V33.707C15.9395 34.7911 16.8183 35.6699 17.9023 35.6699C18.9864 35.6699 19.8652 34.7911 19.8652 33.707V31.7441C23.1123 31.7441 25.7539 29.1025 25.7539 25.8555C25.7539 22.6085 23.1123 19.9668 19.8652 19.9668H15.9395C14.8571 19.9668 13.9766 19.0862 13.9766 18.0039C13.9766 16.9216 14.8571 16.041 15.9395 16.041H19.8652C20.9476 16.041 21.8281 16.9216 21.8281 18.0039C21.8281 19.0879 22.707 19.9668 23.791 19.9668C24.8751 19.9668 25.7539 19.0879 25.7539 18.0039C25.7539 14.7569 23.1123 12.1152 19.8652 12.1152V10.1523C19.8652 9.0683 18.9864 8.18945 17.9023 8.18945C16.8183 8.18945 15.9395 9.0683 15.9395 10.1523V12.1152C12.6924 12.1152 10.0508 14.7569 10.0508 18.0039C10.0508 21.2509 12.6924 23.8926 15.9395 23.8926H19.8652C20.9476 23.8926 21.8281 24.7731 21.8281 25.8555C21.8281 26.9378 20.9476 27.8184 19.8652 27.8184Z" fill="#0082FF"/>
</g>
<defs>
<clipPath id="clip0">
<rect width="67" height="67" fill="white"/>
</clipPath>
</defs>
</svg>
