<svg width="16" height="15" viewBox="0 0 16 15" fill="none" xmlns="http://www.w3.org/2000/svg">
<g clip-path="url(#clip0)">
<path d="M8.00001 -1.78161e-05C7.46943 -0.00062229 6.95077 0.160827 6.51048 0.463638C6.0702 0.766449 5.72835 1.19683 5.52875 1.69962C5.32914 2.20241 5.28088 2.75471 5.39014 3.28574C5.4994 3.81676 5.76121 4.30232 6.14201 4.68019L4.04201 8.43787L5.20001 9.11085L7.30401 5.34909C7.67027 5.45137 8.05369 5.47233 8.42853 5.41057C8.80336 5.34881 9.16095 5.20575 9.47728 4.99101C9.79361 4.77626 10.0614 4.49479 10.2626 4.16549C10.4638 3.83619 10.5938 3.46668 10.6439 3.08176C10.694 2.69683 10.663 2.30541 10.553 1.93375C10.443 1.56209 10.2565 1.21879 10.0061 0.926909C9.75567 0.635025 9.44711 0.401303 9.10111 0.24143C8.75511 0.0815572 8.37968 -0.000767321 8.00001 -1.78161e-05ZM8.00001 4.09108C7.73608 4.09108 7.47809 4.01101 7.25867 3.86099C7.03925 3.71098 6.86827 3.49778 6.76736 3.24835C6.66645 2.99892 6.64015 2.72449 6.69179 2.45977C6.74342 2.19505 6.87067 1.95194 7.05744 1.76121C7.2442 1.57048 7.48208 1.4407 7.74099 1.38828C7.99989 1.33587 8.26817 1.36318 8.5119 1.46676C8.75562 1.57034 8.96382 1.74554 9.11016 1.97018C9.2565 2.19482 9.3344 2.45881 9.33401 2.72874C9.33348 3.09024 9.1927 3.43675 8.94258 3.69218C8.69247 3.94761 8.35346 4.09108 8.00001 4.09108Z" fill="#24FF00"/>
<path d="M5.238 11.5924C5.07565 10.9493 4.68957 10.3889 4.15212 10.0161C3.61466 9.64338 2.96274 9.4839 2.31854 9.56759C1.67434 9.65127 1.0821 9.97238 0.652824 10.4707C0.223551 10.9691 -0.0132828 11.6104 -0.0132828 12.2746C-0.0132828 12.9388 0.223551 13.5801 0.652824 14.0785C1.0821 14.5768 1.67434 14.8979 2.31854 14.9816C2.96274 15.0653 3.61466 14.9058 4.15212 14.5331C4.68957 14.1603 5.07565 13.5999 5.238 12.9568H9.4V11.5924H5.238ZM2.666 13.638C2.40216 13.638 2.14424 13.5579 1.92487 13.408C1.70549 13.2581 1.53451 13.045 1.43354 12.7957C1.33257 12.5464 1.30616 12.2721 1.35763 12.0074C1.4091 11.7427 1.53615 11.4996 1.72272 11.3088C1.90928 11.118 2.14698 10.9881 2.40575 10.9354C2.66452 10.8828 2.93274 10.9098 3.1765 11.0131C3.42025 11.1163 3.6286 11.2912 3.77518 11.5156C3.92176 11.7399 4 12.0037 4 12.2736C4 12.6354 3.85945 12.9825 3.60928 13.2383C3.3591 13.4942 3.0198 13.638 2.666 13.638Z" fill="#24FF00"/>
<path d="M13.334 9.5462C13.0978 9.54999 12.863 9.58575 12.636 9.65257L10.534 5.89081L9.37599 6.56379L11.476 10.3215C11.034 10.7629 10.7557 11.3478 10.6888 11.976C10.622 12.6042 10.7707 13.2366 11.1095 13.765C11.4483 14.2934 11.9561 14.685 12.5461 14.8726C13.1361 15.0603 13.7714 15.0324 14.3435 14.7937C14.9155 14.555 15.3887 14.1203 15.682 13.5642C15.9752 13.008 16.0704 12.3649 15.9511 11.7449C15.8318 11.1248 15.5055 10.5665 15.0281 10.1654C14.5507 9.76434 13.9518 9.54544 13.334 9.5462ZM13.334 13.6373C13.0701 13.6377 12.812 13.558 12.5923 13.4084C12.3727 13.2587 12.2014 13.0457 12.1001 12.7965C11.9988 12.5472 11.9721 12.2728 12.0234 12.008C12.0746 11.7432 12.2015 11.4999 12.388 11.3089C12.5745 11.1179 12.8122 10.9877 13.071 10.9349C13.3298 10.8821 13.5982 10.909 13.842 11.0122C14.0859 11.1154 14.2944 11.2903 14.441 11.5147C14.5877 11.7391 14.666 12.003 14.666 12.2729C14.666 12.6344 14.5257 12.9811 14.276 13.237C14.0262 13.4928 13.6874 13.6368 13.334 13.6373Z" fill="#24FF00"/>
</g>
<defs>
<clipPath id="clip0">
<rect width="16" height="15" fill="white"/>
</clipPath>
</defs>
</svg>
