<svg width="27" height="30" viewBox="0 0 27 30" fill="none" xmlns="http://www.w3.org/2000/svg">
<path d="M13.5 0C6.0561 0 0 5.91416 0 13.1836C0 13.9892 0 20.2212 0 20.332C0 21.7859 1.21122 22.9688 2.7 22.9688H3.7548C4.12632 23.9917 5.1267 24.7266 6.3 24.7266C7.78878 24.7266 9 23.5437 9 22.0898V14.9414C9 13.4875 7.78878 12.3047 6.3 12.3047C5.1267 12.3047 4.12632 13.0396 3.7548 14.0625H2.7C2.38446 14.0625 2.0817 14.1161 1.8 14.2137V13.1836C1.8 6.88342 7.04862 1.75781 13.5 1.75781C19.9514 1.75781 25.2 6.88342 25.2 13.1836V14.2137C24.9183 14.1161 24.6155 14.0625 24.3 14.0625H23.2452C22.8737 13.0396 21.8733 12.3047 20.7 12.3047C19.2112 12.3047 18 13.4875 18 14.9414V22.0898C18 23.5437 19.2112 24.7266 20.7 24.7266C20.9725 24.7266 21.2355 24.6866 21.4837 24.6129C21.147 25.6947 20.1163 26.4844 18.9 26.4844H16.0452C15.6737 25.4614 14.6733 24.7266 13.5 24.7266C12.0112 24.7266 10.8 25.9094 10.8 27.3633C10.8 28.8172 12.0112 30 13.5 30C14.6733 30 15.6737 29.2651 16.0452 28.2422H18.9C21.3813 28.2422 23.4 26.2708 23.4 23.8477V22.9688H24.3C25.7888 22.9688 27 21.7859 27 20.332C27 20.2228 27 13.9886 27 13.1836C27 5.91416 20.9439 0 13.5 0ZM5.4 14.9414C5.4 14.4568 5.80374 14.0625 6.3 14.0625C6.79626 14.0625 7.2 14.4568 7.2 14.9414V22.0898C7.2 22.5745 6.79626 22.9688 6.3 22.9688C5.80374 22.9688 5.4 22.5745 5.4 22.0898V14.9414ZM2.7 15.8203H3.6V21.2109H2.7C2.20374 21.2109 1.8 20.8167 1.8 20.332V16.6992C1.8 16.2146 2.20374 15.8203 2.7 15.8203ZM13.5 28.2422C13.0037 28.2422 12.6 27.8479 12.6 27.3633C12.6 26.8787 13.0037 26.4844 13.5 26.4844C13.9963 26.4844 14.4 26.8787 14.4 27.3633C14.4 27.8479 13.9963 28.2422 13.5 28.2422ZM21.6 22.0898C21.6 22.5745 21.1963 22.9688 20.7 22.9688C20.2037 22.9688 19.8 22.5745 19.8 22.0898V14.9414C19.8 14.4568 20.2037 14.0625 20.7 14.0625C21.1963 14.0625 21.6 14.4568 21.6 14.9414V22.0898ZM25.2 20.332C25.2 20.8167 24.7963 21.2109 24.3 21.2109H23.4V15.8203H24.3C24.7963 15.8203 25.2 16.2146 25.2 16.6992V20.332Z" fill="#F4F4F4"/>
</svg>
