<svg width="17" height="16" viewBox="0 0 17 16" fill="none" xmlns="http://www.w3.org/2000/svg">
<path d="M15.7772 5.03522C15.2222 4.48691 14.3192 4.48694 13.764 5.03534C13.5932 5.20419 12.503 6.28209 12.3365 6.44678V2.73206C12.3365 2.35644 12.1884 2.00331 11.9195 1.73772L10.5776 0.411875C10.3087 0.14625 9.95125 0 9.57103 0H1.42344C0.638556 0 0 0.630844 0 1.40625V14.5938C0 15.3692 0.638556 16 1.42344 16H10.913C11.6979 16 12.3365 15.3692 12.3365 14.5938V10.426L15.7772 7.02397C16.3335 6.47441 16.3336 5.58484 15.7772 5.03522ZM9.48964 0.9375C9.57929 0.9375 9.75203 0.922156 9.90655 1.07478L11.2486 2.40062C11.3991 2.54941 11.3876 2.71244 11.3876 2.8125H9.48964V0.9375ZM11.3875 14.5938C11.3875 14.8522 11.1747 15.0625 10.913 15.0625H1.42344C1.16181 15.0625 0.948961 14.8522 0.948961 14.5938V1.40625C0.948961 1.14778 1.16181 0.9375 1.42344 0.9375H8.54065V3.28125C8.54065 3.54012 8.75309 3.75 9.01513 3.75H11.3875V7.38509C11.3875 7.38509 9.98769 8.76922 9.98762 8.76925L9.31693 9.43188C9.26486 9.48331 9.22558 9.54606 9.20229 9.61509L8.53125 11.6038C8.47441 11.7723 8.51879 11.958 8.64589 12.0835C8.77314 12.2093 8.9612 12.2529 9.13144 12.1968L11.1445 11.5339C11.2144 11.5109 11.2779 11.4721 11.33 11.4206L11.3875 11.3638V14.5938ZM10.3234 9.76334L10.9944 10.4263L10.7381 10.6795L9.73163 11.0109L10.0671 10.0165L10.3234 9.76334ZM11.6653 9.76319L10.9943 9.10028C11.3516 8.747 12.9386 7.17788 13.2751 6.84509L13.9461 7.508L11.6653 9.76319ZM15.106 6.36119L14.6169 6.84481L13.9459 6.18191L14.4352 5.69812C14.6203 5.51534 14.9212 5.51537 15.1062 5.69812C15.2912 5.88094 15.2922 6.17728 15.106 6.36119Z" fill="#868686"/>
<path d="M9.01522 4.6875H2.37249C2.11045 4.6875 1.89801 4.89737 1.89801 5.15625C1.89801 5.41513 2.11045 5.625 2.37249 5.625H9.01522C9.27726 5.625 9.4897 5.41513 9.4897 5.15625C9.4897 4.89737 9.27726 4.6875 9.01522 4.6875Z" fill="#868686"/>
<path d="M7.11729 6.5625H2.37249C2.11045 6.5625 1.89801 6.77237 1.89801 7.03125C1.89801 7.29013 2.11045 7.5 2.37249 7.5H7.11729C7.37933 7.5 7.59178 7.29013 7.59178 7.03125C7.59178 6.77237 7.37933 6.5625 7.11729 6.5625Z" fill="#868686"/>
<path d="M7.11729 8.4375H2.37249C2.11045 8.4375 1.89801 8.64737 1.89801 8.90625C1.89801 9.16513 2.11045 9.375 2.37249 9.375H7.11729C7.37933 9.375 7.59178 9.16513 7.59178 8.90625C7.59178 8.64737 7.37933 8.4375 7.11729 8.4375Z" fill="#868686"/>
<path d="M7.11729 10.3125H2.37249C2.11045 10.3125 1.89801 10.5224 1.89801 10.7812C1.89801 11.0401 2.11045 11.25 2.37249 11.25H7.11729C7.37933 11.25 7.59178 11.0401 7.59178 10.7812C7.59178 10.5224 7.37933 10.3125 7.11729 10.3125Z" fill="#868686"/>
<path d="M9.01522 13.1875H6.16834C5.9063 13.1875 5.69386 13.3974 5.69386 13.6562C5.69386 13.9151 5.9063 14.125 6.16834 14.125H9.01522C9.27726 14.125 9.4897 13.9151 9.4897 13.6562C9.4897 13.3974 9.27726 13.1875 9.01522 13.1875Z" fill="#868686"/>
</svg>
