<svg width="107" height="80" viewBox="0 0 107 80" fill="none" xmlns="http://www.w3.org/2000/svg">
<path d="M63.049 0.0697021C58.6693 0.630135 55.6181 1.3151 52.3178 2.5605C44.1189 5.61172 36.9994 11.5689 32.2877 19.2488C29.6516 23.5662 27.908 28.361 26.9947 33.7785C26.4966 36.7674 26.4966 42.8284 26.9947 45.8173C28.4477 54.5144 32.1839 61.8622 38.2448 67.9232C44.3057 73.9841 51.6536 77.7203 60.3506 79.1733C63.3396 79.6714 69.4005 79.6714 72.3895 79.1733C81.0865 77.7203 88.4344 73.9841 94.4953 67.9232C100.556 61.8622 104.292 54.5144 105.745 45.8173C106.244 42.8284 106.244 36.7674 105.745 33.7785C104.292 25.0815 100.556 17.7336 94.4953 11.6727C88.5589 5.75702 81.3148 2.00007 73.0122 0.547104C70.7082 0.152725 64.751 -0.137863 63.049 0.0697021ZM71.0403 4.73994C87.5418 6.83636 100.473 20.6188 101.636 37.3486C103.006 56.8184 88.2891 73.7143 68.8193 75.0634C49.3496 76.4334 32.4537 61.7169 31.1045 42.2472C30.378 31.9934 34.0935 22.0925 41.3791 14.8069C49.2251 6.96091 59.9147 3.32849 71.0403 4.73994Z" fill="#F4F4F4"/>
<path d="M63.049 0.0697021C58.6693 0.630135 55.6181 1.3151 52.3178 2.5605C44.1189 5.61172 36.9994 11.5689 32.2877 19.2488C29.6516 23.5662 27.908 28.361 26.9947 33.7785C26.4966 36.7674 26.4966 42.8284 26.9947 45.8173C28.4477 54.5144 32.1839 61.8622 38.2448 67.9232C44.3057 73.9841 51.6536 77.7203 60.3506 79.1733C63.3396 79.6714 69.4005 79.6714 72.3895 79.1733C81.0865 77.7203 88.4344 73.9841 94.4953 67.9232C100.556 61.8622 104.292 54.5144 105.745 45.8173C106.244 42.8284 106.244 36.7674 105.745 33.7785C104.292 25.0815 100.556 17.7336 94.4953 11.6727C88.5589 5.75702 81.3148 2.00007 73.0122 0.547104C70.7082 0.152725 64.751 -0.137863 63.049 0.0697021ZM71.0403 4.73994C87.5418 6.83636 100.473 20.6188 101.636 37.3486C103.006 56.8184 88.2891 73.7143 68.8193 75.0634C49.3496 76.4334 32.4537 61.7169 31.1045 42.2472C30.378 31.9934 34.0935 22.0925 41.3791 14.8069C49.2251 6.96091 59.9147 3.32849 71.0403 4.73994Z" stroke="#F4F4F4"/>
<path d="M65.4358 13.5217C64.1696 14.1029 64.1904 13.7708 64.1281 25.436L64.0658 36.105L63.4431 36.6239C61.8864 37.9315 61.5335 40.4846 62.6751 42.1451C63.5677 43.4736 64.6055 44.0547 66.1415 44.0963L67.4699 44.117L73.0119 49.6383C78.6162 55.2218 78.6992 55.3048 80.0692 55.1803C80.7334 55.118 81.6882 54.1632 81.7505 53.499C81.875 52.1291 81.792 52.0461 76.1877 46.4002L70.6457 40.8375L70.7079 39.8204C70.7702 38.6165 70.2305 37.4334 69.2965 36.6239L68.6738 36.105L68.6115 25.436C68.5493 15.5559 68.5285 14.7464 68.1756 14.2275C67.8228 13.7293 66.868 13.2104 66.2868 13.2311C66.1622 13.2519 65.7886 13.3764 65.4358 13.5217Z" fill="#0082FF"/>
<path d="M10.0986 13.5402C8.95694 14.1629 5.78117 18.7916 3.9961 22.4656C-2.62527 36.0196 -0.923221 52.1891 8.39651 64.2279C9.37207 65.4733 9.91175 65.9922 10.4514 66.1583C11.9251 66.6564 13.2328 65.7224 13.2328 64.1864C13.2328 63.4392 13.046 63.0655 11.9251 61.5711C9.99477 58.9765 8.99845 57.3782 7.83608 54.9082C3.29038 45.2356 3.29038 34.3591 7.83608 24.6865C8.99845 22.2165 9.99477 20.6182 11.9251 18.0236C13.046 16.5292 13.2328 16.1555 13.2328 15.4291C13.2121 13.727 11.593 12.7307 10.0986 13.5402Z" fill="#4D4D4D"/>
<path d="M23.3827 13.5402C22.2411 14.1629 19.0654 18.7916 17.2803 22.4656C10.6589 36.0196 12.361 52.1891 21.6807 64.2279C22.6563 65.4733 23.1959 65.9922 23.7356 66.1583C25.2093 66.6564 26.517 65.7224 26.517 64.1864C26.517 63.4392 26.3302 63.0655 25.2093 61.5711C23.279 58.9765 22.2826 57.3782 21.1203 54.9082C16.5746 45.2356 16.5746 34.3591 21.1203 24.6865C22.2826 22.2165 23.279 20.6182 25.2093 18.0236C26.3302 16.5292 26.517 16.1555 26.517 15.4291C26.4962 13.727 24.8772 12.7307 23.3827 13.5402Z" fill="#838383"/>
</svg>
