<svg width="88" height="116" viewBox="0 0 88 116" fill="none" xmlns="http://www.w3.org/2000/svg">
<path d="M7.70423 0.232651C4.07871 0.935089 0.929039 4.15274 0.226595 7.91422C0.090638 8.68464 0 22.167 0 46.0728C0 77.139 0.0679785 83.257 0.317233 84.39C1.08766 87.6303 3.4669 90.1908 6.75253 91.3238C7.93082 91.7317 8.90518 91.7543 25.7638 91.7543H43.5062V101.883V112.035L44.0501 113.168C44.6619 114.504 45.0924 114.912 46.452 115.524C47.449 115.977 47.8569 116 65.2593 116H83.047L84.18 115.456C85.5169 114.844 85.9248 114.414 86.5366 113.054C86.9898 112.057 87.0125 111.627 87.0125 99.232C87.0125 90.9839 86.9218 86.1348 86.7632 85.5683C86.3327 83.9595 84.2707 82.26 82.7751 82.2374C82.2993 82.2374 82.254 82.1241 82.254 81.0364C82.2313 73.4681 78.855 67.69 72.6237 64.6762C71.5134 64.1324 69.9499 63.5659 69.1794 63.4073L67.7519 63.1127V42.5606C67.7519 31.2762 67.6839 21.6685 67.6159 21.2607C67.48 20.6262 65.7352 18.7455 57.6004 10.588C52.1622 5.1271 47.381 0.504562 46.9958 0.323288C46.3613 0.0287094 43.8235 -0.0166092 27.486 0.00605011C17.1759 0.0287094 8.27071 0.119354 7.70423 0.232651ZM43.5062 9.93091C43.5062 12.7633 43.6195 15.6638 43.7328 16.3209C44.4806 20.241 47.8568 23.436 51.9356 24.0025C52.7286 24.1158 55.4704 24.229 58.0763 24.229H62.7668V43.6709V63.1127L61.3619 63.4073C60.5688 63.5659 59.028 64.1324 57.895 64.6762C51.6636 67.69 48.2874 73.4681 48.2647 81.0364C48.2647 82.1241 48.2194 82.2374 47.7662 82.2374C46.9052 82.26 45.4776 83.0304 44.7072 83.8915C44.0727 84.6393 43.5062 85.9309 43.5062 86.7013C43.5062 86.9279 39.8807 86.9958 26.1264 86.9958C9.72092 86.9958 8.67859 86.9505 7.81753 86.5653C6.70721 86.0668 5.71019 85.0924 5.23434 84.0501C4.91711 83.325 4.87179 79.7222 4.80381 46.5487C4.75849 20.1503 4.82647 9.50038 5.00775 8.61666C5.34764 7.00784 6.91115 5.35369 8.40667 5.0138C8.99582 4.87785 16.2695 4.7872 26.4663 4.76454L43.5062 4.74189V9.93091ZM55.9236 19.1986C52.0262 19.2893 51.5277 19.1986 50.3267 18.3376C48.6726 17.1366 48.4007 16.2982 48.31 11.9929L48.2421 8.2541L53.6803 13.6924L59.1413 19.1307L55.9236 19.1986ZM68.3184 68.0752C72.3744 69.1402 75.864 72.6297 76.929 76.6858C77.1103 77.4335 77.2689 78.9744 77.2689 80.13V82.2374H65.2593H53.2498V80.13C53.2498 78.9744 53.4084 77.4335 53.5897 76.6858C54.632 72.675 58.1216 69.1628 62.1097 68.0978C63.7412 67.6673 66.6642 67.6446 68.3184 68.0752ZM82.2086 99.0507L82.1407 111.128H65.2593H48.378L48.31 99.0507L48.2647 86.9958H65.2593H82.254L82.2086 99.0507Z" fill="#F4F4F4"/>
<path d="M64.1942 91.9597C61.2258 92.6848 59.6396 95.9704 60.9539 98.6669C61.2258 99.2334 61.747 99.9358 62.1095 100.185C62.7213 100.638 62.7666 100.797 62.7666 102.156C62.7666 104.989 63.5371 106.258 65.2592 106.258C66.9813 106.258 67.7517 104.989 67.7517 102.156C67.7517 100.797 67.797 100.638 68.4088 100.185C70.131 98.9161 70.5388 95.8571 69.2019 93.9537C68.0916 92.3902 65.9616 91.5291 64.1942 91.9597Z" fill="#0082FF"/>
</svg>
