<svg width="105" height="104" viewBox="0 0 105 104" fill="none" xmlns="http://www.w3.org/2000/svg">
<path d="M59.4898 0.243469C57.4975 0.792374 55.5255 2.56108 54.0821 5.12266C53.4925 6.13915 53.3908 6.22047 52.4963 6.36278C49.5281 6.81004 47.7594 7.88753 46.9462 9.75788C46.0314 11.9129 46.621 13.7832 49.9551 19.3739C51.0935 21.2646 52.0287 22.9317 52.0287 23.0943C52.0287 23.2366 51.7238 23.4603 51.3782 23.5822C51.0122 23.7246 50.1177 24.1312 49.3858 24.5174C41.8028 28.5021 38.0824 36.9797 37.6555 51.2513C37.5335 55.1953 37.5131 55.297 36.9439 56.3338C36.639 56.9234 35.7241 58.6514 34.9516 60.1762C33.6301 62.7987 33.4878 62.9614 32.8779 63.063C32.512 63.124 31.4752 63.2663 30.5806 63.3883C29.6861 63.5306 28.2224 63.7949 27.3278 64.0185C26.4333 64.2218 25.5998 64.4048 25.4575 64.4048C25.3355 64.4048 25.0306 63.9778 24.7663 63.4493C24.1564 62.1888 22.9569 61.0097 21.6558 60.4404C21.0052 60.1355 17.2442 59.2816 11.3282 58.1025C2.54564 56.3541 1.99673 56.2728 1.32584 56.5574C-0.0972519 57.147 -0.036262 56.0898 0.0247279 76.1148L0.0857177 94.1272L0.756606 94.7167L1.42749 95.3266L9.49848 95.2656C17.4678 95.2046 17.5898 95.2046 18.4437 94.7371C19.6025 94.1068 20.7613 93.0497 21.2492 92.1552C21.5338 91.6062 21.7371 91.4436 22.0421 91.5046C22.2657 91.5656 24.2377 92.4194 26.413 93.4359C38.611 99.047 50.0974 103.052 56.1964 103.865C60.2217 104.394 64.8976 103.398 72.7449 100.348C78.6813 98.0508 81.4868 96.7701 97.4458 89.0853C103.728 86.0765 104.073 85.8325 104.073 84.4094C104.073 83.5353 103.504 81.7666 102.955 80.872C101.817 79.0627 99.2145 77.355 96.5106 76.6027L95.3315 76.2775L95.2502 74.0615C95.0875 69.7516 93.0952 64.0388 89.4562 57.4926L88.2567 55.358L88.1347 51.6782C87.5655 35.5769 83.4385 27.2416 74.1477 23.4603L73.3752 23.1553L73.8834 21.8135C74.168 21.0613 75.1642 18.6421 76.1197 16.4261C77.9697 12.0348 78.7423 9.87986 79.0676 8.05016C79.5961 5.16331 78.112 1.95118 75.6725 0.711052C74.0867 -0.102142 71.0779 -0.203789 69.5938 0.487427C68.8009 0.853363 67.8658 1.68689 67.5405 2.29679C67.3168 2.66273 67.2762 2.6424 66.463 1.91052C64.6536 0.284126 61.7668 -0.407089 59.4898 0.243469ZM62.3157 4.43143C62.6613 4.43143 63.2712 4.85837 64.2064 5.73255C65.7718 7.19631 66.7679 7.60291 68.2317 7.37928C69.2888 7.21664 70.3663 6.36278 70.9356 5.2243C71.4032 4.32979 72.1757 4.0655 73.2735 4.43143C74.29 4.77705 74.7983 5.50893 74.7983 6.66773C74.7983 8.02984 74.2494 9.67656 72.0537 14.8607C71.0169 17.341 69.9597 20.0042 69.6954 20.7564L69.2075 22.1388L67.8861 21.9762C66.158 21.7729 59.6321 21.7729 57.8228 21.9762L56.3793 22.1591L55.9321 21.163C55.6881 20.6344 54.6716 18.7844 53.6348 17.0563C51.8051 13.9255 51.0122 12.2788 51.0122 11.5672C51.0122 11.0387 51.9067 10.7541 54.0414 10.6117C54.9969 10.5304 55.9524 10.3881 56.1354 10.2865C56.3387 10.1848 56.9282 9.24963 57.4365 8.19247C57.9447 7.13531 58.7173 5.91552 59.1442 5.46826C59.9167 4.67539 60.9942 4.16714 61.5431 4.35011C61.7058 4.39078 62.0514 4.43143 62.3157 4.43143ZM67.3575 26.2861C73.9444 27.1603 77.8884 29.8032 80.5923 35.1297C82.5643 39.0127 83.5198 44.2781 83.9264 53.4266L84.0891 56.9843L85.0649 58.6107C86.305 60.6844 88.8056 65.8685 89.4968 67.8609C90.371 70.3411 90.8386 72.3131 90.9809 73.9802C91.1435 75.8302 91.1029 75.8709 88.8869 76.0742C86.8946 76.2368 81.3242 77.4159 77.1565 78.5341C75.2659 79.0423 73.7004 79.4489 73.6801 79.4489C73.6395 79.4489 73.5175 79.022 73.3955 78.5138C73.0499 77.1923 72.5213 76.2368 71.5658 75.2406C69.2279 72.8214 65.7514 71.3983 57.7211 69.5889C53.7771 68.6944 52.3337 68.1861 47.6578 66.0312C44.0187 64.3641 41.7621 63.5509 39.7494 63.2053C39.0786 63.0833 38.5093 62.941 38.4687 62.9004C38.428 62.8597 38.9972 61.6806 39.7494 60.3185C40.5016 58.936 41.2742 57.5129 41.4572 57.1673C41.7214 56.6591 41.8231 55.6832 41.9247 52.4914C42.494 34.9264 47.1089 27.6686 58.636 26.2048C60.8723 25.9202 64.9382 25.9608 67.3575 26.2861ZM11.9787 62.6767C17.1832 63.7136 19.7651 64.3235 20.1107 64.5674C21.3305 65.4823 21.3712 64.8724 19.5415 77.7412C17.7728 90.1222 17.7524 90.2035 16.6343 90.7727C16.2887 90.9557 14.52 91.037 10.21 91.037H4.25336V76.0945C4.25336 67.8812 4.27369 61.152 4.31435 61.152C4.33468 61.152 7.79077 61.8432 11.9787 62.6767ZM40.095 67.6576C40.9489 67.8812 42.8599 68.6131 44.344 69.3043C51.1342 72.4148 52.1914 72.801 58.2294 74.1835C65.9344 75.9522 69.3092 77.7616 69.3092 80.0995C69.3092 80.7094 69.1872 80.9534 68.6586 81.36C67.6218 82.1325 65.8937 82.3765 62.2344 82.2341C57.6805 82.0715 52.293 81.0347 44.405 78.839C40.8676 77.8429 40.2577 77.8632 39.4648 79.0423C39.0989 79.5709 39.0176 79.9165 39.0989 80.4451C39.3225 81.9292 39.8918 82.1935 47.0479 84.0232C59.3272 87.1743 67.2355 87.5199 70.9356 85.06C71.9927 84.3688 79.0879 82.3765 85.1665 81.055C90.31 79.9572 94.254 80.0588 97.0596 81.3803C98.1777 81.9292 99.4991 83.088 99.2552 83.332C98.9502 83.5962 81.8731 91.7689 78.2544 93.375C71.6268 96.3025 66.6053 98.1322 62.7019 99.0877C58.7579 100.043 55.9931 99.7789 49.8534 97.9289C43.5511 96.0382 35.5411 92.8667 26.3723 88.6584C22.9976 87.1133 22.5706 86.849 22.652 86.4831C22.7129 86.2391 23.2619 82.3968 23.8718 77.9242C24.502 73.4516 25.0915 69.5889 25.1932 69.3653C25.3152 69.0197 25.7624 68.8367 27.2262 68.4708C32.1867 67.251 37.2692 66.9257 40.095 67.6576Z" fill="#F4F4F4"/>
<path d="M62.2546 36.9988C61.4617 37.2021 60.7705 38.0356 60.7705 38.7675C60.7705 39.1945 60.6079 39.3978 60.059 39.662C59.0222 40.15 57.5991 41.5324 57.1315 42.5286C55.1188 46.6759 57.7007 51.4331 62.2546 51.9413C63.6371 52.104 64.3486 52.4699 64.7552 53.2424C65.1618 54.0556 64.9992 55.0315 64.3079 55.682C63.82 56.1496 63.6167 56.17 60.7502 56.2716L57.721 56.3733L57.0908 57.0238C56.1963 57.9183 56.176 59.0975 57.0705 59.9717C57.6194 60.5409 57.843 60.6019 59.2255 60.7035C60.5469 60.7849 60.7705 60.8458 60.7705 61.1711C60.7705 61.3541 61.0551 61.8014 61.4008 62.147C62.6206 63.3668 64.6739 62.6959 64.9585 60.9882C65.0601 60.3579 65.2228 60.175 65.853 59.87C66.9102 59.3821 68.1706 58.081 68.7399 56.9222C69.1261 56.1293 69.2075 55.6414 69.2075 54.137C69.2075 52.5512 69.1261 52.165 68.6585 51.2908C67.6014 49.2984 65.8937 48.1193 63.5151 47.733C62.7629 47.6111 61.97 47.4281 61.7667 47.3061C60.7502 46.7775 60.4452 45.1511 61.1771 44.216C61.7667 43.4637 62.7222 43.2604 65.5887 43.2604H68.0486L68.6789 42.6302C69.5327 41.7764 69.5531 40.6989 68.7195 39.7637C68.1706 39.1538 68.0283 39.0928 66.5849 39.0318C65.0601 38.9505 65.0601 38.9505 64.8365 38.2796C64.4909 37.2021 63.4338 36.6939 62.2546 36.9988Z" fill="#0082FF"/>
</svg>
