<?xml version="1.0" encoding="utf-8"?>
<!-- Generator: Adobe Illustrator 25.0.1, SVG Export Plug-In . SVG Version: 6.00 Build 0)  -->
<svg version="1.1" id="Layer_1" xmlns="http://www.w3.org/2000/svg" xmlns:xlink="http://www.w3.org/1999/xlink" x="0px" y="0px"
	 viewBox="0 0 813 428" style="enable-background:new 0 0 813 428;" xml:space="preserve">
<style type="text/css">
	.st0{fill:#121212;}
	.st1{fill:none;stroke:#0082FF;stroke-width:4;}
	.st2{fill:#F4F4F4;}
	.st3{fill:#E3E3E3;}
	.st4{fill:url(#SVGID_1_);}
	.st5{fill:url(#SVGID_2_);}
	.st6{fill:#5C5C5C;}
	.st7{fill:#0082FF;}
</style>
<path class="st0" d="M5,174.3h769.4c1.7,0,3,1.3,3,3v79c0,1.7-1.3,3-3,3H5c-1.7,0-3-1.3-3-3v-79C2,175.7,3.3,174.3,5,174.3z"/>
<path class="st1" d="M2,174.3l0,85"/>
<path class="st2" d="M50.9,225c-0.9,1.2-2.1,2.2-3.6,2.8c-1.5,0.6-3.4,0.9-5.4,0.9c-2.1,0-3.9-0.5-5.6-1.5c-1.6-1-2.9-2.4-3.8-4.2
	c-0.9-1.8-1.3-3.9-1.4-6.3v-2.2c0-3.9,0.9-6.8,2.7-9c1.8-2.1,4.3-3.2,7.6-3.2c2.7,0,4.8,0.7,6.5,2.1c1.6,1.4,2.6,3.3,3,5.8h-3.4
	c-0.6-3.4-2.6-5.1-6-5.1c-2.3,0-4,0.8-5.2,2.4c-1.2,1.6-1.7,3.9-1.8,6.9v2.1c0,2.9,0.7,5.2,2,6.9c1.3,1.7,3.1,2.5,5.3,2.5
	c1.3,0,2.4-0.1,3.3-0.4c0.9-0.3,1.7-0.8,2.4-1.4v-5.7h-5.9v-2.7h9.3V225z M63.9,228.7c-2.6,0-4.7-0.8-6.3-2.5
	c-1.6-1.7-2.4-4-2.4-6.8v-0.6c0-1.9,0.4-3.6,1.1-5c0.7-1.5,1.7-2.6,3-3.5c1.3-0.8,2.7-1.3,4.2-1.3c2.5,0,4.4,0.8,5.8,2.4
	s2.1,4,2.1,7v1.4H58.4c0,1.9,0.6,3.4,1.6,4.6c1.1,1.1,2.4,1.7,4,1.7c1.1,0,2.1-0.2,2.9-0.7c0.8-0.5,1.5-1.1,2.1-1.9l2,1.5
	C69.5,227.5,67.1,228.7,63.9,228.7z M63.5,211.6c-1.3,0-2.4,0.5-3.3,1.4c-0.9,0.9-1.4,2.3-1.7,4h9.5v-0.2c-0.1-1.7-0.5-2.9-1.3-3.8
	C65.9,212.1,64.8,211.6,63.5,211.6z M84.3,212.2c-0.5-0.1-1-0.1-1.6-0.1c-2.1,0-3.6,0.9-4.3,2.7v13.5h-3.3v-19h3.2l0.1,2.2
	c1.1-1.7,2.6-2.5,4.5-2.5c0.6,0,1.1,0.1,1.4,0.2V212.2z M90.3,209.3l0.1,2.1c1.4-1.6,3.3-2.5,5.6-2.5c2.7,0,4.5,1,5.4,3.1
	c0.6-0.9,1.5-1.7,2.5-2.2c1-0.6,2.2-0.8,3.6-0.8c4.2,0,6.3,2.2,6.4,6.6v12.7h-3.3v-12.6c0-1.4-0.3-2.4-0.9-3c-0.6-0.7-1.7-1-3.1-1
	c-1.2,0-2.2,0.4-3,1.1c-0.8,0.7-1.3,1.7-1.4,2.9v12.6H99v-12.5c0-2.8-1.4-4.1-4.1-4.1c-2.1,0-3.6,0.9-4.4,2.7v13.9h-3.3v-19H90.3z
	 M130.6,228.3c-0.2-0.4-0.3-1-0.5-2c-1.5,1.6-3.3,2.4-5.4,2.4c-1.9,0-3.4-0.5-4.6-1.6c-1.2-1.1-1.8-2.4-1.8-4c0-2,0.8-3.5,2.2-4.6
	c1.5-1.1,3.6-1.7,6.4-1.7h3.2v-1.5c0-1.1-0.3-2-1-2.7c-0.7-0.7-1.7-1-3-1c-1.2,0-2.1,0.3-2.9,0.9c-0.8,0.6-1.2,1.3-1.2,2.1h-3.3
	c0-0.9,0.3-1.9,1-2.7c0.7-0.9,1.6-1.6,2.7-2.1c1.2-0.5,2.4-0.8,3.8-0.8c2.2,0,3.9,0.6,5.2,1.7c1.2,1.1,1.9,2.6,1.9,4.5v8.8
	c0,1.7,0.2,3.1,0.7,4.2v0.3H130.6z M125.2,225.9c1,0,2-0.3,2.9-0.8c0.9-0.5,1.6-1.2,2-2.1v-3.9h-2.5c-4,0-6,1.2-6,3.5
	c0,1,0.3,1.8,1,2.4S124.1,225.9,125.2,225.9z M141.5,209.3l0.1,2.4c1.5-1.8,3.4-2.7,5.7-2.7c4,0,6,2.3,6.1,6.8v12.6h-3.3v-12.6
	c0-1.4-0.3-2.4-0.9-3c-0.6-0.7-1.6-1-2.9-1c-1.1,0-2,0.3-2.8,0.8c-0.8,0.6-1.4,1.3-1.9,2.2v13.6h-3.3v-19H141.5z M164.5,223.6
	l4.4-14.3h3.5l-7.6,22c-1.2,3.2-3.1,4.7-5.6,4.7l-0.6-0.1l-1.2-0.2v-2.6l0.9,0.1c1.1,0,2-0.2,2.6-0.7c0.6-0.4,1.1-1.3,1.5-2.4
	l0.7-1.9l-6.8-18.8h3.6L164.5,223.6z M173.4,233.4l-1.8-1.3c1.1-1.5,1.7-3.1,1.7-4.7v-2.9h3.2v2.5c0,1.2-0.3,2.4-0.9,3.6
	C175,231.8,174.2,232.7,173.4,233.4z M190,228.3v-25.6h8.4c2.8,0,4.9,0.6,6.3,1.7c1.4,1.1,2.1,2.8,2.1,5.1c0,1.2-0.3,2.3-1,3.2
	c-0.7,0.9-1.6,1.6-2.8,2.1c1.4,0.4,2.5,1.1,3.3,2.2c0.8,1.1,1.2,2.4,1.2,3.9c0,2.3-0.7,4.1-2.2,5.4c-1.5,1.3-3.6,2-6.3,2H190z
	 M193.3,216.4v9.2h5.6c1.6,0,2.8-0.4,3.7-1.2c0.9-0.8,1.4-1.9,1.4-3.4c0-3.1-1.7-4.6-5-4.6H193.3z M193.3,213.7h5.1
	c1.5,0,2.7-0.4,3.5-1.1c0.9-0.7,1.3-1.7,1.3-3c0-1.4-0.4-2.4-1.2-3.1c-0.8-0.6-2.1-1-3.7-1h-5V213.7z M219.8,228.7
	c-2.6,0-4.7-0.8-6.3-2.5c-1.6-1.7-2.4-4-2.4-6.8v-0.6c0-1.9,0.4-3.6,1.1-5c0.7-1.5,1.7-2.6,3-3.5c1.3-0.8,2.7-1.3,4.2-1.3
	c2.5,0,4.4,0.8,5.8,2.4c1.4,1.6,2.1,4,2.1,7v1.4h-12.9c0,1.9,0.6,3.4,1.6,4.6c1.1,1.1,2.4,1.7,4,1.7c1.1,0,2.1-0.2,2.9-0.7
	s1.5-1.1,2.1-1.9l2,1.5C225.4,227.5,223,228.7,219.8,228.7z M219.4,211.6c-1.3,0-2.4,0.5-3.3,1.4c-0.9,0.9-1.4,2.3-1.7,4h9.5v-0.2
	c-0.1-1.7-0.5-2.9-1.3-3.8C221.8,212.1,220.7,211.6,219.4,211.6z M240.2,212.2c-0.5-0.1-1-0.1-1.6-0.1c-2.1,0-3.6,0.9-4.3,2.7v13.5
	H231v-19h3.2l0.1,2.2c1.1-1.7,2.6-2.5,4.5-2.5c0.6,0,1.1,0.1,1.4,0.2V212.2z M246.7,228.3h-3.3v-27h3.3V228.3z M255.5,228.3h-3.3
	v-19h3.3V228.3z M251.9,204.3c0-0.5,0.2-1,0.5-1.3c0.3-0.4,0.8-0.5,1.4-0.5c0.6,0,1.1,0.2,1.4,0.5c0.3,0.4,0.5,0.8,0.5,1.3
	c0,0.5-0.2,1-0.5,1.3c-0.3,0.4-0.8,0.5-1.4,0.5c-0.6,0-1.1-0.2-1.4-0.5C252.1,205.2,251.9,204.8,251.9,204.3z M263.8,209.3l0.1,2.4
	c1.5-1.8,3.4-2.7,5.7-2.7c4,0,6,2.3,6.1,6.8v12.6h-3.3v-12.6c0-1.4-0.3-2.4-0.9-3c-0.6-0.7-1.6-1-2.9-1c-1.1,0-2,0.3-2.8,0.8
	c-0.8,0.6-1.4,1.3-1.9,2.2v13.6h-3.3v-19H263.8z"/>
<path class="st3" d="M7.9,147.5l0.4,2.4l0.5-2.2l3.7-12.9h2.1l3.6,12.9l0.5,2.2l0.4-2.5l2.9-12.6h2.5l-4.5,18.5h-2.2l-3.8-13.5
	l-0.3-1.4l-0.3,1.4l-3.9,13.5H7l-4.5-18.5H5L7.9,147.5z M29,141.3c1-1.3,2.4-1.9,4.1-1.9c2.9,0,4.4,1.6,4.4,4.9v9.1h-2.3v-9.1
	c0-1-0.2-1.7-0.7-2.2c-0.4-0.5-1.1-0.7-2.1-0.7c-0.8,0-1.4,0.2-2,0.6c-0.6,0.4-1,0.9-1.3,1.6v9.8h-2.3v-19.5H29V141.3z M46.7,153.6
	c-1.9,0-3.4-0.6-4.5-1.8c-1.2-1.2-1.8-2.9-1.8-4.9v-0.4c0-1.4,0.3-2.6,0.8-3.6c0.5-1.1,1.3-1.9,2.2-2.5c0.9-0.6,2-0.9,3-0.9
	c1.8,0,3.2,0.6,4.2,1.8c1,1.2,1.5,2.9,1.5,5.1v1h-9.3c0,1.4,0.4,2.4,1.2,3.3c0.8,0.8,1.7,1.2,2.9,1.2c0.8,0,1.5-0.2,2.1-0.5
	c0.6-0.3,1.1-0.8,1.5-1.3l1.4,1.1C50.7,152.7,49,153.6,46.7,153.6z M46.4,141.3c-0.9,0-1.7,0.3-2.4,1c-0.6,0.7-1,1.7-1.2,2.9h6.9
	V145c-0.1-1.2-0.4-2.1-1-2.8C48.2,141.6,47.4,141.3,46.4,141.3z M61.4,141.7c-0.4-0.1-0.7-0.1-1.2-0.1c-1.5,0-2.6,0.7-3.1,2v9.8
	h-2.3v-13.7h2.3l0,1.6c0.8-1.2,1.9-1.8,3.3-1.8c0.5,0,0.8,0.1,1,0.2V141.7z M69,153.6c-1.9,0-3.4-0.6-4.5-1.8
	c-1.2-1.2-1.8-2.9-1.8-4.9v-0.4c0-1.4,0.3-2.6,0.8-3.6c0.5-1.1,1.3-1.9,2.2-2.5c0.9-0.6,2-0.9,3-0.9c1.8,0,3.2,0.6,4.2,1.8
	c1,1.2,1.5,2.9,1.5,5.1v1h-9.3c0,1.4,0.4,2.4,1.2,3.3c0.8,0.8,1.7,1.2,2.9,1.2c0.8,0,1.5-0.2,2.1-0.5c0.6-0.3,1.1-0.8,1.5-1.3
	l1.4,1.1C73.1,152.7,71.3,153.6,69,153.6z M68.7,141.3c-0.9,0-1.7,0.3-2.4,1c-0.6,0.7-1,1.7-1.2,2.9H72V145c-0.1-1.2-0.4-2.1-1-2.8
	C70.5,141.6,69.7,141.3,68.7,141.3z M92,153.3c-0.1-0.3-0.2-0.8-0.3-1.4c-1.1,1.1-2.4,1.7-3.9,1.7c-1.4,0-2.5-0.4-3.3-1.1
	c-0.9-0.8-1.3-1.7-1.3-2.9c0-1.4,0.5-2.5,1.6-3.3c1.1-0.8,2.6-1.2,4.6-1.2h2.3v-1.1c0-0.8-0.2-1.5-0.7-2c-0.5-0.5-1.2-0.7-2.2-0.7
	c-0.8,0-1.5,0.2-2.1,0.6c-0.6,0.4-0.9,0.9-0.9,1.5h-2.4c0-0.7,0.2-1.3,0.7-2c0.5-0.6,1.2-1.2,2-1.5c0.8-0.4,1.8-0.6,2.8-0.6
	c1.6,0,2.8,0.4,3.7,1.2c0.9,0.8,1.4,1.9,1.4,3.3v6.3c0,1.3,0.2,2.3,0.5,3v0.2H92z M88.1,151.6c0.7,0,1.4-0.2,2.1-0.6
	c0.7-0.4,1.1-0.9,1.4-1.5v-2.8h-1.8c-2.9,0-4.3,0.8-4.3,2.5c0,0.7,0.2,1.3,0.7,1.7C86.7,151.3,87.4,151.6,88.1,151.6z M104.3,141.7
	c-0.4-0.1-0.7-0.1-1.2-0.1c-1.5,0-2.6,0.7-3.1,2v9.8h-2.3v-13.7h2.3l0,1.6c0.8-1.2,1.9-1.8,3.3-1.8c0.5,0,0.8,0.1,1,0.2V141.7z
	 M112,153.6c-1.9,0-3.4-0.6-4.5-1.8c-1.2-1.2-1.8-2.9-1.8-4.9v-0.4c0-1.4,0.3-2.6,0.8-3.6c0.5-1.1,1.3-1.9,2.2-2.5
	c0.9-0.6,2-0.9,3-0.9c1.8,0,3.2,0.6,4.2,1.8c1,1.2,1.5,2.9,1.5,5.1v1H108c0,1.4,0.4,2.4,1.2,3.3c0.8,0.8,1.7,1.2,2.9,1.2
	c0.8,0,1.5-0.2,2.1-0.5c0.6-0.3,1.1-0.8,1.5-1.3l1.4,1.1C116,152.7,114.3,153.6,112,153.6z M111.7,141.3c-0.9,0-1.7,0.3-2.4,1
	c-0.6,0.7-1,1.7-1.2,2.9h6.9V145c-0.1-1.2-0.4-2.1-1-2.8C113.4,141.6,112.7,141.3,111.7,141.3z M131,149.9l3.2-10.3h2.5l-5.5,15.9
	c-0.9,2.3-2.2,3.4-4.1,3.4l-0.4,0l-0.9-0.2v-1.9l0.6,0.1c0.8,0,1.4-0.2,1.9-0.5c0.4-0.3,0.8-0.9,1.1-1.8l0.5-1.4l-4.9-13.6h2.6
	L131,149.9z M138,146.3c0-1.3,0.3-2.6,0.8-3.6c0.5-1.1,1.3-1.9,2.2-2.5c0.9-0.6,2-0.9,3.2-0.9c1.9,0,3.4,0.6,4.5,1.9
	c1.2,1.3,1.7,3,1.7,5.2v0.2c0,1.3-0.3,2.5-0.8,3.6c-0.5,1.1-1.2,1.9-2.2,2.5c-0.9,0.6-2,0.9-3.3,0.9c-1.9,0-3.4-0.6-4.5-1.9
	c-1.2-1.3-1.7-3-1.7-5.1V146.3z M140.4,146.6c0,1.5,0.4,2.7,1.1,3.7c0.7,0.9,1.7,1.4,2.8,1.4c1.2,0,2.1-0.5,2.8-1.4
	c0.7-0.9,1.1-2.3,1.1-3.9c0-1.5-0.4-2.7-1.1-3.7c-0.7-0.9-1.7-1.4-2.8-1.4c-1.2,0-2.1,0.5-2.8,1.4
	C140.7,143.6,140.4,144.9,140.4,146.6z M161.9,152c-0.9,1.1-2.3,1.6-4,1.6c-1.5,0-2.6-0.4-3.4-1.3c-0.8-0.9-1.1-2.1-1.2-3.8v-8.9
	h2.3v8.9c0,2.1,0.8,3.1,2.5,3.1c1.8,0,3-0.7,3.6-2v-10h2.3v13.7H162L161.9,152z M175.4,153.3v-11.9h-2.2v-1.8h2.2v-1.4
	c0-1.5,0.4-2.6,1.2-3.4c0.8-0.8,1.9-1.2,3.3-1.2c0.5,0,1.1,0.1,1.6,0.2l-0.1,1.9c-0.4-0.1-0.8-0.1-1.3-0.1c-0.8,0-1.3,0.2-1.8,0.7
	c-0.4,0.4-0.6,1.1-0.6,1.9v1.4h2.9v1.8h-2.9v11.9H175.4z M189.9,141.7c-0.4-0.1-0.7-0.1-1.2-0.1c-1.5,0-2.6,0.7-3.1,2v9.8h-2.3
	v-13.7h2.3l0,1.6c0.8-1.2,1.9-1.8,3.3-1.8c0.5,0,0.8,0.1,1,0.2V141.7z M191.2,146.3c0-1.3,0.3-2.6,0.8-3.6c0.5-1.1,1.3-1.9,2.2-2.5
	c0.9-0.6,2-0.9,3.2-0.9c1.9,0,3.4,0.6,4.5,1.9c1.2,1.3,1.7,3,1.7,5.2v0.2c0,1.3-0.3,2.5-0.8,3.6c-0.5,1.1-1.2,1.9-2.2,2.5
	c-0.9,0.6-2,0.9-3.3,0.9c-1.9,0-3.4-0.6-4.5-1.9c-1.2-1.3-1.7-3-1.7-5.1V146.3z M193.6,146.6c0,1.5,0.4,2.7,1.1,3.7
	c0.7,0.9,1.7,1.4,2.8,1.4c1.2,0,2.1-0.5,2.8-1.4c0.7-0.9,1.1-2.3,1.1-3.9c0-1.5-0.4-2.7-1.1-3.7c-0.7-0.9-1.7-1.4-2.8-1.4
	c-1.2,0-2.1,0.5-2.8,1.4C193.9,143.6,193.6,144.9,193.6,146.6z M208.9,139.6l0.1,1.5c1-1.2,2.4-1.8,4.1-1.8c1.9,0,3.2,0.7,3.9,2.2
	c0.5-0.7,1-1.2,1.8-1.6c0.7-0.4,1.6-0.6,2.6-0.6c3,0,4.5,1.6,4.6,4.8v9.2h-2.3v-9.1c0-1-0.2-1.7-0.7-2.2c-0.4-0.5-1.2-0.7-2.3-0.7
	c-0.9,0-1.6,0.3-2.2,0.8c-0.6,0.5-0.9,1.2-1,2.1v9.1h-2.4v-9c0-2-1-3-2.9-3c-1.5,0-2.6,0.7-3.2,2v10h-2.3v-13.7H208.9z M232.2,148.1
	c0-1,0.1-1.8,0.3-2.4c0.2-0.6,0.6-1.2,1.3-1.9l1.7-1.7c0.7-0.8,1.1-1.7,1.1-2.6c0-0.9-0.2-1.6-0.7-2.1c-0.5-0.5-1.1-0.8-2-0.8
	c-0.9,0-1.6,0.2-2.1,0.7c-0.5,0.5-0.8,1.1-0.8,1.8h-2.3c0-1.4,0.5-2.5,1.5-3.3c1-0.8,2.2-1.3,3.8-1.3c1.6,0,2.8,0.4,3.7,1.3
	c0.9,0.9,1.3,2,1.3,3.5c0,1.5-0.7,2.9-2.1,4.4l-1.4,1.4c-0.6,0.7-0.9,1.7-0.9,3H232.2z M232.1,152.2c0-0.4,0.1-0.7,0.3-1
	c0.2-0.3,0.6-0.4,1-0.4s0.8,0.1,1,0.4c0.2,0.3,0.4,0.6,0.4,1s-0.1,0.7-0.4,1c-0.2,0.2-0.6,0.4-1,0.4s-0.8-0.1-1-0.4
	C232.2,152.9,232.1,152.5,232.1,152.2z"/>
<path class="st0" d="M90,345.2h722v80.3H90V345.2z"/>
<path class="st2" d="M135.1,392.9H125l-2.3,6.3h-3.3l9.2-24.2h2.8l9.2,24.2h-3.3L135.1,392.9z M126,390.3h8.2l-4.1-11.3L126,390.3z
	 M158.7,390.4c0,2.7-0.6,5-1.9,6.6c-1.3,1.7-3,2.5-5.1,2.5c-2.3,0-4-0.8-5.3-2.4l-0.1,2.1h-2.8v-25.5h3.1v9.5
	c1.2-1.5,2.9-2.3,5.1-2.3c2.2,0,3.9,0.8,5.1,2.5c1.2,1.6,1.9,3.9,1.9,6.8V390.4z M155.6,390.1c0-2.1-0.4-3.7-1.2-4.8
	c-0.8-1.1-2-1.7-3.5-1.7c-2,0-3.5,0.9-4.4,2.8v7.8c0.9,1.9,2.4,2.8,4.4,2.8c1.5,0,2.6-0.6,3.4-1.7
	C155.2,394.1,155.6,392.4,155.6,390.1z M161.8,390.1c0-1.8,0.3-3.3,1-4.7c0.7-1.4,1.7-2.5,2.9-3.3c1.2-0.8,2.6-1.1,4.2-1.1
	c2.4,0,4.4,0.8,5.9,2.5c1.5,1.7,2.3,3.9,2.3,6.8v0.2c0,1.7-0.3,3.3-1,4.7c-0.7,1.4-1.6,2.5-2.9,3.2c-1.2,0.8-2.7,1.2-4.3,1.2
	c-2.4,0-4.4-0.8-5.9-2.5c-1.5-1.7-2.3-3.9-2.3-6.7V390.1z M164.9,390.4c0,2,0.5,3.6,1.4,4.8c0.9,1.2,2.2,1.8,3.7,1.8
	c1.6,0,2.8-0.6,3.7-1.8c0.9-1.2,1.4-2.9,1.4-5.1c0-2-0.5-3.6-1.4-4.8c-0.9-1.2-2.2-1.8-3.7-1.8c-1.5,0-2.7,0.6-3.7,1.8
	C165.3,386.4,164.9,388.2,164.9,390.4z M193.1,397.4c-1.2,1.4-2.9,2.1-5.3,2.1c-1.9,0-3.4-0.6-4.4-1.7c-1-1.1-1.5-2.8-1.5-4.9v-11.7
	h3.1v11.6c0,2.7,1.1,4.1,3.3,4.1c2.3,0,3.9-0.9,4.7-2.6v-13.1h3.1v18h-2.9L193.1,397.4z M204.9,376.9v4.3h3.4v2.4h-3.4v11.1
	c0,0.7,0.1,1.3,0.4,1.6c0.3,0.4,0.8,0.5,1.5,0.5c0.4,0,0.8-0.1,1.5-0.2v2.5c-0.8,0.2-1.6,0.3-2.4,0.3c-1.4,0-2.4-0.4-3.1-1.2
	c-0.7-0.8-1-2-1-3.5v-11.1h-3.3v-2.4h3.3v-4.3H204.9z M224.4,385.6h2.3c1.4,0,2.6-0.4,3.4-1.1c0.8-0.7,1.2-1.7,1.2-3
	c0-2.8-1.4-4.2-4.2-4.2c-1.3,0-2.4,0.4-3.2,1.1c-0.8,0.8-1.2,1.8-1.2,3h-3.1c0-1.9,0.7-3.5,2.1-4.8c1.4-1.3,3.2-1.9,5.3-1.9
	c2.3,0,4.1,0.6,5.4,1.8c1.3,1.2,1.9,2.9,1.9,5c0,1.1-0.3,2.1-1,3.1c-0.7,1-1.6,1.7-2.8,2.2c1.3,0.4,2.4,1.1,3.1,2.1
	c0.7,1,1.1,2.2,1.1,3.6c0,2.2-0.7,3.9-2.1,5.2c-1.4,1.3-3.3,1.9-5.5,1.9c-2.3,0-4.1-0.6-5.5-1.8c-1.4-1.2-2.1-2.8-2.1-4.9h3.1
	c0,1.3,0.4,2.3,1.2,3.1c0.8,0.8,1.9,1.1,3.3,1.1c1.5,0,2.6-0.4,3.4-1.2c0.8-0.8,1.2-1.9,1.2-3.3c0-1.4-0.4-2.5-1.3-3.2
	c-0.9-0.8-2.1-1.1-3.7-1.2h-2.3V385.6z M242.4,383.4c1.4-1.7,3.1-2.5,5.3-2.5c3.8,0,5.7,2.1,5.7,6.4v11.9h-3.1v-11.9
	c0-1.3-0.3-2.3-0.9-2.9c-0.6-0.6-1.5-0.9-2.7-0.9c-1,0-1.9,0.3-2.6,0.8c-0.8,0.5-1.3,1.2-1.8,2.1v12.8h-3.1v-25.5h3.1V383.4z
	 M258,404l-1.7-1.2c1-1.4,1.6-2.9,1.6-4.5v-2.8h3v2.4c0,1.1-0.3,2.2-0.8,3.4C259.5,402.4,258.8,403.3,258,404z M288.4,390.4
	c0,2.7-0.6,5-1.9,6.6c-1.3,1.7-3,2.5-5.1,2.5c-2.3,0-4-0.8-5.3-2.4l-0.1,2.1h-2.8v-25.5h3.1v9.5c1.2-1.5,2.9-2.3,5.1-2.3
	s3.9,0.8,5.1,2.5c1.2,1.6,1.9,3.9,1.9,6.8V390.4z M285.3,390.1c0-2.1-0.4-3.7-1.2-4.8c-0.8-1.1-2-1.7-3.5-1.7c-2,0-3.5,0.9-4.4,2.8
	v7.8c0.9,1.9,2.4,2.8,4.4,2.8c1.5,0,2.6-0.6,3.4-1.7C284.9,394.1,285.3,392.4,285.3,390.1z M303.3,397.4c-1.2,1.4-2.9,2.1-5.3,2.1
	c-1.9,0-3.4-0.6-4.4-1.7c-1-1.1-1.5-2.8-1.5-4.9v-11.7h3.1v11.6c0,2.7,1.1,4.1,3.3,4.1c2.3,0,3.9-0.9,4.7-2.6v-13.1h3.1v18h-2.9
	L303.3,397.4z M315.2,376.9v4.3h3.4v2.4h-3.4v11.1c0,0.7,0.1,1.3,0.4,1.6c0.3,0.4,0.8,0.5,1.5,0.5c0.4,0,0.8-0.1,1.5-0.2v2.5
	c-0.8,0.2-1.6,0.3-2.4,0.3c-1.4,0-2.4-0.4-3.1-1.2c-0.7-0.8-1-2-1-3.5v-11.1h-3.3v-2.4h3.3v-4.3H315.2z M333.5,381.2l0.1,2
	c1.3-1.5,3.1-2.3,5.3-2.3c2.5,0,4.2,1,5.1,2.9c0.6-0.9,1.4-1.6,2.3-2.1c1-0.5,2.1-0.8,3.4-0.8c3.9,0,5.9,2.1,6,6.3v12h-3.1v-11.8
	c0-1.3-0.3-2.2-0.9-2.9c-0.6-0.6-1.6-1-3-1c-1.1,0-2.1,0.3-2.8,1c-0.8,0.7-1.2,1.6-1.3,2.7v11.9h-3.1v-11.8c0-2.6-1.3-3.9-3.8-3.9
	c-2,0-3.4,0.9-4.1,2.6v13.1h-3.1v-18H333.5z M371.5,397.4c-1.2,1.4-2.9,2.1-5.3,2.1c-1.9,0-3.4-0.6-4.4-1.7c-1-1.1-1.5-2.8-1.5-4.9
	v-11.7h3.1v11.6c0,2.7,1.1,4.1,3.3,4.1c2.3,0,3.9-0.9,4.7-2.6v-13.1h3.1v18h-2.9L371.5,397.4z M386.3,397c1.1,0,2.1-0.3,2.9-1
	c0.8-0.7,1.3-1.5,1.4-2.5h2.9c-0.1,1-0.4,2-1.1,2.9c-0.7,0.9-1.5,1.7-2.6,2.2c-1.1,0.6-2.2,0.8-3.5,0.8c-2.4,0-4.4-0.8-5.8-2.4
	c-1.4-1.6-2.2-3.9-2.2-6.7v-0.5c0-1.7,0.3-3.3,1-4.7c0.6-1.4,1.6-2.4,2.8-3.2c1.2-0.8,2.6-1.1,4.3-1.1c2,0,3.7,0.6,5,1.8
	c1.3,1.2,2.1,2.8,2.1,4.7h-2.9c-0.1-1.2-0.5-2.1-1.3-2.9c-0.8-0.8-1.8-1.1-2.9-1.1c-1.6,0-2.8,0.6-3.6,1.7c-0.9,1.1-1.3,2.7-1.3,4.9
	v0.6c0,2.1,0.4,3.7,1.3,4.8C383.5,396.5,384.7,397,386.3,397z M400,383.4c1.4-1.7,3.1-2.5,5.3-2.5c3.8,0,5.7,2.1,5.7,6.4v11.9H408
	v-11.9c0-1.3-0.3-2.3-0.9-2.9c-0.6-0.6-1.5-0.9-2.7-0.9c-1,0-1.9,0.3-2.6,0.8c-0.8,0.5-1.3,1.2-1.8,2.1v12.8h-3.1v-25.5h3.1V383.4z
	 M427,381.2l0.1,2c1.3-1.5,3.1-2.3,5.3-2.3c2.5,0,4.2,1,5.1,2.9c0.6-0.9,1.4-1.6,2.3-2.1c1-0.5,2.1-0.8,3.4-0.8c3.9,0,5.9,2.1,6,6.3
	v12h-3.1v-11.8c0-1.3-0.3-2.2-0.9-2.9c-0.6-0.6-1.6-1-3-1c-1.1,0-2.1,0.3-2.8,1c-0.8,0.7-1.2,1.6-1.3,2.7v11.9h-3.1v-11.8
	c0-2.6-1.3-3.9-3.8-3.9c-2,0-3.4,0.9-4.1,2.6v13.1H424v-18H427z M453.1,390.1c0-1.8,0.3-3.3,1-4.7c0.7-1.4,1.7-2.5,2.9-3.3
	c1.2-0.8,2.6-1.1,4.2-1.1c2.4,0,4.4,0.8,5.9,2.5c1.5,1.7,2.3,3.9,2.3,6.8v0.2c0,1.7-0.3,3.3-1,4.7c-0.7,1.4-1.6,2.5-2.9,3.2
	c-1.2,0.8-2.7,1.2-4.3,1.2c-2.4,0-4.4-0.8-5.9-2.5c-1.5-1.7-2.3-3.9-2.3-6.7V390.1z M456.1,390.4c0,2,0.5,3.6,1.4,4.8
	c0.9,1.2,2.2,1.8,3.7,1.8c1.6,0,2.8-0.6,3.7-1.8c0.9-1.2,1.4-2.9,1.4-5.1c0-2-0.5-3.6-1.4-4.8c-0.9-1.2-2.2-1.8-3.7-1.8
	c-1.5,0-2.7,0.6-3.7,1.8C456.6,386.4,456.1,388.2,456.1,390.4z M481.9,384c-0.5-0.1-1-0.1-1.5-0.1c-2,0-3.4,0.9-4.1,2.6v12.7h-3.1
	v-18h3l0,2.1c1-1.6,2.4-2.4,4.3-2.4c0.6,0,1.1,0.1,1.4,0.2V384z M491.9,399.5c-2.4,0-4.4-0.8-5.9-2.4c-1.5-1.6-2.3-3.7-2.3-6.4v-0.6
	c0-1.8,0.3-3.4,1-4.8c0.7-1.4,1.6-2.5,2.9-3.3c1.2-0.8,2.6-1.2,4-1.2c2.3,0,4.1,0.8,5.4,2.3c1.3,1.5,1.9,3.7,1.9,6.6v1.3h-12.2
	c0,1.8,0.6,3.2,1.5,4.3c1,1.1,2.3,1.6,3.8,1.6c1.1,0,2-0.2,2.8-0.7c0.8-0.4,1.4-1,2-1.8l1.9,1.5
	C497.2,398.4,494.9,399.5,491.9,399.5z M491.5,383.4c-1.2,0-2.3,0.5-3.1,1.4c-0.8,0.9-1.4,2.2-1.6,3.8h9v-0.2
	c-0.1-1.6-0.5-2.8-1.3-3.6C493.8,383.9,492.8,383.4,491.5,383.4z M510.1,390.1c0-1.8,0.3-3.3,1-4.7c0.7-1.4,1.7-2.5,2.9-3.3
	c1.2-0.8,2.7-1.1,4.2-1.1c2.4,0,4.4,0.8,5.9,2.5c1.5,1.7,2.3,3.9,2.3,6.8v0.2c0,1.7-0.3,3.3-1,4.7c-0.7,1.4-1.6,2.5-2.9,3.2
	c-1.2,0.8-2.7,1.2-4.3,1.2c-2.4,0-4.4-0.8-5.9-2.5c-1.5-1.7-2.3-3.9-2.3-6.7V390.1z M513.2,390.4c0,2,0.5,3.6,1.4,4.8
	c0.9,1.2,2.2,1.8,3.7,1.8c1.6,0,2.8-0.6,3.7-1.8c0.9-1.2,1.4-2.9,1.4-5.1c0-2-0.5-3.6-1.4-4.8c-0.9-1.2-2.2-1.8-3.7-1.8
	c-1.5,0-2.7,0.6-3.7,1.8C513.6,386.4,513.2,388.2,513.2,390.4z M533.2,381.2l0.1,2.3c1.4-1.7,3.2-2.6,5.4-2.6c3.8,0,5.7,2.1,5.7,6.4
	v11.9h-3.1v-11.9c0-1.3-0.3-2.3-0.9-2.9c-0.6-0.6-1.5-0.9-2.7-0.9c-1,0-1.9,0.3-2.6,0.8c-0.8,0.5-1.3,1.2-1.8,2.1v12.8h-3.1v-18
	H533.2z M573.4,395l3.5-13.7h3.1l-5.2,18h-2.5l-4.4-13.6l-4.2,13.6h-2.5l-5.2-18h3.1l3.5,13.4l4.2-13.4h2.5L573.4,395z M590.5,399.5
	c-2.4,0-4.4-0.8-5.9-2.4c-1.5-1.6-2.3-3.7-2.3-6.4v-0.6c0-1.8,0.3-3.4,1-4.8c0.7-1.4,1.6-2.5,2.9-3.3c1.2-0.8,2.6-1.2,4-1.2
	c2.3,0,4.1,0.8,5.4,2.3c1.3,1.5,1.9,3.7,1.9,6.6v1.3h-12.2c0,1.8,0.6,3.2,1.5,4.3c1,1.1,2.3,1.6,3.8,1.6c1.1,0,2-0.2,2.8-0.7
	c0.8-0.4,1.4-1,2-1.8l1.9,1.5C595.7,398.4,593.5,399.5,590.5,399.5z M590.1,383.4c-1.2,0-2.3,0.5-3.1,1.4c-0.8,0.9-1.4,2.2-1.6,3.8
	h9v-0.2c-0.1-1.6-0.5-2.8-1.3-3.6C592.4,383.9,591.4,383.4,590.1,383.4z M608.5,399.5c-2.4,0-4.4-0.8-5.9-2.4
	c-1.5-1.6-2.3-3.7-2.3-6.4v-0.6c0-1.8,0.3-3.4,1-4.8c0.7-1.4,1.6-2.5,2.9-3.3c1.2-0.8,2.6-1.2,4-1.2c2.3,0,4.1,0.8,5.4,2.3
	c1.3,1.5,1.9,3.7,1.9,6.6v1.3h-12.2c0,1.8,0.6,3.2,1.5,4.3c1,1.1,2.3,1.6,3.8,1.6c1.1,0,2-0.2,2.8-0.7c0.8-0.4,1.4-1,2-1.8l1.9,1.5
	C613.8,398.4,611.5,399.5,608.5,399.5z M608.1,383.4c-1.2,0-2.3,0.5-3.1,1.4c-0.8,0.9-1.4,2.2-1.6,3.8h9v-0.2
	c-0.1-1.6-0.5-2.8-1.3-3.6C610.4,383.9,609.4,383.4,608.1,383.4z M624.1,390.9l-1.9,2v6.3h-3.1v-25.5h3.1v15.4l1.6-2l5.6-5.9h3.7
	l-7,7.5l7.8,10.5h-3.6L624.1,390.9z M643.4,399.5c-2.4,0-4.4-0.8-5.9-2.4c-1.5-1.6-2.3-3.7-2.3-6.4v-0.6c0-1.8,0.3-3.4,1-4.8
	c0.7-1.4,1.6-2.5,2.9-3.3c1.2-0.8,2.6-1.2,4-1.2c2.3,0,4.1,0.8,5.4,2.3c1.3,1.5,1.9,3.7,1.9,6.6v1.3h-12.2c0,1.8,0.6,3.2,1.5,4.3
	c1,1.1,2.3,1.6,3.8,1.6c1.1,0,2-0.2,2.8-0.7c0.8-0.4,1.4-1,2-1.8l1.9,1.5C648.7,398.4,646.4,399.5,643.4,399.5z M643,383.4
	c-1.2,0-2.3,0.5-3.1,1.4c-0.8,0.9-1.4,2.2-1.6,3.8h9v-0.2c-0.1-1.6-0.5-2.8-1.3-3.6C645.3,383.9,644.3,383.4,643,383.4z
	 M656.9,381.2l0.1,2.3c1.4-1.7,3.2-2.6,5.4-2.6c3.8,0,5.7,2.1,5.7,6.4v11.9H665v-11.9c0-1.3-0.3-2.3-0.9-2.9
	c-0.6-0.6-1.5-0.9-2.7-0.9c-1,0-1.9,0.3-2.6,0.8c-0.8,0.5-1.3,1.2-1.8,2.1v12.8H654v-18H656.9z M672,390.1c0-2.8,0.7-5,2-6.6
	c1.3-1.7,3-2.5,5.1-2.5c2.1,0,3.8,0.7,5,2.2v-9.4h3.1v25.5h-2.8l-0.1-1.9c-1.2,1.5-2.9,2.3-5.1,2.3c-2.1,0-3.8-0.9-5.1-2.6
	c-1.3-1.7-2-3.9-2-6.7V390.1z M675.1,390.4c0,2,0.4,3.6,1.3,4.8c0.8,1.1,2,1.7,3.5,1.7c1.9,0,3.4-0.9,4.3-2.6v-8.2
	c-0.9-1.7-2.3-2.5-4.2-2.5c-1.5,0-2.7,0.6-3.5,1.7C675.5,386.4,675.1,388.1,675.1,390.4z M702.4,394.4c0-0.8-0.3-1.5-0.9-1.9
	c-0.6-0.5-1.7-0.9-3.3-1.2c-1.5-0.3-2.8-0.7-3.7-1.2c-0.9-0.5-1.6-1-2-1.7c-0.4-0.6-0.6-1.4-0.6-2.3c0-1.5,0.6-2.7,1.9-3.7
	c1.2-1,2.8-1.5,4.8-1.5c2,0,3.7,0.5,4.9,1.6c1.3,1.1,1.9,2.4,1.9,4h-3.1c0-0.8-0.4-1.6-1.1-2.2c-0.7-0.6-1.6-0.9-2.7-0.9
	c-1.1,0-2,0.2-2.6,0.7c-0.6,0.5-0.9,1.1-0.9,1.9c0,0.7,0.3,1.3,0.9,1.7c0.6,0.4,1.6,0.7,3.2,1.1c1.5,0.3,2.8,0.8,3.7,1.2
	c1,0.5,1.7,1.1,2.1,1.7c0.5,0.7,0.7,1.5,0.7,2.4c0,1.6-0.6,2.9-1.9,3.9c-1.3,1-2.9,1.4-5,1.4c-1.4,0-2.7-0.3-3.8-0.8s-2-1.2-2.6-2.1
	c-0.6-0.9-0.9-1.9-0.9-3h3.1c0.1,1,0.5,1.8,1.2,2.5c0.8,0.6,1.8,0.9,3.1,0.9c1.2,0,2.1-0.2,2.8-0.7
	C702,395.8,702.4,395.2,702.4,394.4z M709.5,397.6c0-0.5,0.2-1,0.5-1.3c0.3-0.4,0.8-0.5,1.4-0.5c0.6,0,1.1,0.2,1.4,0.5
	c0.3,0.4,0.5,0.8,0.5,1.3c0,0.5-0.2,0.9-0.5,1.3c-0.3,0.3-0.8,0.5-1.4,0.5c-0.6,0-1.1-0.2-1.4-0.5
	C709.7,398.5,709.5,398.1,709.5,397.6z"/>
<path class="st3" d="M108.1,328.5h-2.3v-8.1H97v8.1h-2.3v-17.5H97v7.5h8.8v-7.5h2.3V328.5z M111.3,321.9c0-1.3,0.2-2.4,0.7-3.4
	c0.5-1,1.2-1.8,2.1-2.4c0.9-0.6,1.9-0.8,3.1-0.8c1.8,0,3.2,0.6,4.3,1.8c1.1,1.2,1.6,2.8,1.6,4.9v0.2c0,1.3-0.2,2.4-0.7,3.4
	c-0.5,1-1.2,1.8-2.1,2.3c-0.9,0.6-1.9,0.8-3.1,0.8c-1.8,0-3.2-0.6-4.3-1.8c-1.1-1.2-1.6-2.8-1.6-4.9V321.9z M113.5,322.2
	c0,1.4,0.3,2.6,1,3.5c0.7,0.9,1.6,1.3,2.7,1.3c1.1,0,2-0.4,2.7-1.3c0.7-0.9,1-2.1,1-3.7c0-1.4-0.3-2.6-1-3.5
	c-0.7-0.9-1.6-1.3-2.7-1.3c-1.1,0-2,0.4-2.6,1.3C113.8,319.3,113.5,320.6,113.5,322.2z M137.3,325.5l2.5-9.9h2.2l-3.8,13h-1.8
	l-3.2-9.8l-3.1,9.8h-1.8l-3.8-13h2.2l2.6,9.7l3-9.7h1.8L137.3,325.5z M152.5,315.6l0.1,1.4c1-1.1,2.2-1.7,3.8-1.7
	c1.8,0,3,0.7,3.7,2.1c0.4-0.6,1-1.1,1.7-1.5c0.7-0.4,1.5-0.6,2.5-0.6c2.8,0,4.3,1.5,4.3,4.5v8.7h-2.2V320c0-0.9-0.2-1.6-0.6-2.1
	c-0.4-0.5-1.1-0.7-2.1-0.7c-0.8,0-1.5,0.2-2.1,0.7c-0.5,0.5-0.9,1.1-0.9,2v8.6h-2.2V320c0-1.9-0.9-2.8-2.8-2.8c-1.5,0-2.4,0.6-3,1.9
	v9.5h-2.2v-13H152.5z M179.9,327.3c-0.9,1-2.1,1.5-3.8,1.5c-1.4,0-2.4-0.4-3.2-1.2c-0.7-0.8-1.1-2-1.1-3.6v-8.4h2.2v8.4
	c0,2,0.8,2.9,2.4,2.9c1.7,0,2.8-0.6,3.4-1.9v-9.4h2.2v13H180L179.9,327.3z M190.7,327c0.8,0,1.5-0.2,2.1-0.7c0.6-0.5,0.9-1.1,1-1.8
	h2.1c0,0.7-0.3,1.5-0.8,2.1c-0.5,0.7-1.1,1.2-1.9,1.6c-0.8,0.4-1.6,0.6-2.5,0.6c-1.8,0-3.2-0.6-4.2-1.8c-1-1.2-1.6-2.8-1.6-4.8v-0.4
	c0-1.3,0.2-2.4,0.7-3.4c0.5-1,1.1-1.7,2-2.3c0.9-0.5,1.9-0.8,3.1-0.8c1.5,0,2.7,0.4,3.6,1.3c1,0.9,1.5,2,1.5,3.4h-2.1
	c-0.1-0.8-0.4-1.5-1-2.1c-0.6-0.5-1.3-0.8-2.1-0.8c-1.1,0-2,0.4-2.6,1.2c-0.6,0.8-0.9,2-0.9,3.5v0.4c0,1.5,0.3,2.6,0.9,3.5
	C188.7,326.6,189.5,327,190.7,327z M200.5,317.1c1-1.2,2.3-1.8,3.8-1.8c2.7,0,4.1,1.5,4.1,4.6v8.6h-2.2V320c0-0.9-0.2-1.6-0.6-2.1
	c-0.4-0.4-1.1-0.7-2-0.7c-0.7,0-1.4,0.2-1.9,0.6c-0.5,0.4-1,0.9-1.3,1.5v9.2h-2.2v-18.4h2.2V317.1z M222.2,325.3l3-9.7h2.4l-5.2,15
	c-0.8,2.2-2.1,3.2-3.8,3.2l-0.4,0l-0.8-0.2v-1.8l0.6,0c0.8,0,1.3-0.2,1.8-0.5c0.4-0.3,0.8-0.9,1-1.7l0.5-1.3l-4.6-12.8h2.4
	L222.2,325.3z M228.8,321.9c0-1.3,0.2-2.4,0.7-3.4c0.5-1,1.2-1.8,2.1-2.4c0.9-0.6,1.9-0.8,3.1-0.8c1.8,0,3.2,0.6,4.3,1.8
	c1.1,1.2,1.6,2.8,1.6,4.9v0.2c0,1.3-0.2,2.4-0.7,3.4c-0.5,1-1.2,1.8-2.1,2.3c-0.9,0.6-1.9,0.8-3.1,0.8c-1.8,0-3.2-0.6-4.3-1.8
	c-1.1-1.2-1.6-2.8-1.6-4.9V321.9z M231,322.2c0,1.4,0.3,2.6,1,3.5c0.7,0.9,1.6,1.3,2.7,1.3c1.1,0,2-0.4,2.7-1.3c0.7-0.9,1-2.1,1-3.7
	c0-1.4-0.3-2.6-1-3.5c-0.7-0.9-1.6-1.3-2.7-1.3c-1.1,0-2,0.4-2.6,1.3C231.3,319.3,231,320.6,231,322.2z M251.4,327.3
	c-0.9,1-2.1,1.5-3.8,1.5c-1.4,0-2.4-0.4-3.2-1.2c-0.7-0.8-1.1-2-1.1-3.6v-8.4h2.2v8.4c0,2,0.8,2.9,2.4,2.9c1.7,0,2.8-0.6,3.4-1.9
	v-9.4h2.2v13h-2.1L251.4,327.3z M270.6,325.1c0-0.6-0.2-1.1-0.7-1.4c-0.4-0.3-1.2-0.6-2.4-0.9c-1.1-0.2-2-0.5-2.7-0.9
	c-0.7-0.3-1.1-0.7-1.5-1.2c-0.3-0.5-0.5-1-0.5-1.7c0-1.1,0.4-2,1.3-2.7c0.9-0.7,2.1-1.1,3.5-1.1c1.5,0,2.7,0.4,3.6,1.1
	c0.9,0.8,1.4,1.7,1.4,2.9h-2.2c0-0.6-0.3-1.1-0.8-1.6c-0.5-0.4-1.2-0.7-1.9-0.7c-0.8,0-1.4,0.2-1.9,0.5c-0.5,0.4-0.7,0.8-0.7,1.4
	c0,0.5,0.2,0.9,0.6,1.2c0.4,0.3,1.2,0.5,2.3,0.8c1.1,0.2,2,0.5,2.7,0.9c0.7,0.3,1.2,0.8,1.5,1.2c0.3,0.5,0.5,1.1,0.5,1.8
	c0,1.2-0.5,2.1-1.4,2.8c-0.9,0.7-2.1,1-3.6,1c-1,0-2-0.2-2.8-0.6c-0.8-0.4-1.4-0.9-1.9-1.5c-0.4-0.7-0.7-1.4-0.7-2.1h2.2
	c0,0.7,0.3,1.3,0.9,1.8c0.6,0.4,1.3,0.6,2.2,0.6c0.8,0,1.5-0.2,2-0.5C270.3,326.1,270.6,325.7,270.6,325.1z M286.6,322.2
	c0,2-0.5,3.6-1.4,4.8c-0.9,1.2-2.1,1.8-3.7,1.8c-1.6,0-2.8-0.5-3.7-1.5v6.2h-2.2v-18h2l0.1,1.4c0.9-1.1,2.2-1.7,3.8-1.7
	c1.6,0,2.8,0.6,3.7,1.8c0.9,1.2,1.4,2.8,1.4,4.9V322.2z M284.4,322c0-1.5-0.3-2.6-0.9-3.5c-0.6-0.8-1.5-1.3-2.6-1.3
	c-1.3,0-2.3,0.6-3,1.8v6.2c0.7,1.2,1.7,1.8,3,1.8c1.1,0,1.9-0.4,2.5-1.3C284.1,324.9,284.4,323.6,284.4,322z M294.8,328.8
	c-1.8,0-3.2-0.6-4.3-1.7c-1.1-1.2-1.7-2.7-1.7-4.6V322c0-1.3,0.2-2.4,0.7-3.4c0.5-1,1.2-1.8,2.1-2.4c0.9-0.6,1.8-0.9,2.9-0.9
	c1.7,0,3,0.6,3.9,1.7c0.9,1.1,1.4,2.7,1.4,4.8v0.9h-8.8c0,1.3,0.4,2.3,1.1,3.1c0.7,0.8,1.6,1.2,2.7,1.2c0.8,0,1.4-0.2,2-0.5
	c0.5-0.3,1-0.7,1.4-1.3l1.4,1.1C298.6,328,297,328.8,294.8,328.8z M294.5,317.2c-0.9,0-1.6,0.3-2.3,1c-0.6,0.6-1,1.6-1.1,2.7h6.5
	v-0.2c-0.1-1.1-0.4-2-0.9-2.6C296.2,317.5,295.5,317.2,294.5,317.2z M304.6,315.6l0.1,1.6c1-1.2,2.3-1.9,3.9-1.9
	c2.7,0,4.1,1.5,4.1,4.6v8.6h-2.2V320c0-0.9-0.2-1.6-0.6-2.1c-0.4-0.4-1.1-0.7-2-0.7c-0.7,0-1.4,0.2-1.9,0.6c-0.5,0.4-1,0.9-1.3,1.5
	v9.2h-2.2v-13H304.6z M315.5,322c0-2,0.5-3.6,1.4-4.8c0.9-1.2,2.2-1.8,3.7-1.8c1.5,0,2.7,0.5,3.6,1.6v-6.8h2.2v18.4h-2l-0.1-1.4
	c-0.9,1.1-2.1,1.6-3.7,1.6c-1.5,0-2.7-0.6-3.7-1.8c-0.9-1.2-1.4-2.8-1.4-4.8V322z M317.7,322.2c0,1.5,0.3,2.6,0.9,3.5
	c0.6,0.8,1.4,1.2,2.5,1.2c1.4,0,2.4-0.6,3.1-1.9v-6c-0.7-1.2-1.7-1.8-3.1-1.8c-1.1,0-1.9,0.4-2.5,1.3
	C318,319.3,317.7,320.6,317.7,322.2z M335.4,321.9c0-1.3,0.2-2.4,0.7-3.4c0.5-1,1.2-1.8,2.1-2.4c0.9-0.6,1.9-0.8,3.1-0.8
	c1.8,0,3.2,0.6,4.3,1.8c1.1,1.2,1.6,2.8,1.6,4.9v0.2c0,1.3-0.2,2.4-0.7,3.4c-0.5,1-1.2,1.8-2.1,2.3c-0.9,0.6-1.9,0.8-3.1,0.8
	c-1.8,0-3.2-0.6-4.3-1.8c-1.1-1.2-1.6-2.8-1.6-4.9V321.9z M337.6,322.2c0,1.4,0.3,2.6,1,3.5c0.7,0.9,1.6,1.3,2.7,1.3
	c1.1,0,2-0.4,2.7-1.3c0.7-0.9,1-2.1,1-3.7c0-1.4-0.3-2.6-1-3.5c-0.7-0.9-1.6-1.3-2.7-1.3c-1.1,0-2,0.4-2.6,1.3
	C337.9,319.3,337.6,320.6,337.6,322.2z M352,315.6l0.1,1.6c1-1.2,2.3-1.9,3.9-1.9c2.7,0,4.1,1.5,4.1,4.6v8.6h-2.2V320
	c0-0.9-0.2-1.6-0.6-2.1c-0.4-0.4-1.1-0.7-2-0.7c-0.7,0-1.4,0.2-1.9,0.6c-0.5,0.4-1,0.9-1.3,1.5v9.2h-2.2v-13H352z M377.1,325.1
	c0-0.6-0.2-1.1-0.7-1.4c-0.4-0.3-1.2-0.6-2.4-0.9c-1.1-0.2-2-0.5-2.7-0.9c-0.7-0.3-1.1-0.7-1.5-1.2c-0.3-0.5-0.5-1-0.5-1.7
	c0-1.1,0.4-2,1.3-2.7c0.9-0.7,2.1-1.1,3.5-1.1c1.5,0,2.7,0.4,3.6,1.1c0.9,0.8,1.4,1.7,1.4,2.9H377c0-0.6-0.3-1.1-0.8-1.6
	c-0.5-0.4-1.2-0.7-1.9-0.7c-0.8,0-1.4,0.2-1.9,0.5c-0.5,0.4-0.7,0.8-0.7,1.4c0,0.5,0.2,0.9,0.6,1.2c0.4,0.3,1.2,0.5,2.3,0.8
	c1.1,0.2,2,0.5,2.7,0.9c0.7,0.3,1.2,0.8,1.5,1.2c0.3,0.5,0.5,1.1,0.5,1.8c0,1.2-0.5,2.1-1.4,2.8c-0.9,0.7-2.1,1-3.6,1
	c-1,0-2-0.2-2.8-0.6c-0.8-0.4-1.4-0.9-1.9-1.5c-0.4-0.7-0.7-1.4-0.7-2.1h2.2c0,0.7,0.3,1.3,0.9,1.8c0.6,0.4,1.3,0.6,2.2,0.6
	c0.8,0,1.5-0.2,2-0.5C376.9,326.1,377.1,325.7,377.1,325.1z M381.6,321.9c0-1.3,0.2-2.4,0.7-3.4c0.5-1,1.2-1.8,2.1-2.4
	c0.9-0.6,1.9-0.8,3.1-0.8c1.8,0,3.2,0.6,4.3,1.8c1.1,1.2,1.6,2.8,1.6,4.9v0.2c0,1.3-0.2,2.4-0.7,3.4c-0.5,1-1.2,1.8-2.1,2.3
	c-0.9,0.6-1.9,0.8-3.1,0.8c-1.8,0-3.2-0.6-4.3-1.8c-1.1-1.2-1.6-2.8-1.6-4.9V321.9z M383.9,322.2c0,1.4,0.3,2.6,1,3.5
	c0.7,0.9,1.6,1.3,2.7,1.3c1.1,0,2-0.4,2.7-1.3c0.7-0.9,1-2.1,1-3.7c0-1.4-0.3-2.6-1-3.5c-0.7-0.9-1.6-1.3-2.7-1.3
	c-1.1,0-2,0.4-2.6,1.3C384.2,319.3,383.9,320.6,383.9,322.2z M401.4,327c0.8,0,1.5-0.2,2.1-0.7c0.6-0.5,0.9-1.1,1-1.8h2.1
	c0,0.7-0.3,1.5-0.8,2.1c-0.5,0.7-1.1,1.2-1.9,1.6c-0.8,0.4-1.6,0.6-2.5,0.6c-1.8,0-3.2-0.6-4.2-1.8c-1-1.2-1.6-2.8-1.6-4.8v-0.4
	c0-1.3,0.2-2.4,0.7-3.4c0.5-1,1.1-1.7,2-2.3c0.9-0.5,1.9-0.8,3.1-0.8c1.5,0,2.7,0.4,3.6,1.3c1,0.9,1.5,2,1.5,3.4h-2.1
	c-0.1-0.8-0.4-1.5-1-2.1c-0.6-0.5-1.3-0.8-2.1-0.8c-1.1,0-2,0.4-2.6,1.2c-0.6,0.8-0.9,2-0.9,3.5v0.4c0,1.5,0.3,2.6,0.9,3.5
	C399.4,326.6,400.3,327,401.4,327z M411.5,328.5h-2.2v-13h2.2V328.5z M409.1,312.1c0-0.4,0.1-0.7,0.3-0.9c0.2-0.2,0.6-0.4,1-0.4
	c0.4,0,0.8,0.1,1,0.4c0.2,0.2,0.3,0.6,0.3,0.9c0,0.4-0.1,0.7-0.3,0.9c-0.2,0.2-0.6,0.4-1,0.4c-0.4,0-0.8-0.1-1-0.4
	C409.2,312.8,409.1,312.5,409.1,312.1z M423.1,328.5c-0.1-0.3-0.2-0.7-0.3-1.4c-1,1.1-2.3,1.6-3.7,1.6c-1.3,0-2.3-0.4-3.2-1.1
	c-0.8-0.7-1.2-1.6-1.2-2.8c0-1.3,0.5-2.4,1.5-3.1c1-0.8,2.5-1.1,4.3-1.1h2.2v-1c0-0.8-0.2-1.4-0.7-1.8c-0.5-0.5-1.1-0.7-2.1-0.7
	c-0.8,0-1.5,0.2-2,0.6c-0.5,0.4-0.8,0.9-0.8,1.5h-2.2c0-0.6,0.2-1.3,0.7-1.9c0.5-0.6,1.1-1.1,1.9-1.4c0.8-0.4,1.7-0.5,2.6-0.5
	c1.5,0,2.7,0.4,3.5,1.1c0.8,0.7,1.3,1.8,1.3,3.1v6c0,1.2,0.2,2.1,0.5,2.8v0.2H423.1z M419.4,326.9c0.7,0,1.4-0.2,2-0.5
	c0.6-0.4,1.1-0.8,1.4-1.4v-2.7H421c-2.7,0-4.1,0.8-4.1,2.4c0,0.7,0.2,1.2,0.7,1.6C418.1,326.7,418.7,326.9,419.4,326.9z
	 M430.8,328.5h-2.2v-18.4h2.2V328.5z M442.5,315.6l0.1,1.4c1-1.1,2.2-1.7,3.8-1.7c1.8,0,3,0.7,3.7,2.1c0.4-0.6,1-1.1,1.7-1.5
	c0.7-0.4,1.5-0.6,2.5-0.6c2.8,0,4.3,1.5,4.3,4.5v8.7h-2.2V320c0-0.9-0.2-1.6-0.6-2.1c-0.4-0.5-1.1-0.7-2.1-0.7c-0.8,0-1.5,0.2-2,0.7
	c-0.5,0.5-0.9,1.1-0.9,2v8.6h-2.2V320c0-1.9-0.9-2.8-2.8-2.8c-1.5,0-2.4,0.6-3,1.9v9.5h-2.2v-13H442.5z M467.4,328.8
	c-1.8,0-3.2-0.6-4.3-1.7c-1.1-1.2-1.7-2.7-1.7-4.6V322c0-1.3,0.2-2.4,0.7-3.4c0.5-1,1.2-1.8,2.1-2.4c0.9-0.6,1.8-0.9,2.9-0.9
	c1.7,0,3,0.6,3.9,1.7c0.9,1.1,1.4,2.7,1.4,4.8v0.9h-8.8c0,1.3,0.4,2.3,1.1,3.1c0.7,0.8,1.6,1.2,2.7,1.2c0.8,0,1.4-0.2,2-0.5
	c0.5-0.3,1-0.7,1.4-1.3l1.4,1.1C471.2,328,469.5,328.8,467.4,328.8z M467.1,317.2c-0.9,0-1.6,0.3-2.3,1c-0.6,0.6-1,1.6-1.1,2.7h6.5
	v-0.2c-0.1-1.1-0.4-2-0.9-2.6C468.8,317.5,468,317.2,467.1,317.2z M474.5,322c0-2,0.5-3.6,1.4-4.8c0.9-1.2,2.2-1.8,3.7-1.8
	c1.5,0,2.7,0.5,3.6,1.6v-6.8h2.2v18.4h-2l-0.1-1.4c-0.9,1.1-2.1,1.6-3.7,1.6c-1.5,0-2.7-0.6-3.7-1.8c-0.9-1.2-1.4-2.8-1.4-4.8V322z
	 M476.7,322.2c0,1.5,0.3,2.6,0.9,3.5c0.6,0.8,1.4,1.2,2.5,1.2c1.4,0,2.4-0.6,3.1-1.9v-6c-0.7-1.2-1.7-1.8-3.1-1.8
	c-1.1,0-1.9,0.4-2.5,1.3C477,319.3,476.7,320.6,476.7,322.2z M491.3,328.5h-2.2v-13h2.2V328.5z M488.9,312.1c0-0.4,0.1-0.7,0.3-0.9
	c0.2-0.2,0.6-0.4,1-0.4c0.4,0,0.8,0.1,1,0.4c0.2,0.2,0.3,0.6,0.3,0.9c0,0.4-0.1,0.7-0.3,0.9c-0.2,0.2-0.6,0.4-1,0.4
	c-0.4,0-0.8-0.1-1-0.4C489,312.8,488.9,312.5,488.9,312.1z M502.8,328.5c-0.1-0.3-0.2-0.7-0.3-1.4c-1,1.1-2.3,1.6-3.7,1.6
	c-1.3,0-2.3-0.4-3.2-1.1c-0.8-0.7-1.2-1.6-1.2-2.8c0-1.3,0.5-2.4,1.5-3.1c1-0.8,2.5-1.1,4.3-1.1h2.2v-1c0-0.8-0.2-1.4-0.7-1.8
	c-0.5-0.5-1.1-0.7-2-0.7c-0.8,0-1.5,0.2-2,0.6c-0.5,0.4-0.8,0.9-0.8,1.5h-2.2c0-0.6,0.2-1.3,0.7-1.9c0.5-0.6,1.1-1.1,1.9-1.4
	c0.8-0.4,1.7-0.5,2.6-0.5c1.5,0,2.7,0.4,3.5,1.1c0.8,0.7,1.3,1.8,1.3,3.1v6c0,1.2,0.2,2.1,0.5,2.8v0.2H502.8z M499.2,326.9
	c0.7,0,1.4-0.2,2-0.5c0.6-0.4,1.1-0.8,1.4-1.4v-2.7h-1.7c-2.7,0-4.1,0.8-4.1,2.4c0,0.7,0.2,1.2,0.7,1.6
	C497.8,326.7,498.4,326.9,499.2,326.9z M525.2,322.2c0,2-0.5,3.6-1.4,4.8c-0.9,1.2-2.1,1.8-3.7,1.8c-1.6,0-2.8-0.5-3.7-1.5v6.2h-2.2
	v-18h2l0.1,1.4c0.9-1.1,2.2-1.7,3.8-1.7c1.6,0,2.8,0.6,3.7,1.8c0.9,1.2,1.4,2.8,1.4,4.9V322.2z M523,322c0-1.5-0.3-2.6-0.9-3.5
	c-0.6-0.8-1.5-1.3-2.6-1.3c-1.3,0-2.3,0.6-3,1.8v6.2c0.7,1.2,1.7,1.8,3,1.8c1.1,0,1.9-0.4,2.5-1.3C522.7,324.9,523,323.6,523,322z
	 M533.4,328.8c-1.8,0-3.2-0.6-4.3-1.7c-1.1-1.2-1.7-2.7-1.7-4.6V322c0-1.3,0.2-2.4,0.7-3.4c0.5-1,1.2-1.8,2.1-2.4
	c0.9-0.6,1.8-0.9,2.9-0.9c1.7,0,3,0.6,3.9,1.7c0.9,1.1,1.4,2.7,1.4,4.8v0.9h-8.8c0,1.3,0.4,2.3,1.1,3.1c0.7,0.8,1.6,1.2,2.7,1.2
	c0.8,0,1.4-0.2,2-0.5c0.5-0.3,1-0.7,1.4-1.3l1.4,1.1C537.2,328,535.6,328.8,533.4,328.8z M533.2,317.2c-0.9,0-1.6,0.3-2.3,1
	c-0.6,0.6-1,1.6-1.1,2.7h6.5v-0.2c-0.1-1.1-0.4-2-0.9-2.6C534.8,317.5,534.1,317.2,533.2,317.2z M547.3,317.6
	c-0.3-0.1-0.7-0.1-1.1-0.1c-1.5,0-2.4,0.6-3,1.9v9.2h-2.2v-13h2.2l0,1.5c0.7-1.2,1.8-1.7,3.1-1.7c0.4,0,0.8,0.1,1,0.2V317.6z
	 M554.9,322c0-2,0.5-3.6,1.4-4.8c0.9-1.2,2.2-1.8,3.7-1.8c1.5,0,2.7,0.5,3.6,1.6v-6.8h2.2v18.4h-2l-0.1-1.4
	c-0.9,1.1-2.1,1.6-3.7,1.6c-1.5,0-2.7-0.6-3.7-1.8c-0.9-1.2-1.4-2.8-1.4-4.8V322z M557.2,322.2c0,1.5,0.3,2.6,0.9,3.5
	c0.6,0.8,1.4,1.2,2.5,1.2c1.4,0,2.4-0.6,3.1-1.9v-6c-0.7-1.2-1.7-1.8-3.1-1.8c-1.1,0-1.9,0.4-2.5,1.3S557.2,320.6,557.2,322.2z
	 M577.3,328.5c-0.1-0.3-0.2-0.7-0.3-1.4c-1,1.1-2.3,1.6-3.7,1.6c-1.3,0-2.3-0.4-3.2-1.1c-0.8-0.7-1.2-1.6-1.2-2.8
	c0-1.3,0.5-2.4,1.5-3.1c1-0.8,2.5-1.1,4.3-1.1h2.2v-1c0-0.8-0.2-1.4-0.7-1.8c-0.5-0.5-1.1-0.7-2.1-0.7c-0.8,0-1.5,0.2-2,0.6
	c-0.5,0.4-0.8,0.9-0.8,1.5h-2.2c0-0.6,0.2-1.3,0.7-1.9c0.5-0.6,1.1-1.1,1.9-1.4c0.8-0.4,1.7-0.5,2.6-0.5c1.5,0,2.7,0.4,3.5,1.1
	c0.8,0.7,1.3,1.8,1.3,3.1v6c0,1.2,0.2,2.1,0.5,2.8v0.2H577.3z M573.7,326.9c0.7,0,1.4-0.2,2-0.5c0.6-0.4,1.1-0.8,1.4-1.4v-2.7h-1.7
	c-2.7,0-4.1,0.8-4.1,2.4c0,0.7,0.2,1.2,0.7,1.6C572.3,326.7,572.9,326.9,573.7,326.9z M586.7,325.3l3-9.7h2.4l-5.2,15
	c-0.8,2.2-2.1,3.2-3.8,3.2l-0.4,0l-0.8-0.2v-1.8l0.6,0c0.8,0,1.3-0.2,1.7-0.5c0.4-0.3,0.8-0.9,1-1.7l0.5-1.3l-4.6-12.8h2.4
	L586.7,325.3z M596.7,323.6c0-1,0.1-1.7,0.3-2.3c0.2-0.6,0.6-1.2,1.2-1.8l1.6-1.6c0.7-0.8,1-1.6,1-2.4c0-0.8-0.2-1.5-0.7-2
	c-0.4-0.5-1.1-0.7-1.9-0.7c-0.8,0-1.5,0.2-2,0.6c-0.5,0.4-0.7,1-0.7,1.7h-2.2c0-1.3,0.5-2.3,1.4-3.1c0.9-0.8,2.1-1.2,3.5-1.2
	c1.5,0,2.7,0.4,3.5,1.2c0.8,0.8,1.3,1.9,1.3,3.3c0,1.4-0.6,2.8-1.9,4.1l-1.3,1.3c-0.6,0.6-0.9,1.6-0.9,2.8H596.7z M596.6,327.4
	c0-0.4,0.1-0.7,0.3-0.9c0.2-0.2,0.6-0.4,1-0.4c0.4,0,0.8,0.1,1,0.4c0.2,0.2,0.3,0.5,0.3,0.9c0,0.4-0.1,0.7-0.3,0.9
	c-0.2,0.2-0.6,0.3-1,0.3c-0.4,0-0.8-0.1-1-0.3C596.7,328.1,596.6,327.8,596.6,327.4z"/>
<path class="st0" d="M80,39.2h732.1v75.7H80V39.2z"/>
<path class="st2" d="M124.9,78.4c-2.7-0.8-4.7-1.7-6-2.9c-1.2-1.2-1.9-2.6-1.9-4.2c0-1.9,0.8-3.5,2.3-4.7c1.5-1.3,3.5-1.9,5.9-1.9
	c1.7,0,3.1,0.3,4.4,1c1.3,0.6,2.3,1.5,3,2.7c0.7,1.1,1.1,2.4,1.1,3.7h-3.2c0-1.5-0.5-2.6-1.4-3.4c-0.9-0.8-2.2-1.3-3.9-1.3
	c-1.6,0-2.8,0.3-3.7,1c-0.9,0.7-1.3,1.6-1.3,2.9c0,1,0.4,1.8,1.2,2.5c0.8,0.7,2.3,1.3,4.3,1.9c2,0.6,3.6,1.2,4.7,1.9
	c1.1,0.7,2,1.5,2.5,2.4c0.6,0.9,0.8,2,0.8,3.2c0,2-0.8,3.5-2.3,4.7c-1.5,1.2-3.6,1.8-6.1,1.8c-1.7,0-3.2-0.3-4.6-0.9
	c-1.4-0.6-2.5-1.5-3.3-2.6c-0.8-1.1-1.2-2.4-1.2-3.8h3.2c0,1.5,0.5,2.6,1.6,3.5c1.1,0.8,2.5,1.3,4.3,1.3c1.7,0,3-0.3,3.9-1
	c0.9-0.7,1.3-1.6,1.3-2.8c0-1.2-0.4-2.1-1.2-2.7C128.6,79.7,127.1,79.1,124.9,78.4z M145,89.5c-2.4,0-4.4-0.8-5.9-2.4
	c-1.5-1.6-2.3-3.7-2.3-6.4v-0.6c0-1.8,0.3-3.4,1-4.8c0.7-1.4,1.6-2.5,2.9-3.3c1.2-0.8,2.6-1.2,4-1.2c2.3,0,4.1,0.8,5.4,2.3
	c1.3,1.5,1.9,3.7,1.9,6.6v1.3h-12.2c0,1.8,0.6,3.2,1.5,4.3c1,1.1,2.3,1.6,3.8,1.6c1.1,0,2-0.2,2.8-0.7c0.8-0.4,1.4-1,2-1.8l1.9,1.5
	C150.2,88.4,148,89.5,145,89.5z M144.6,73.4c-1.2,0-2.3,0.5-3.1,1.4c-0.8,0.9-1.4,2.2-1.6,3.8h9v-0.2c-0.1-1.6-0.5-2.8-1.3-3.6
	C146.9,73.9,145.9,73.4,144.6,73.4z M162.7,87c1.1,0,2.1-0.3,2.9-1c0.8-0.7,1.3-1.5,1.4-2.5h2.9c-0.1,1-0.4,2-1.1,2.9
	c-0.7,0.9-1.5,1.7-2.6,2.2c-1.1,0.6-2.2,0.8-3.5,0.8c-2.4,0-4.4-0.8-5.8-2.4c-1.4-1.6-2.2-3.9-2.2-6.7v-0.5c0-1.7,0.3-3.3,1-4.7
	c0.6-1.4,1.6-2.4,2.8-3.2c1.2-0.8,2.6-1.1,4.3-1.1c2,0,3.7,0.6,5,1.8c1.3,1.2,2.1,2.8,2.1,4.7H167c-0.1-1.2-0.5-2.1-1.3-2.9
	c-0.8-0.8-1.8-1.1-2.9-1.1c-1.6,0-2.8,0.6-3.6,1.7c-0.9,1.1-1.3,2.7-1.3,4.9v0.6c0,2.1,0.4,3.7,1.3,4.8
	C159.9,86.5,161.1,87,162.7,87z M172.5,80.1c0-1.8,0.3-3.3,1-4.7c0.7-1.4,1.7-2.5,2.9-3.3c1.2-0.8,2.6-1.1,4.2-1.1
	c2.4,0,4.4,0.8,5.9,2.5c1.5,1.7,2.3,3.9,2.3,6.8v0.2c0,1.7-0.3,3.3-1,4.7c-0.7,1.4-1.6,2.5-2.9,3.2c-1.2,0.8-2.7,1.2-4.3,1.2
	c-2.4,0-4.4-0.8-5.9-2.5c-1.5-1.7-2.3-3.9-2.3-6.7V80.1z M175.6,80.4c0,2,0.5,3.6,1.4,4.8c0.9,1.2,2.2,1.8,3.7,1.8
	c1.6,0,2.8-0.6,3.7-1.8c0.9-1.2,1.4-2.9,1.4-5.1c0-2-0.5-3.6-1.4-4.8c-0.9-1.2-2.2-1.8-3.7-1.8c-1.5,0-2.7,0.6-3.7,1.8
	C176.1,76.4,175.6,78.2,175.6,80.4z M195.6,71.2l0.1,2.3c1.4-1.7,3.2-2.6,5.4-2.6c3.8,0,5.7,2.1,5.7,6.4v11.9h-3.1V77.3
	c0-1.3-0.3-2.3-0.9-2.9c-0.6-0.6-1.5-0.9-2.7-0.9c-1,0-1.9,0.3-2.6,0.8c-0.8,0.5-1.3,1.2-1.8,2.1v12.8h-3.1v-18H195.6z M210.7,80.1
	c0-2.8,0.7-5,2-6.6c1.3-1.7,3-2.5,5.1-2.5c2.1,0,3.8,0.7,5,2.2v-9.4h3.1v25.5H223l-0.1-1.9c-1.2,1.5-2.9,2.3-5.1,2.3
	c-2.1,0-3.8-0.9-5.1-2.6c-1.3-1.7-2-3.9-2-6.7V80.1z M213.8,80.4c0,2,0.4,3.6,1.3,4.8c0.8,1.2,2,1.7,3.5,1.7c1.9,0,3.4-0.9,4.3-2.6
	v-8.2c-0.9-1.7-2.3-2.5-4.2-2.5c-1.5,0-2.7,0.6-3.5,1.7C214.2,76.4,213.8,78.1,213.8,80.4z M241.7,89.2c-0.2-0.4-0.3-1-0.4-1.9
	c-1.4,1.5-3.1,2.2-5.1,2.2c-1.8,0-3.2-0.5-4.4-1.5c-1.1-1-1.7-2.3-1.7-3.8c0-1.9,0.7-3.3,2.1-4.3c1.4-1,3.4-1.6,6-1.6h3v-1.4
	c0-1.1-0.3-1.9-1-2.6c-0.6-0.6-1.6-1-2.8-1c-1.1,0-2,0.3-2.8,0.8c-0.7,0.6-1.1,1.2-1.1,2h-3.1c0-0.9,0.3-1.8,0.9-2.6
	c0.6-0.8,1.5-1.5,2.6-2c1.1-0.5,2.3-0.7,3.6-0.7c2.1,0,3.7,0.5,4.9,1.6c1.2,1,1.8,2.5,1.8,4.3V85c0,1.6,0.2,3,0.6,3.9v0.3H241.7z
	 M236.6,86.9c1,0,1.9-0.2,2.7-0.7c0.9-0.5,1.5-1.1,1.9-1.9v-3.7h-2.4c-3.8,0-5.6,1.1-5.6,3.3c0,1,0.3,1.7,1,2.3
	C234.8,86.6,235.6,86.9,236.6,86.9z M257.8,74c-0.5-0.1-1-0.1-1.5-0.1c-2,0-3.4,0.9-4.1,2.6v12.7h-3.1v-18h3l0,2.1
	c1-1.6,2.4-2.4,4.3-2.4c0.6,0,1.1,0.1,1.4,0.2V74z M266.8,84.7l4.2-13.5h3.3L267.1,92c-1.1,3-2.9,4.5-5.3,4.5l-0.6,0l-1.1-0.2v-2.5
	l0.8,0.1c1,0,1.8-0.2,2.4-0.6c0.6-0.4,1.1-1.2,1.4-2.3l0.7-1.8L259,71.2h3.4L266.8,84.7z M299.6,78h-10.5v8.6h12.2v2.6H286V65h15.2
	v2.6h-12v7.8h10.5V78z M303.7,80.1c0-2.8,0.7-5,2-6.6c1.3-1.7,3-2.5,5.1-2.5c2.1,0,3.8,0.7,5,2.2v-9.4h3.1v25.5H316l-0.1-1.9
	c-1.2,1.5-2.9,2.3-5.1,2.3c-2.1,0-3.8-0.9-5.1-2.6c-1.3-1.7-2-3.9-2-6.7V80.1z M306.8,80.4c0,2,0.4,3.6,1.3,4.8
	c0.8,1.2,2,1.7,3.5,1.7c1.9,0,3.4-0.9,4.3-2.6v-8.2c-0.9-1.7-2.3-2.5-4.2-2.5c-1.5,0-2.7,0.6-3.5,1.7S306.8,78.1,306.8,80.4z
	 M334.7,87.4c-1.2,1.4-2.9,2.1-5.3,2.1c-1.9,0-3.4-0.6-4.4-1.7c-1-1.1-1.5-2.8-1.5-4.9V71.2h3.1v11.6c0,2.7,1.1,4.1,3.3,4.1
	c2.3,0,3.9-0.9,4.7-2.6V71.2h3.1v18h-2.9L334.7,87.4z M349.6,87c1.1,0,2.1-0.3,2.9-1c0.8-0.7,1.3-1.5,1.4-2.5h2.9
	c-0.1,1-0.4,2-1.1,2.9c-0.7,0.9-1.5,1.7-2.6,2.2c-1.1,0.6-2.2,0.8-3.5,0.8c-2.4,0-4.4-0.8-5.8-2.4c-1.4-1.6-2.2-3.9-2.2-6.7v-0.5
	c0-1.7,0.3-3.3,1-4.7c0.6-1.4,1.6-2.4,2.8-3.2c1.2-0.8,2.6-1.1,4.3-1.1c2,0,3.7,0.6,5,1.8c1.3,1.2,2.1,2.8,2.1,4.7h-2.9
	c-0.1-1.2-0.5-2.1-1.3-2.9c-0.8-0.8-1.8-1.1-2.9-1.1c-1.6,0-2.8,0.6-3.6,1.7c-0.9,1.1-1.3,2.7-1.3,4.9v0.6c0,2.1,0.4,3.7,1.3,4.8
	C346.8,86.5,348,87,349.6,87z M371.3,89.2c-0.2-0.4-0.3-1-0.4-1.9c-1.4,1.5-3.1,2.2-5.1,2.2c-1.8,0-3.2-0.5-4.4-1.5
	c-1.1-1-1.7-2.3-1.7-3.8c0-1.9,0.7-3.3,2.1-4.3c1.4-1,3.4-1.6,6-1.6h3v-1.4c0-1.1-0.3-1.9-1-2.6c-0.6-0.6-1.6-1-2.8-1
	c-1.1,0-2,0.3-2.8,0.8s-1.1,1.2-1.1,2H360c0-0.9,0.3-1.8,0.9-2.6c0.6-0.8,1.5-1.5,2.6-2c1.1-0.5,2.3-0.7,3.6-0.7
	c2.1,0,3.7,0.5,4.9,1.6c1.2,1,1.8,2.5,1.8,4.3V85c0,1.6,0.2,3,0.6,3.9v0.3H371.3z M366.2,86.9c1,0,1.9-0.2,2.7-0.7
	c0.9-0.5,1.5-1.1,1.9-1.9v-3.7h-2.4c-3.8,0-5.6,1.1-5.6,3.3c0,1,0.3,1.7,1,2.3S365.2,86.9,366.2,86.9z M382.8,66.9v4.3h3.4v2.4h-3.4
	v11.1c0,0.7,0.1,1.3,0.4,1.6c0.3,0.4,0.8,0.5,1.5,0.5c0.4,0,0.8-0.1,1.5-0.2v2.5c-0.8,0.2-1.6,0.3-2.4,0.3c-1.4,0-2.4-0.4-3.1-1.2
	c-0.7-0.8-1-2-1-3.5V73.6h-3.3v-2.4h3.3v-4.3H382.8z M393.1,89.2h-3.1v-18h3.1V89.2z M389.8,66.5c0-0.5,0.1-0.9,0.4-1.3
	c0.3-0.3,0.8-0.5,1.4-0.5c0.6,0,1.1,0.2,1.4,0.5c0.3,0.3,0.5,0.8,0.5,1.3c0,0.5-0.2,0.9-0.5,1.2c-0.3,0.3-0.8,0.5-1.4,0.5
	c-0.6,0-1.1-0.2-1.4-0.5C390,67.4,389.8,67,389.8,66.5z M397.2,80.1c0-1.8,0.3-3.3,1-4.7c0.7-1.4,1.7-2.5,2.9-3.3
	c1.2-0.8,2.6-1.1,4.2-1.1c2.4,0,4.4,0.8,5.9,2.5c1.5,1.7,2.3,3.9,2.3,6.8v0.2c0,1.7-0.3,3.3-1,4.7c-0.7,1.4-1.6,2.5-2.9,3.2
	c-1.2,0.8-2.7,1.2-4.3,1.2c-2.4,0-4.4-0.8-5.9-2.5c-1.5-1.7-2.3-3.9-2.3-6.7V80.1z M400.3,80.4c0,2,0.5,3.6,1.4,4.8
	c0.9,1.2,2.2,1.8,3.7,1.8c1.6,0,2.8-0.6,3.7-1.8c0.9-1.2,1.4-2.9,1.4-5.1c0-2-0.5-3.6-1.4-4.8c-0.9-1.2-2.2-1.8-3.7-1.8
	c-1.5,0-2.7,0.6-3.7,1.8C400.8,76.4,400.3,78.2,400.3,80.4z M420.3,71.2l0.1,2.3c1.4-1.7,3.2-2.6,5.4-2.6c3.8,0,5.7,2.1,5.7,6.4
	v11.9h-3.1V77.3c0-1.3-0.3-2.3-0.9-2.9c-0.6-0.6-1.5-0.9-2.7-0.9c-1,0-1.9,0.3-2.6,0.8c-0.8,0.5-1.3,1.2-1.8,2.1v12.8h-3.1v-18
	H420.3z"/>
<path class="st3" d="M95.4,16.5l0.3,2.3l0.5-2.1l3.5-12.2h1.9l3.4,12.2l0.5,2.1l0.4-2.3l2.7-11.9h2.3L106.6,22h-2.1l-3.6-12.7
	L100.6,8l-0.3,1.3L96.6,22h-2.1L90.3,4.5h2.3L95.4,16.5z M115.3,10.6c1-1.2,2.3-1.8,3.8-1.8c2.7,0,4.1,1.5,4.1,4.6V22H121v-8.6
	c0-0.9-0.2-1.6-0.6-2.1c-0.4-0.4-1.1-0.7-2-0.7c-0.7,0-1.4,0.2-1.9,0.6c-0.5,0.4-1,0.9-1.3,1.5V22h-2.2V3.6h2.2V10.6z M132,22.2
	c-1.8,0-3.2-0.6-4.3-1.7c-1.1-1.2-1.7-2.7-1.7-4.6v-0.4c0-1.3,0.2-2.4,0.7-3.4c0.5-1,1.2-1.8,2.1-2.4c0.9-0.6,1.8-0.9,2.9-0.9
	c1.7,0,3,0.6,3.9,1.7c0.9,1.1,1.4,2.7,1.4,4.8v0.9h-8.8c0,1.3,0.4,2.3,1.1,3.1c0.7,0.8,1.6,1.2,2.7,1.2c0.8,0,1.4-0.2,2-0.5
	c0.5-0.3,1-0.7,1.4-1.3l1.4,1.1C135.8,21.4,134.1,22.2,132,22.2z M131.7,10.6c-0.9,0-1.6,0.3-2.3,1c-0.6,0.6-1,1.6-1.1,2.7h6.5v-0.2
	c-0.1-1.1-0.4-2-0.9-2.6C133.3,10.9,132.6,10.6,131.7,10.6z M145.9,11c-0.3-0.1-0.7-0.1-1.1-0.1c-1.5,0-2.4,0.6-3,1.9V22h-2.2V9h2.2
	l0,1.5c0.7-1.2,1.8-1.7,3.1-1.7c0.4,0,0.8,0.1,1,0.2V11z M153.1,22.2c-1.8,0-3.2-0.6-4.3-1.7c-1.1-1.2-1.7-2.7-1.7-4.6v-0.4
	c0-1.3,0.2-2.4,0.7-3.4c0.5-1,1.2-1.8,2.1-2.4c0.9-0.6,1.8-0.9,2.9-0.9c1.7,0,3,0.6,3.9,1.7c0.9,1.1,1.4,2.7,1.4,4.8v0.9h-8.8
	c0,1.3,0.4,2.3,1.1,3.1c0.7,0.8,1.6,1.2,2.7,1.2c0.8,0,1.4-0.2,2-0.5c0.5-0.3,1-0.7,1.4-1.3l1.4,1.1
	C156.9,21.4,155.2,22.2,153.1,22.2z M152.8,10.6c-0.9,0-1.6,0.3-2.3,1c-0.6,0.6-1,1.6-1.1,2.7h6.5v-0.2c-0.1-1.1-0.4-2-0.9-2.6
	C154.4,10.9,153.7,10.6,152.8,10.6z M174.8,22c-0.1-0.3-0.2-0.7-0.3-1.4c-1,1.1-2.3,1.6-3.7,1.6c-1.3,0-2.3-0.4-3.2-1.1
	c-0.8-0.7-1.2-1.6-1.2-2.8c0-1.4,0.5-2.4,1.5-3.1c1-0.8,2.5-1.1,4.3-1.1h2.2v-1c0-0.8-0.2-1.4-0.7-1.8c-0.5-0.5-1.1-0.7-2.1-0.7
	c-0.8,0-1.5,0.2-2,0.6c-0.5,0.4-0.8,0.9-0.8,1.5h-2.2c0-0.6,0.2-1.3,0.7-1.9c0.5-0.6,1.1-1.1,1.9-1.4c0.8-0.4,1.7-0.5,2.6-0.5
	c1.5,0,2.7,0.4,3.5,1.1c0.8,0.7,1.3,1.8,1.3,3.1v6c0,1.2,0.2,2.1,0.5,2.8V22H174.8z M171.1,20.3c0.7,0,1.4-0.2,2-0.5
	c0.6-0.4,1.1-0.8,1.4-1.4v-2.7h-1.7c-2.7,0-4.1,0.8-4.1,2.4c0,0.7,0.2,1.2,0.7,1.6C169.8,20.1,170.4,20.3,171.1,20.3z M186.4,11
	c-0.3-0.1-0.7-0.1-1.1-0.1c-1.5,0-2.4,0.6-3,1.9V22h-2.2V9h2.2l0,1.5c0.7-1.2,1.8-1.7,3.1-1.7c0.4,0,0.8,0.1,1,0.2V11z M193.6,22.2
	c-1.8,0-3.2-0.6-4.3-1.7c-1.1-1.2-1.7-2.7-1.7-4.6v-0.4c0-1.3,0.2-2.4,0.7-3.4c0.5-1,1.2-1.8,2.1-2.4c0.9-0.6,1.8-0.9,2.9-0.9
	c1.7,0,3,0.6,3.9,1.7c0.9,1.1,1.4,2.7,1.4,4.8v0.9h-8.8c0,1.3,0.4,2.3,1.1,3.1c0.7,0.8,1.6,1.2,2.7,1.2c0.8,0,1.4-0.2,2-0.5
	c0.5-0.3,1-0.7,1.4-1.3l1.4,1.1C197.4,21.4,195.8,22.2,193.6,22.2z M193.3,10.6c-0.9,0-1.6,0.3-2.3,1c-0.6,0.6-1,1.6-1.1,2.7h6.5
	v-0.2c-0.1-1.1-0.4-2-0.9-2.6C195,10.9,194.2,10.6,193.3,10.6z M211.6,18.8l3-9.7h2.4l-5.2,15c-0.8,2.2-2.1,3.2-3.8,3.2l-0.4,0
	l-0.8-0.2v-1.8l0.6,0c0.8,0,1.3-0.2,1.8-0.5c0.4-0.3,0.8-0.9,1-1.7l0.5-1.3L205.9,9h2.4L211.6,18.8z M218.2,15.4
	c0-1.3,0.2-2.4,0.7-3.4c0.5-1,1.2-1.8,2.1-2.3c0.9-0.6,1.9-0.8,3.1-0.8c1.8,0,3.2,0.6,4.3,1.8c1.1,1.2,1.6,2.8,1.6,4.9v0.2
	c0,1.3-0.2,2.4-0.7,3.4c-0.5,1-1.2,1.8-2.1,2.3c-0.9,0.6-1.9,0.8-3.1,0.8c-1.8,0-3.2-0.6-4.3-1.8c-1.1-1.2-1.6-2.8-1.6-4.9V15.4z
	 M220.4,15.7c0,1.4,0.3,2.6,1,3.5c0.7,0.9,1.6,1.3,2.7,1.3c1.1,0,2-0.4,2.7-1.3c0.7-0.9,1-2.1,1-3.7c0-1.4-0.3-2.6-1-3.5
	c-0.7-0.9-1.6-1.3-2.7-1.3c-1.1,0-2,0.4-2.6,1.3C220.7,12.8,220.4,14,220.4,15.7z M240.8,20.7c-0.9,1-2.1,1.5-3.8,1.5
	c-1.4,0-2.4-0.4-3.2-1.2c-0.7-0.8-1.1-2-1.1-3.6V9h2.2v8.4c0,2,0.8,2.9,2.4,2.9c1.7,0,2.8-0.6,3.4-1.9V9h2.2v13h-2.1L240.8,20.7z
	 M253.5,22V10.7h-2V9h2V7.7c0-1.4,0.4-2.5,1.1-3.2c0.7-0.8,1.8-1.1,3.2-1.1c0.5,0,1,0.1,1.5,0.2l-0.1,1.8c-0.4-0.1-0.8-0.1-1.2-0.1
	c-0.7,0-1.3,0.2-1.7,0.6c-0.4,0.4-0.6,1-0.6,1.8V9h2.8v1.7h-2.8V22H253.5z M267.2,11c-0.3-0.1-0.7-0.1-1.1-0.1c-1.5,0-2.4,0.6-3,1.9
	V22h-2.2V9h2.2l0,1.5c0.7-1.2,1.8-1.7,3.1-1.7c0.4,0,0.8,0.1,1,0.2V11z M268.4,15.4c0-1.3,0.2-2.4,0.7-3.4c0.5-1,1.2-1.8,2.1-2.3
	c0.9-0.6,1.9-0.8,3.1-0.8c1.8,0,3.2,0.6,4.3,1.8c1.1,1.2,1.6,2.8,1.6,4.9v0.2c0,1.3-0.2,2.4-0.7,3.4c-0.5,1-1.2,1.8-2.1,2.3
	c-0.9,0.6-1.9,0.8-3.1,0.8c-1.8,0-3.2-0.6-4.3-1.8c-1.1-1.2-1.6-2.8-1.6-4.9V15.4z M270.6,15.7c0,1.4,0.3,2.6,1,3.5
	c0.7,0.9,1.6,1.3,2.7,1.3c1.1,0,2-0.4,2.7-1.3c0.7-0.9,1-2.1,1-3.7c0-1.4-0.3-2.6-1-3.5c-0.7-0.9-1.6-1.3-2.7-1.3
	c-1.1,0-2,0.4-2.6,1.3C271,12.8,270.6,14,270.6,15.7z M285.1,9l0.1,1.4c1-1.1,2.2-1.7,3.8-1.7c1.8,0,3,0.7,3.7,2.1
	c0.4-0.6,1-1.1,1.7-1.5c0.7-0.4,1.5-0.6,2.5-0.6c2.8,0,4.3,1.5,4.3,4.5V22h-2.2v-8.6c0-0.9-0.2-1.6-0.6-2.1
	c-0.4-0.5-1.1-0.7-2.1-0.7c-0.8,0-1.5,0.2-2.1,0.7c-0.5,0.5-0.9,1.1-0.9,2V22H291v-8.5c0-1.9-0.9-2.8-2.8-2.8c-1.5,0-2.4,0.6-3,1.9
	V22H283V9H285.1z M307.1,17.1c0-1,0.1-1.7,0.3-2.3c0.2-0.6,0.6-1.2,1.2-1.8l1.6-1.6c0.7-0.8,1-1.6,1-2.4c0-0.8-0.2-1.5-0.7-2
	c-0.4-0.5-1.1-0.7-1.9-0.7c-0.8,0-1.5,0.2-2,0.6c-0.5,0.4-0.7,1-0.7,1.7h-2.2c0-1.3,0.5-2.3,1.4-3.1c0.9-0.8,2.1-1.2,3.5-1.2
	c1.5,0,2.7,0.4,3.5,1.2c0.8,0.8,1.3,1.9,1.3,3.3c0,1.4-0.6,2.8-1.9,4.1l-1.3,1.3c-0.6,0.6-0.9,1.6-0.9,2.8H307.1z M307,20.9
	c0-0.4,0.1-0.7,0.3-0.9c0.2-0.2,0.6-0.4,1-0.4c0.4,0,0.8,0.1,1,0.4c0.2,0.2,0.3,0.5,0.3,0.9s-0.1,0.7-0.3,0.9
	c-0.2,0.2-0.6,0.3-1,0.3c-0.4,0-0.8-0.1-1-0.3C307.1,21.5,307,21.2,307,20.9z"/>
<linearGradient id="SVGID_1_" gradientUnits="userSpaceOnUse" x1="448.0781" y1="1.619" x2="472.2312" y2="675.0305" gradientTransform="matrix(1 0 0 -1 0 427.8898)">
	<stop  offset="0" style="stop-color:#1B1B1B"/>
	<stop  offset="1" style="stop-color:#1B1B1B;stop-opacity:0"/>
</linearGradient>
<rect x="90" y="262.2" class="st4" width="722" height="165.2"/>
<linearGradient id="SVGID_2_" gradientUnits="userSpaceOnUse" x1="446.5087" y1="370.5077" x2="437.8206" y2="-175.7185" gradientTransform="matrix(1 0 0 -1 0 427.8898)">
	<stop  offset="0" style="stop-color:#1B1B1B"/>
	<stop  offset="1" style="stop-color:#1B1B1B;stop-opacity:0"/>
</linearGradient>
<rect x="80" y="1" class="st5" width="733" height="113.9"/>
<path class="st6" d="M691,218.2c-0.6,0-1,0.4-1,1c0.2,6,2,11.8,5.4,16.8c3.5,5.3,8.5,9.4,14.4,11.8c5.8,2.4,12.3,3.1,18.5,1.8
	c6.2-1.2,11.9-4.3,16.4-8.8c4.5-4.5,7.5-10.2,8.8-16.4c1.2-6.2,0.6-12.6-1.8-18.5c-2.4-5.8-6.5-10.8-11.8-14.4
	c-5-3.3-10.8-5.2-16.8-5.4c-0.6,0-1,0.4-1,1v4c0,0.6,0.4,1,1,1c4.8,0.2,9.4,1.7,13.4,4.4c4.3,2.9,7.6,6.9,9.6,11.7
	c2,4.8,2.5,10,1.5,15c-1,5-3.5,9.7-7.1,13.3c-3.6,3.6-8.3,6.1-13.3,7.1c-5,1-10.3,0.5-15-1.5c-4.8-2-8.8-5.3-11.7-9.6
	c-2.7-4-4.2-8.7-4.4-13.4c0-0.6-0.5-1-1-1H691z"/>
<path class="st7" d="M717.2,183.3c0-0.6-0.5-1-1.1-0.9c-7.6,0.9-14.8,4.3-20.2,9.8s-8.9,12.6-9.7,20.2c-0.1,0.5,0.3,1,0.9,1.1
	l8.1,0.7c0.5,0,1-0.4,1.1-0.9c0.7-5.3,3-10.2,6.8-13.9c3.8-3.8,8.7-6.2,13.9-6.8c0.5-0.1,1-0.6,0.9-1.1L717.2,183.3z"/>
<path class="st2" d="M727.4,226.4h-10.3l-2,5.9h-6.2l10.6-28.4h5.4l10.6,28.4h-6.2L727.4,226.4z M718.7,221.6h7.1l-3.6-10.6
	L718.7,221.6z"/>
</svg>
