<svg width="358" height="358" viewBox="0 0 358 358" fill="none" xmlns="http://www.w3.org/2000/svg">
<path d="M5.32392 1.14682C3.29838 1.91513 1.13315 4.4296 0.783923 6.52499C0.504539 7.92191 1.27285 11.9031 2.87931 17.7702C9.72422 42.7751 13.9848 71.8311 15.0325 101.027L15.5214 115.136L17.4771 117.231C18.7344 118.558 20.8996 119.676 23.6934 120.444C37.523 124.216 49.8159 133.156 54.7051 142.795C58.4768 150.059 59.2451 153.481 59.5943 163.399C60.1531 178.975 57.0799 189.522 49.6063 197.554C43.9488 203.7 36.4054 207.193 25.5793 208.799C16.1501 210.126 15.1722 211.872 15.1722 227.658C15.0325 263.07 8.88607 316.362 1.76177 344.65C0.085462 351.076 0.434692 353.87 2.94915 356.244C5.39376 358.549 7.55899 358.41 29.0716 354.917C62.7374 349.469 90.0472 346.047 113.865 344.231C145.156 341.856 219.472 346.117 332.413 356.594C351.481 358.34 351.83 358.41 354.065 357.082C358.466 354.498 358.466 353.939 355.672 333.894C345.265 259.717 341.214 188.125 344.427 135.461C346.522 101.027 351.062 57.4428 356.72 18.2591C358.256 7.43298 358.116 5.12805 355.742 2.89297C353.088 0.448364 350.992 0.37854 341.842 2.68344C292.671 14.9065 206.411 18.6084 119.173 12.1825C89.9075 10.0173 38.2913 4.77884 16.2898 1.7056C8.3273 0.588074 7.00022 0.518219 5.32392 1.14682ZM33.6116 18.8179C47.93 20.6339 89.0694 24.7548 106.252 26.1517C195.585 33.276 276.466 31.1108 332.553 20.0053C338.979 18.748 341.004 18.5385 341.144 19.1671C341.284 19.656 340.585 26.1517 339.607 33.5554C327.314 127.429 325.638 183.096 332.623 263.279C333.88 277.528 338.699 320.413 340.445 333.265L341.703 342.205H340.026C339.048 342.205 329.968 341.437 319.701 340.459C229.041 332.008 151.791 327.538 121.268 329.004C97.3811 330.122 65.2519 333.894 28.7224 339.761C22.995 340.669 18.2454 341.367 18.1057 341.227C17.9661 341.158 18.6645 337.316 19.5725 332.706C24.9507 306.235 28.6525 272.918 29.7002 240.37C29.9796 231.429 30.5384 223.886 30.8876 223.537C31.2368 223.257 33.7513 222.419 36.4054 221.791C39.1294 221.162 43.8091 219.346 46.8823 217.879C63.366 209.917 72.5857 194.76 74.4715 172.479C76.4272 149.849 69.3728 131.689 53.5177 118.907C48.5586 114.926 38.85 109.548 34.1005 108.151C32.1448 107.592 30.8177 106.754 30.4685 105.846C30.1891 105.008 29.77 99.2107 29.5605 92.8547C28.7922 73.6471 25.5094 48.6422 20.9694 28.9456C18.1057 16.1637 18.1057 17.421 20.4107 17.421C21.5282 17.421 27.4651 18.0496 33.6116 18.8179Z" fill="#F4F4F4"/>
<path d="M200.543 60.728C193.419 61.3566 191.114 63.3123 191.114 68.8301C191.114 70.6461 191.673 71.9033 193.14 73.3701L195.165 75.3956H206.969C213.465 75.3956 220.589 75.7449 222.755 76.0941C227.574 77.0021 230.996 75.8147 232.603 72.6716C234.07 69.8778 234 67.9919 232.323 65.2679C230.647 62.6138 228.063 61.7058 218.983 60.728C211.859 59.9596 208.087 59.9596 200.543 60.728Z" fill="#F4F4F4"/>
<path d="M162.477 67.6382C150.115 72.2481 139.638 78.8835 138.52 82.8647C136.355 90.4081 144.317 95.0179 151.023 90.1985C155.842 86.7062 161.29 83.9822 167.716 81.6773C171.138 80.4899 174.701 78.8136 175.539 78.0453C178.821 74.9721 178.263 69.0352 174.421 66.8001C171.627 65.1238 168.554 65.3333 162.477 67.6382Z" fill="#F4F4F4"/>
<path d="M247.061 78.4644C242.94 80.7694 242.451 85.5887 245.874 90.5478C247.201 92.4337 249.227 95.926 250.414 98.3007C252.928 103.26 254.744 104.727 258.376 104.727C260.402 104.727 261.589 104.238 263.126 102.701C266.758 99.069 265.571 93.3417 259.424 84.122C255.163 77.766 251.392 76.0897 247.061 78.4644Z" fill="#F4F4F4"/>
<path d="M125.529 101.029C124.202 101.728 122.526 103.404 121.827 104.731C119.802 108.712 117.846 117.862 117.078 126.942C116.449 134.416 116.449 135.812 117.427 137.838C119.732 142.657 125.948 143.565 129.301 139.584C130.977 137.489 131.396 135.812 132.094 126.174C132.304 123.17 133.282 118.072 134.19 114.789C136.425 107.176 136.425 105.29 134.05 102.636C131.536 99.9814 128.672 99.4227 125.529 101.029Z" fill="#F4F4F4"/>
<path d="M227.783 103.192C224.571 105.218 218.494 112.132 218.005 114.507C217.167 118.279 219.332 120.793 232.882 131.619C239.937 137.277 245.594 142.096 245.455 142.446C245.315 142.725 239.448 147.684 232.323 153.342C224.99 159.278 218.983 164.587 218.424 165.774C216.887 169.057 218.284 172.2 223.872 177.578C228.133 181.699 229.041 182.258 231.415 182.258C232.882 182.258 234.838 181.769 235.676 181.14C236.584 180.512 241.683 174.505 247.131 167.73C252.509 160.885 257.189 155.088 257.468 154.738C257.817 154.459 262.637 159.977 268.294 166.962C273.952 174.016 279.4 180.372 280.447 181.001C281.425 181.699 283.451 182.258 284.987 182.258C287.362 182.258 288.2 181.769 292.74 177.159C301.611 168.289 301.192 167.241 283.381 152.922C276.047 146.986 270.32 141.957 270.599 141.677C270.879 141.468 276.606 136.858 283.311 131.48C296.652 120.793 297.769 119.746 297.979 117.65C298.398 113.809 297.839 112.342 294.417 108.64C289.667 103.402 286.734 101.655 283.521 102.144C282.194 102.354 280.587 102.983 279.958 103.471C279.4 103.96 274.371 110.037 268.783 116.952C263.265 123.866 258.516 129.594 258.236 129.734C257.957 129.803 252.928 123.936 247.131 116.603C234.908 101.306 233.022 100.049 227.783 103.192Z" fill="#0082FF"/>
<path d="M124.691 157.044C121.478 160.326 121.688 163.47 125.599 169.546C131.676 178.975 145.994 189.103 151.722 187.985C153.957 187.566 156.681 184.703 157.239 182.258C158.008 178.696 156.192 175.902 150.953 172.899C145.016 169.406 140.057 164.936 137.752 161.025C135.238 156.764 132.863 155.018 129.51 155.018C127.415 155.018 126.298 155.507 124.691 157.044Z" fill="#F4F4F4"/>
<path d="M171.487 184.982C169.951 186.589 169.462 187.706 169.462 189.871C169.462 193.992 171.487 195.878 178.891 198.602C186.365 201.396 191.533 203.91 196.283 207.193C200.823 210.266 204.315 210.127 207.458 206.634C211.858 201.745 208.157 195.948 196.911 190.081C189.787 186.379 179.869 182.957 176.307 182.957C174.211 182.957 173.094 183.445 171.487 184.982Z" fill="#F4F4F4"/>
<path d="M210.182 220.323C206.76 221.79 205.782 224.444 205.782 232.197C205.782 236.528 205.223 241.556 204.245 246.027C203.407 249.938 202.779 254.268 202.849 255.596C202.988 260.834 210.113 263.837 214.373 260.485C217.726 257.831 220.45 245.817 220.52 233.105C220.589 223.746 219.961 222 215.91 220.253C213.046 219.066 212.976 219.066 210.182 220.323Z" fill="#F4F4F4"/>
<path d="M91.4438 239.88C87.6023 241.487 86.7641 243.582 87.2531 250.567C87.9515 262.231 91.1644 268.168 96.6823 268.168C100.035 268.168 103.457 265.654 104.016 262.86C104.226 261.812 103.737 258.459 103.038 255.456C102.34 252.383 101.711 248.96 101.711 247.773C101.711 241.766 96.4727 237.715 91.4438 239.88Z" fill="#F4F4F4"/>
<path d="M260.612 255.11C242.522 261.117 234.14 279.696 242.033 296.459C250.624 314.898 275.07 319.089 289.458 304.701C298.957 295.202 300.983 280.185 294.208 268.66C291.553 264.12 286.036 259.301 280.657 256.786C276.676 254.901 275.07 254.551 269.692 254.412C265.85 254.272 262.358 254.551 260.612 255.11ZM273.044 269.638C276.676 270.616 280.867 274.597 282.334 278.299C284.01 282.839 283.451 288.357 280.797 292.129C272.905 303.304 255.234 298.834 254.116 285.284C253.208 274.458 262.567 266.705 273.044 269.638Z" fill="#5C5C5C"/>
<path d="M189.717 271.244C181.476 275.924 176.936 277.949 171.208 279.696C163.665 282 161.081 284.166 161.081 288.217C161.081 291.5 162.617 293.874 165.621 295.062C167.506 295.9 168.484 295.83 173.094 294.712C183.152 292.128 193.489 287.099 198.518 282.42C201.661 279.486 201.871 275.505 199.007 272.362C196.283 269.428 193.559 269.079 189.717 271.244Z" fill="#F4F4F4"/>
<path d="M109.604 277.246C106.531 279.132 105.274 283.113 106.88 286.257C109.534 291.355 122.526 297.083 133.98 298.13C143.549 299.038 146.483 297.362 146.692 291.006C146.762 287.304 143.689 284.51 138.94 283.952C129.65 282.834 126.926 282.066 121.059 278.993C114.214 275.5 112.817 275.221 109.604 277.246Z" fill="#F4F4F4"/>
</svg>
