<svg width="177" height="119" viewBox="0 0 177 119" fill="none" xmlns="http://www.w3.org/2000/svg">
<rect x="64.2441" y="2.5" width="47.1395" height="113" rx="2.5" stroke="#F4F4F4" stroke-width="5"/>
<rect x="112.954" y="62.1875" width="47.1395" height="53.314" rx="2.5" stroke="#F4F4F4" stroke-width="5"/>
<rect x="15.5347" y="42.9766" width="47.1395" height="72.5233" rx="2.5" stroke="#F4F4F4" stroke-width="5"/>
<rect y="114.57" width="176.314" height="3.43023" rx="1" fill="#F4F4F4"/>
<path d="M84.008 22.2V18.588H90.756V39H86.724V22.2H84.008Z" fill="#0082FF"/>
<path d="M33.716 74.576C35.508 73.0827 36.936 71.8413 38 70.852C39.064 69.844 39.9507 68.7987 40.66 67.716C41.3693 66.6333 41.724 65.5693 41.724 64.524C41.724 63.572 41.5 62.8253 41.052 62.284C40.604 61.7427 39.9133 61.472 38.98 61.472C38.0467 61.472 37.328 61.7893 36.824 62.424C36.32 63.04 36.0587 63.8893 36.04 64.972H32.232C32.3067 62.732 32.9693 61.0333 34.22 59.876C35.4893 58.7187 37.0947 58.14 39.036 58.14C41.164 58.14 42.7973 58.7093 43.936 59.848C45.0747 60.968 45.644 62.452 45.644 64.3C45.644 65.756 45.252 67.1467 44.468 68.472C43.684 69.7973 42.788 70.9547 41.78 71.944C40.772 72.9147 39.456 74.0907 37.832 75.472H46.092V78.72H32.26V75.808L33.716 74.576Z" fill="#0082FF"/>
<path d="M130.54 83.964C130.633 82.0973 131.287 80.66 132.5 79.652C133.732 78.6253 135.347 78.112 137.344 78.112C138.707 78.112 139.873 78.3547 140.844 78.84C141.815 79.3067 142.543 79.9507 143.028 80.772C143.532 81.5747 143.784 82.4893 143.784 83.516C143.784 84.692 143.476 85.6907 142.86 86.512C142.263 87.3147 141.544 87.856 140.704 88.136V88.248C141.787 88.584 142.627 89.1813 143.224 90.04C143.84 90.8987 144.148 92 144.148 93.344C144.148 94.464 143.887 95.4627 143.364 96.34C142.86 97.2173 142.104 97.908 141.096 98.412C140.107 98.8973 138.912 99.14 137.512 99.14C135.403 99.14 133.685 98.608 132.36 97.544C131.035 96.48 130.335 94.912 130.26 92.84H134.068C134.105 93.7547 134.413 94.492 134.992 95.052C135.589 95.5933 136.401 95.864 137.428 95.864C138.38 95.864 139.108 95.6027 139.612 95.08C140.135 94.5387 140.396 93.848 140.396 93.008C140.396 91.888 140.041 91.0853 139.332 90.6C138.623 90.1147 137.521 89.872 136.028 89.872H135.216V86.652H136.028C138.679 86.652 140.004 85.7653 140.004 83.992C140.004 83.1893 139.761 82.564 139.276 82.116C138.809 81.668 138.128 81.444 137.232 81.444C136.355 81.444 135.673 81.6867 135.188 82.172C134.721 82.6387 134.451 83.236 134.376 83.964H130.54Z" fill="#0082FF"/>
</svg>
