<?xml version="1.0" encoding="utf-8"?>
<!-- Generator: Adobe Illustrator 25.0.1, SVG Export Plug-In . SVG Version: 6.00 Build 0)  -->
<svg version="1.1" id="Layer_1" xmlns="http://www.w3.org/2000/svg" xmlns:xlink="http://www.w3.org/1999/xlink" x="0px" y="0px"
	 viewBox="0 0 385 512" style="enable-background:new 0 0 385 512;" xml:space="preserve">
<style type="text/css">
	.st0{fill:#F4F4F4;}
	.st1{fill:#0082FF;}
</style>
<path class="st0" d="M99.8,32.8C50.5,50.8,8.7,66.6,7,67.8c-6.3,4.7-6-0.1-6,105.5c0,91.5,0.5,111,3.1,129.7
	c7.6,54.9,28.5,97.5,65.5,133c24.3,23.4,50,40.4,98.1,65.1c16.9,8.7,22,10.9,25.3,10.9c6.4,0,52.1-23.7,78.5-40.8
	c63.5-41,97.6-91,108.9-159.5c4.2-25.4,4.6-36.9,4.6-138.4c0-103.9,0.2-100.1-5.2-105.1C376.6,65.3,197.4,0,192.7,0.1
	C191,0.1,149.1,14.8,99.8,32.8z M270.2,61.1c42.5,15.5,78.6,28.6,80.1,29.1l2.8,1l-0.4,97.2c-0.3,85.2-0.6,98.5-2.1,108.6
	c-7.4,50.2-24.1,84.2-56.5,115.3c-21.9,20.9-52.6,41.4-90.9,60.6l-10.4,5.2l-16.1-8.4c-65-33.8-101.4-65.8-122.2-107.5
	c-9.2-18.5-14.5-36.1-18.8-62.6c-2-12.6-2.1-17.1-2.4-110.7l-0.4-97.6l40.3-14.7c22.2-8,58.1-21.1,79.8-29.1
	c21.7-7.9,39.6-14.4,39.7-14.4C192.9,33,227.7,45.7,270.2,61.1z"/>
<path class="st1" d="M232.5,224c-27.5,27.5-50.4,50-51,50c-0.5,0-12.6-11.6-26.7-25.7L129,222.5l-11.2,11.3L106.5,245l37.5,37.5
	l37.5,37.5l61.8-61.8l61.7-61.7l-11.3-11.3L282.5,174L232.5,224z"/>
</svg>
