<svg width="9" height="9" viewBox="0 0 9 9" fill="none" xmlns="http://www.w3.org/2000/svg">
<path fill-rule="evenodd" clip-rule="evenodd" d="M8.8116 0.188286C9.06265 0.439334 9.06265 0.846364 8.8116 1.09741L1.09741 8.8116C0.846364 9.06265 0.439334 9.06265 0.188286 8.8116C-0.062762 8.56055 -0.062762 8.15352 0.188286 7.90247L7.90247 0.188286C8.15352 -0.062762 8.56055 -0.062762 8.8116 0.188286Z" fill="#F4F4F4"/>
<path fill-rule="evenodd" clip-rule="evenodd" d="M0.188286 0.188286C0.439334 -0.062762 0.846364 -0.062762 1.09741 0.188286L8.8116 7.90247C9.06265 8.15352 9.06265 8.56055 8.8116 8.8116C8.56055 9.06265 8.15352 9.06265 7.90247 8.8116L0.188286 1.09741C-0.062762 0.846364 -0.062762 0.439334 0.188286 0.188286Z" fill="#F4F4F4"/>
</svg>
