<svg width="37" height="37" viewBox="0 0 37 37" fill="none" xmlns="http://www.w3.org/2000/svg">
<path fill-rule="evenodd" clip-rule="evenodd" d="M18.5 16.9583C17.6486 16.9583 16.9583 17.6486 16.9583 18.5C16.9583 19.3514 17.6486 20.0417 18.5 20.0417C19.3514 20.0417 20.0417 19.3514 20.0417 18.5C20.0417 17.6486 19.3514 16.9583 18.5 16.9583ZM13.875 18.5C13.875 15.9457 15.9457 13.875 18.5 13.875C21.0543 13.875 23.125 15.9457 23.125 18.5C23.125 21.0543 21.0543 23.125 18.5 23.125C15.9457 23.125 13.875 21.0543 13.875 18.5Z" fill="#F4F4F4"/>
<path fill-rule="evenodd" clip-rule="evenodd" d="M8.69034 6.50997C9.29249 7.11194 9.29263 8.08807 8.69067 8.69022C6.08951 11.2922 4.62826 14.8207 4.62826 18.4998C4.62826 22.179 6.08951 25.7075 8.69067 28.3095C9.29263 28.9116 9.29249 29.8877 8.69034 30.4897C8.08819 31.0917 7.11206 31.0915 6.51009 30.4894C3.33089 27.3092 1.54492 22.9966 1.54492 18.4998C1.54492 14.0031 3.33089 9.69046 6.51009 6.5103C7.11206 5.90815 8.08819 5.90801 8.69034 6.50997ZM28.3096 6.50997C28.9117 5.90801 29.8879 5.90815 30.4898 6.5103C33.669 9.69046 35.455 14.0031 35.455 18.4998C35.455 22.9966 33.669 27.3092 30.4898 30.4894C29.8879 31.0915 28.9117 31.0917 28.3096 30.4897C27.7074 29.8877 27.7073 28.9116 28.3093 28.3095C30.9104 25.7075 32.3717 22.179 32.3717 18.4998C32.3717 14.8207 30.9104 11.2922 28.3093 8.69022C27.7073 8.08807 27.7074 7.11194 28.3096 6.50997ZM13.054 10.8582C13.6557 11.4606 13.6552 12.4368 13.0528 13.0385C12.3361 13.7544 11.7676 14.6045 11.3796 15.5403C10.9917 16.4761 10.7921 17.4791 10.7921 18.4921C10.7921 19.5051 10.9917 20.5082 11.3796 21.444C11.7676 22.3797 12.3361 23.2299 13.0528 23.9458C13.6552 24.5475 13.6557 25.5236 13.054 26.126C12.4523 26.7284 11.4762 26.729 10.8738 26.1272C9.87041 25.125 9.07443 23.9348 8.53134 22.6247C7.98826 21.3146 7.70873 19.9103 7.70873 18.4921C7.70873 17.0739 7.98826 15.6697 8.53134 14.3596C9.07443 13.0495 9.87041 11.8593 10.8738 10.857C11.4762 10.2553 12.4523 10.2559 13.054 10.8582ZM23.9459 10.8737C24.5476 10.2713 25.5238 10.2707 26.1261 10.8724C27.1295 11.8747 27.9255 13.0649 28.4686 14.375C29.0117 15.6851 29.2912 17.0894 29.2912 18.5076C29.2912 19.9257 29.0117 21.33 28.4686 22.6401C27.9255 23.9502 27.1295 25.1404 26.1261 26.1427C25.5238 26.7444 24.5476 26.7438 23.9459 26.1414C23.3442 25.5391 23.3447 24.5629 23.9471 23.9612C24.6638 23.2453 25.2324 22.3952 25.6203 21.4594C26.0082 20.5236 26.2079 19.5205 26.2079 18.5076C26.2079 17.4946 26.0082 16.4915 25.6203 15.5557C25.2324 14.6199 24.6638 13.7698 23.9471 13.0539C23.3447 12.4522 23.3442 11.4761 23.9459 10.8737Z" fill="#F4F4F4"/>
</svg>
