<?xml version="1.0" encoding="utf-8"?>
<!-- Generator: Adobe Illustrator 25.0.1, SVG Export Plug-In . SVG Version: 6.00 Build 0)  -->
<svg version="1.1" id="light" xmlns="http://www.w3.org/2000/svg" xmlns:xlink="http://www.w3.org/1999/xlink" x="0px" y="0px"
	 viewBox="0 0 591 512" style="enable-background:new 0 0 591 512;" xml:space="preserve">
<style type="text/css">
	.st0{fill:none;stroke:#000000;stroke-width:20;stroke-miterlimit:10;}
	.st1{fill:none;stroke:#000000;stroke-width:12;stroke-miterlimit:10;}
</style>
<path class="st0" d="M536,405H55c-6.4,0-11.5-5.1-11.5-11.5v-283c0-6.4,5.1-11.5,11.5-11.5h481c6.4,0,11.5,5.1,11.5,11.5v283
	C547.5,399.9,542.4,405,536,405z"/>
<g id="Layer_7_1_">
	<path d="M243.8,245.9c27.7-22.3,31.9-62.8,9.6-89.3s-62.8-31.9-89.3-9.6c-26.6,22.3-31.9,62.8-9.6,89.3c3.2,3.2,6.4,7.4,9.6,9.6
		c-46.8,17-77.6,60.6-77.6,109.6v10.6h234v-10.6C320.3,306.6,289.5,263,243.8,245.9z M160.8,196c0-23.4,19.1-42.5,42.5-42.5
		s42.5,19.1,42.5,42.5s-19.1,42.5-42.5,42.5S160.8,219.4,160.8,196z M108.7,344.9c5.3-52.1,53.2-90.4,105.3-85.1
		c44.7,5.3,79.8,40.4,85.1,85.1H108.7z"/>
</g>
<path class="st1" d="M500,159.8H353c-0.6,0-1-0.4-1-1v-4.4c0-0.6,0.4-1,1-1h147c0.6,0,1,0.4,1,1v4.4
	C501,159.4,500.6,159.8,500,159.8z"/>
<path class="st1" d="M500,194.6H353c-0.6,0-1-0.4-1-1v-4.4c0-0.6,0.4-1,1-1h147c0.6,0,1,0.4,1,1v4.4
	C501,194.2,500.6,194.6,500,194.6z"/>
<path class="st1" d="M500,229.4H353c-0.6,0-1-0.4-1-1V224c0-0.6,0.4-1,1-1h147c0.6,0,1,0.4,1,1v4.4C501,229,500.6,229.4,500,229.4z"
	/>
</svg>
