<svg width="26" height="26" viewBox="0 0 26 26" fill="none" xmlns="http://www.w3.org/2000/svg">
<path d="M22.4457 24.3641H2.41758C1.46797 24.3641 0.701172 23.5973 0.701172 22.6477V6.71758C0.701172 6.52461 0.858594 6.36719 1.05156 6.36719H22.4457C23.3953 6.36719 24.1621 7.13398 24.1621 8.08359V12.7859C24.1621 12.9789 24.0047 13.1363 23.8117 13.1363C23.6188 13.1363 23.4613 12.9789 23.4613 12.7859V8.08359C23.4613 7.525 23.0094 7.06797 22.4457 7.06797H1.40703V22.6477C1.40703 23.2062 1.85898 23.6633 2.42266 23.6633H22.4457C23.0043 23.6633 23.4613 23.2113 23.4613 22.6477V17.9453C23.4613 17.7523 23.6188 17.5949 23.8117 17.5949C24.0047 17.5949 24.1621 17.7523 24.1621 17.9453V22.6477C24.157 23.5973 23.3902 24.3641 22.4457 24.3641Z" stroke="#0082FF" stroke-width="0.9" stroke-miterlimit="10"/>
<path d="M24.3598 18.2957H20.2465C18.6266 18.2957 17.3164 16.9855 17.3164 15.3656C17.3164 13.7457 18.6266 12.4355 20.2465 12.4355H24.3598C24.8777 12.4355 25.2992 12.857 25.2992 13.375V17.3562C25.2992 17.8742 24.8777 18.2957 24.3598 18.2957ZM20.2414 13.1414C19.0125 13.1414 18.0121 14.1367 18.0121 15.3707C18.0121 16.5996 19.0074 17.6 20.2414 17.6H24.3547C24.4867 17.6 24.5934 17.4934 24.5934 17.3613V13.3801C24.5934 13.248 24.4867 13.1414 24.3547 13.1414H20.2414Z" stroke="#0082FF" stroke-width="0.9" stroke-miterlimit="10"/>
<path d="M1.05547 7.07367C0.8625 7.07367 0.705078 6.91625 0.705078 6.72328C0.705078 6.57093 0.801563 6.4389 0.94375 6.3932L14.4059 1.77718C15.7414 1.32014 17.1937 2.03108 17.6508 3.36663C17.7422 3.63577 17.7879 3.91507 17.7879 4.19437V6.72328C17.7879 6.91625 17.6305 7.07367 17.4375 7.07367C17.2445 7.07367 17.0871 6.91625 17.0871 6.72328V4.19437C17.0871 3.17366 16.2594 2.34085 15.2336 2.34085C15.0305 2.34085 14.8273 2.3764 14.6344 2.44241L1.16719 7.05336C1.13164 7.06351 1.09102 7.07367 1.05547 7.07367Z" stroke="#0082FF" stroke-width="0.9" stroke-miterlimit="10"/>
</svg>
